<svg width="26" height="26" viewBox="0 0 26 26" fill="none" xmlns="http://www.w3.org/2000/svg">
<path d="M25.7481 2.12437V23.8728C25.7481 24.37 25.5506 24.8469 25.199 25.1985C24.8474 25.5501 24.3705 25.7476 23.8733 25.7476H2.12486C1.62762 25.7476 1.15074 25.5501 0.799135 25.1985C0.44753 24.8469 0.25 24.37 0.25 23.8728L0.25 2.12437C0.25 1.62713 0.44753 1.15025 0.799135 0.798646C1.15074 0.447041 1.62762 0.249512 2.12486 0.249512L23.8733 0.249512C24.3705 0.249512 24.8474 0.447041 25.199 0.798646C25.5506 1.15025 25.7481 1.62713 25.7481 2.12437ZM7.74945 9.9988H3.99973V21.9979H7.74945V9.9988ZM8.08693 5.8741C8.0889 5.59046 8.03499 5.30922 7.92827 5.04641C7.82155 4.78361 7.66411 4.54441 7.46495 4.34245C7.26578 4.1405 7.02878 3.97975 6.76749 3.86939C6.50619 3.75903 6.22572 3.70122 5.94208 3.69926H5.87459C5.29779 3.69926 4.74461 3.92839 4.33674 4.33626C3.92888 4.74412 3.69975 5.2973 3.69975 5.8741C3.69975 6.4509 3.92888 7.00408 4.33674 7.41195C4.74461 7.81981 5.29779 8.04894 5.87459 8.04894C6.15824 8.05592 6.4405 8.00694 6.70522 7.9048C6.96993 7.80265 7.21193 7.64935 7.41739 7.45365C7.62284 7.25795 7.78771 7.02368 7.9026 6.76424C8.01748 6.50479 8.08012 6.22526 8.08693 5.9416V5.8741ZM21.9984 14.7085C21.9984 11.1012 19.7036 9.69882 17.4237 9.69882C16.6773 9.66144 15.9341 9.82043 15.2682 10.1599C14.6024 10.4994 14.0372 11.0076 13.629 11.6337H13.524V9.9988H9.99929V21.9979H13.749V15.6159C13.6948 14.9623 13.9007 14.3136 14.322 13.8109C14.7432 13.3082 15.3458 12.9921 15.9988 12.9311H16.1413C17.3338 12.9311 18.2187 13.681 18.2187 15.5709V21.9979H21.9684L21.9984 14.7085Z" fill="#B0B7C3"/>
</svg>
