<svg width="29" height="24" viewBox="0 0 29 24" fill="none" xmlns="http://www.w3.org/2000/svg">
<path d="M25.5402 6.21929C25.5574 6.46905 25.5574 6.71881 25.5574 6.97088C25.5574 14.6513 19.7105 23.5092 9.01908 23.5092V23.5046C5.8608 23.5092 2.76813 22.6046 0.109375 20.8988C0.568614 20.9541 1.03016 20.9817 1.49285 20.9829C4.11017 20.9852 6.65267 20.107 8.71177 18.4898C6.22451 18.4426 4.04341 16.8209 3.28146 14.4534C4.15275 14.6214 5.05051 14.5869 5.90569 14.3532C3.19399 13.8054 1.24309 11.4228 1.24309 8.6559C1.24309 8.63058 1.24309 8.60641 1.24309 8.58224C2.05107 9.03227 2.95574 9.28203 3.88112 9.30966C1.32711 7.60276 0.53984 4.20508 2.08215 1.54863C5.03325 5.17996 9.38739 7.38753 14.0615 7.62118C13.5931 5.60237 14.233 3.48687 15.7431 2.06772C18.0842 -0.132943 21.7661 -0.0201478 23.9668 2.31979C25.2685 2.06312 26.5162 1.58546 27.658 0.908689C27.2241 2.25418 26.3159 3.3971 25.1028 4.12336C26.2549 3.98755 27.3806 3.67909 28.4406 3.20834C27.6603 4.37773 26.6773 5.39634 25.5402 6.21929Z" fill="#B0B7C3"/>
</svg>
