<svg width="52" height="47" viewBox="0 0 52 47" fill="none" xmlns="http://www.w3.org/2000/svg">
<path d="M21.4676 3.67231C11.5882 3.73227 3.62788 11.7897 3.68784 21.6693C3.74798 31.5487 11.8054 39.5088 21.6848 39.4489C31.5644 39.3889 39.5245 31.3315 39.4644 21.4519C39.4046 11.5725 31.347 3.61217 21.4676 3.67231Z" fill="#FFC661"/>
<path d="M12.7283 13.7868V18.8929H14.7785V14.808H18.8791V12.7656H13.7534C13.4815 12.7656 13.2208 12.8732 13.0285 13.0647C12.8363 13.2562 12.7283 13.516 12.7283 13.7868ZM31.1807 18.8929V13.7868C31.1807 13.516 31.0727 13.2562 30.8805 13.0647C30.6882 12.8732 30.4275 12.7656 30.1556 12.7656H25.0299V14.808H29.1305V18.8929H31.1807ZM29.1305 29.105H25.0299V31.1474H30.1556C30.4275 31.1474 30.6882 31.0398 30.8805 30.8483C31.0727 30.6568 31.1807 30.397 31.1807 30.1262V25.0201H29.1305V29.105ZM18.8791 31.1474V29.105H14.7785V25.0201H12.7283V30.1262C12.7283 30.397 12.8363 30.6568 13.0285 30.8483C13.2208 31.0398 13.4815 31.1474 13.7534 31.1474H18.8791ZM11.7031 20.9353H32.2059V22.9777H11.7031V20.9353Z" fill="#E4A356"/>
<path d="M12.3454 13.322V18.428H14.3957V14.3432H18.4963V12.3008H13.3706C13.0987 12.3008 12.838 12.4084 12.6457 12.5999C12.4535 12.7914 12.3454 13.0511 12.3454 13.322ZM30.7979 18.428V13.322C30.7979 13.0511 30.6899 12.7914 30.4977 12.5999C30.3054 12.4084 30.0447 12.3008 29.7728 12.3008H24.6471V14.3432H28.7476V18.428H30.7979ZM28.7476 28.6401H24.6471V30.6825H29.7728C30.0447 30.6825 30.3054 30.575 30.4977 30.3834C30.6899 30.1919 30.7979 29.9322 30.7979 29.6613V24.5553H28.7476V28.6401ZM18.4963 30.6825V28.6401H14.3957V24.5553H12.3454V29.6613C12.3454 29.9322 12.4535 30.1919 12.6457 30.3834C12.838 30.575 13.0987 30.6825 13.3706 30.6825H18.4963ZM11.3203 20.4705H31.8231V22.5129H11.3203V20.4705Z" fill="white"/>
<path d="M21.5114 39.3887C11.6831 39.3879 3.68527 31.4508 3.62531 21.6087C3.62343 21.2854 3.63003 20.9643 3.64492 20.6453C3.68112 19.8755 3.76596 19.1188 3.89661 18.3773C5.3664 10.0304 12.6286 3.66489 21.4051 3.61172C21.4424 3.61135 21.4788 3.61135 21.5161 3.61135C31.3443 3.61135 39.3423 11.5492 39.4019 21.3913C39.4172 23.8999 38.9153 26.291 37.9964 28.4635C35.9563 33.2863 31.8595 37.032 26.7999 38.5946C25.1625 39.1004 23.4246 39.3774 21.6223 39.3883C21.585 39.3885 21.5488 39.3887 21.5114 39.3887ZM21.516 5.27551C21.4826 5.27551 21.4487 5.2757 21.4153 5.27589C12.4548 5.33018 5.23519 12.6382 5.28967 21.5985C5.34378 30.5255 12.5969 37.7243 21.5116 37.7243C21.545 37.7243 21.5789 37.7243 21.6123 37.7241C30.5726 37.6696 37.7922 30.3618 37.7377 21.4015C37.6836 12.4746 30.4305 5.27551 21.516 5.27551Z" fill="#E49F4E"/>
<path d="M21.6085 39.3883C11.7291 39.4482 3.67167 31.4881 3.61153 21.6087C3.55158 11.7291 11.5119 3.67167 21.3913 3.61172C31.2707 3.55158 39.3283 11.5119 39.3883 21.3913C39.4482 31.2709 31.4881 39.3283 21.6085 39.3883ZM21.3694 0.000404358C9.49539 0.072422 -0.0718013 9.75651 0.000406057 21.6306C0.0724249 33.5044 9.75651 43.0716 21.6306 42.9996C33.5044 42.9276 43.0718 33.2433 42.9996 21.3694C42.9274 9.49558 33.2433 -0.071804 21.3694 0.000404358Z" fill="#FFC661"/>
<circle cx="39.5" cy="32.5" r="12" fill="#289F4C" stroke="white"/>
<path d="M31.6296 36V35.2841L33.8445 32.9893C34.081 32.7401 34.2759 32.5217 34.4293 32.3342C34.5849 32.1445 34.701 31.9645 34.7777 31.794C34.8544 31.6236 34.8928 31.4425 34.8928 31.2507C34.8928 31.0334 34.8416 30.8459 34.7393 30.6882C34.6371 30.5284 34.4975 30.4059 34.3207 30.3207C34.1438 30.2333 33.9446 30.1896 33.723 30.1896C33.4886 30.1896 33.2841 30.2376 33.1094 30.3335C32.9347 30.4293 32.8004 30.5646 32.7067 30.7393C32.6129 30.9141 32.5661 31.1186 32.5661 31.353H31.6232C31.6232 30.9545 31.7148 30.6062 31.8981 30.3079C32.0813 30.0096 32.3327 29.7784 32.6523 29.6143C32.9719 29.4482 33.3352 29.3651 33.7422 29.3651C34.1534 29.3651 34.5156 29.4471 34.8288 29.6112C35.1442 29.7731 35.3903 29.9947 35.5671 30.2759C35.744 30.555 35.8324 30.8704 35.8324 31.2219C35.8324 31.4648 35.7866 31.7024 35.695 31.9347C35.6055 32.1669 35.4489 32.4258 35.2251 32.7113C35.0014 32.9947 34.6903 33.3388 34.2919 33.7436L32.9911 35.1051V35.1531H35.9379V36H31.6296ZM39.4279 36.1087C38.9229 36.1065 38.4915 35.9734 38.1335 35.7092C37.7756 35.445 37.5018 35.0604 37.3121 34.5554C37.1225 34.0504 37.0277 33.4421 37.0277 32.7305C37.0277 32.021 37.1225 31.4148 37.3121 30.9119C37.5039 30.4091 37.7788 30.0256 38.1367 29.7614C38.4968 29.4972 38.9272 29.3651 39.4279 29.3651C39.9286 29.3651 40.358 29.4982 40.7159 29.7646C41.0739 30.0288 41.3477 30.4123 41.5373 30.9151C41.729 31.4158 41.8249 32.021 41.8249 32.7305C41.8249 33.4442 41.7301 34.0536 41.5405 34.5586C41.3509 35.0614 41.0771 35.446 40.7191 35.7124C40.3612 35.9766 39.9308 36.1087 39.4279 36.1087ZM39.4279 35.2553C39.8711 35.2553 40.2173 35.0391 40.4666 34.6065C40.718 34.174 40.8438 33.5487 40.8438 32.7305C40.8438 32.1871 40.7862 31.728 40.6712 31.353C40.5582 30.9759 40.3952 30.6903 40.1822 30.4964C39.9712 30.3004 39.7198 30.2024 39.4279 30.2024C38.9869 30.2024 38.6406 30.4197 38.3892 30.8544C38.1378 31.2891 38.011 31.9144 38.0089 32.7305C38.0089 33.2759 38.0653 33.7372 38.1783 34.1143C38.2933 34.4893 38.4563 34.7738 38.6673 34.9677C38.8782 35.1594 39.1317 35.2553 39.4279 35.2553ZM45.2375 36.1087C44.7325 36.1065 44.301 35.9734 43.9431 35.7092C43.5851 35.445 43.3113 35.0604 43.1217 34.5554C42.9321 34.0504 42.8373 33.4421 42.8373 32.7305C42.8373 32.021 42.9321 31.4148 43.1217 30.9119C43.3135 30.4091 43.5883 30.0256 43.9463 29.7614C44.3064 29.4972 44.7368 29.3651 45.2375 29.3651C45.7382 29.3651 46.1675 29.4982 46.5255 29.7646C46.8834 30.0288 47.1572 30.4123 47.3469 30.9151C47.5386 31.4158 47.6345 32.021 47.6345 32.7305C47.6345 33.4442 47.5397 34.0536 47.3501 34.5586C47.1604 35.0614 46.8866 35.446 46.5287 35.7124C46.1707 35.9766 45.7403 36.1087 45.2375 36.1087ZM45.2375 35.2553C45.6807 35.2553 46.0269 35.0391 46.2762 34.6065C46.5276 34.174 46.6533 33.5487 46.6533 32.7305C46.6533 32.1871 46.5958 31.728 46.4807 31.353C46.3678 30.9759 46.2048 30.6903 45.9917 30.4964C45.7808 30.3004 45.5294 30.2024 45.2375 30.2024C44.7964 30.2024 44.4502 30.4197 44.1988 30.8544C43.9474 31.2891 43.8206 31.9144 43.8184 32.7305C43.8184 33.2759 43.8749 33.7372 43.9878 34.1143C44.1029 34.4893 44.2659 34.7738 44.4768 34.9677C44.6878 35.1594 44.9413 35.2553 45.2375 35.2553Z" fill="white"/>
</svg>
