<svg width="37" height="37" viewBox="0 0 37 37" fill="none" xmlns="http://www.w3.org/2000/svg">
<path d="M18.471 3.16053C9.97017 3.21212 3.12058 10.1453 3.17216 18.6463C3.22391 27.1472 10.1571 33.9966 18.6579 33.945C27.159 33.8934 34.0084 26.9603 33.9567 18.4592C33.9052 9.95837 26.9719 3.10878 18.471 3.16053Z" fill="#FFC661"/>
<path d="M10.9524 11.8631V16.2567H12.7166V12.7418H16.245V10.9844H11.8345C11.6006 10.9844 11.3762 11.077 11.2108 11.2417C11.0453 11.4065 10.9524 11.63 10.9524 11.8631ZM26.8301 16.2567V11.8631C26.8301 11.63 26.7372 11.4065 26.5718 11.2417C26.4063 11.077 26.182 10.9844 25.948 10.9844H21.5375V12.7418H25.0659V16.2567H26.8301ZM25.0659 25.0438H21.5375V26.8012H25.948C26.182 26.8012 26.4063 26.7087 26.5718 26.5439C26.7372 26.3791 26.8301 26.1556 26.8301 25.9225V21.529H25.0659V25.0438ZM16.245 26.8012V25.0438H12.7166V21.529H10.9524V25.9225C10.9524 26.1556 11.0453 26.3791 11.2108 26.5439C11.3762 26.7087 11.6006 26.8012 11.8345 26.8012H16.245ZM10.0703 18.0141H27.7122V19.7715H10.0703V18.0141Z" fill="#E4A356"/>
<path d="M10.6243 11.4627V15.8563H12.3885V12.3414H15.9168V10.584H11.5064C11.2724 10.584 11.0481 10.6766 10.8826 10.8414C10.7172 11.0061 10.6243 11.2296 10.6243 11.4627ZM26.502 15.8563V11.4627C26.502 11.2296 26.409 11.0061 26.2436 10.8414C26.0782 10.6766 25.8538 10.584 25.6199 10.584H21.2094V12.3414H24.7378V15.8563H26.502ZM24.7378 24.6434H21.2094V26.4009H25.6199C25.8538 26.4009 26.0782 26.3083 26.2436 26.1435C26.409 25.9787 26.502 25.7552 26.502 25.5221V21.1286H24.7378V24.6434ZM15.9168 26.4009V24.6434H12.3885V21.1286H10.6243V25.5221C10.6243 25.7552 10.7172 25.9787 10.8826 26.1435C11.0481 26.3083 11.2724 26.4009 11.5064 26.4009H15.9168ZM9.74219 17.6137H27.3841V19.3711H9.74219V17.6137Z" fill="white"/>
<path d="M18.5078 33.8926C10.0509 33.8919 3.16905 27.0623 3.11746 18.5935C3.11584 18.3153 3.12151 18.039 3.13433 17.7646C3.16548 17.1022 3.23848 16.451 3.3509 15.813C4.6156 8.63085 10.8645 3.15351 18.4163 3.10776C18.4485 3.10744 18.4798 3.10744 18.5119 3.10744C26.9686 3.10744 33.8507 9.93772 33.902 18.4065C33.9151 20.565 33.4833 22.6225 32.6926 24.4918C30.9371 28.6417 27.412 31.8648 23.0584 33.2093C21.6495 33.6445 20.1541 33.8828 18.6032 33.8923C18.5711 33.8924 18.54 33.8926 18.5078 33.8926ZM18.5117 4.53939C18.483 4.53939 18.4538 4.53955 18.4251 4.53972C10.7149 4.58644 4.5027 10.8747 4.54958 18.5848C4.59614 26.2661 10.8372 32.4605 18.508 32.4605C18.5367 32.4605 18.5659 32.4605 18.5946 32.4603C26.3047 32.4134 32.5169 26.1253 32.47 18.4152C32.4234 10.7339 26.1824 4.53939 18.5117 4.53939Z" fill="#E49F4E"/>
<path d="M18.5934 33.8922C10.0925 33.9438 3.15934 27.0944 3.10759 18.5935C3.05601 10.0925 9.9056 3.15935 18.4065 3.10776C26.9074 3.05601 33.8407 9.9056 33.8923 18.4065C33.9438 26.9075 27.0944 33.8407 18.5934 33.8922ZM18.3877 0.000347137C8.17045 0.0623169 -0.0617825 8.39513 0.000349398 18.6123C0.0623191 28.8294 8.39514 37.0616 18.6123 36.9997C28.8294 36.9377 37.0618 28.6047 36.9997 18.3877C36.9375 8.17061 28.6047 -0.0617828 18.3877 0.000347137Z" fill="#FFC661"/>
</svg>
