<svg width="52" height="47" viewBox="0 0 52 47" fill="none" xmlns="http://www.w3.org/2000/svg">
<path d="M21.4676 3.67231C11.5882 3.73227 3.62788 11.7897 3.68784 21.6693C3.74798 31.5487 11.8054 39.5088 21.6848 39.4489C31.5644 39.3889 39.5245 31.3315 39.4644 21.4519C39.4046 11.5725 31.347 3.61217 21.4676 3.67231Z" fill="#FFC661"/>
<path d="M12.7283 13.7868V18.8929H14.7785V14.808H18.8791V12.7656H13.7534C13.4815 12.7656 13.2208 12.8732 13.0285 13.0647C12.8363 13.2562 12.7283 13.516 12.7283 13.7868ZM31.1807 18.8929V13.7868C31.1807 13.516 31.0727 13.2562 30.8805 13.0647C30.6882 12.8732 30.4275 12.7656 30.1556 12.7656H25.0299V14.808H29.1305V18.8929H31.1807ZM29.1305 29.105H25.0299V31.1474H30.1556C30.4275 31.1474 30.6882 31.0398 30.8805 30.8483C31.0727 30.6568 31.1807 30.397 31.1807 30.1262V25.0201H29.1305V29.105ZM18.8791 31.1474V29.105H14.7785V25.0201H12.7283V30.1262C12.7283 30.397 12.8363 30.6568 13.0285 30.8483C13.2208 31.0398 13.4815 31.1474 13.7534 31.1474H18.8791ZM11.7031 20.9353H32.2059V22.9777H11.7031V20.9353Z" fill="#E4A356"/>
<path d="M12.3454 13.322V18.428H14.3957V14.3432H18.4963V12.3008H13.3706C13.0987 12.3008 12.838 12.4084 12.6457 12.5999C12.4535 12.7914 12.3454 13.0511 12.3454 13.322ZM30.7979 18.428V13.322C30.7979 13.0511 30.6899 12.7914 30.4977 12.5999C30.3054 12.4084 30.0447 12.3008 29.7728 12.3008H24.6471V14.3432H28.7476V18.428H30.7979ZM28.7476 28.6401H24.6471V30.6825H29.7728C30.0447 30.6825 30.3054 30.575 30.4977 30.3834C30.6899 30.1919 30.7979 29.9322 30.7979 29.6613V24.5553H28.7476V28.6401ZM18.4963 30.6825V28.6401H14.3957V24.5553H12.3454V29.6613C12.3454 29.9322 12.4535 30.1919 12.6457 30.3834C12.838 30.575 13.0987 30.6825 13.3706 30.6825H18.4963ZM11.3203 20.4705H31.8231V22.5129H11.3203V20.4705Z" fill="white"/>
<path d="M21.5114 39.3887C11.6831 39.3879 3.68527 31.4508 3.62531 21.6087C3.62343 21.2854 3.63003 20.9643 3.64492 20.6453C3.68112 19.8755 3.76596 19.1188 3.89661 18.3773C5.3664 10.0304 12.6286 3.66489 21.4051 3.61172C21.4424 3.61135 21.4788 3.61135 21.5161 3.61135C31.3443 3.61135 39.3423 11.5492 39.4019 21.3913C39.4172 23.8999 38.9153 26.291 37.9964 28.4635C35.9563 33.2863 31.8595 37.032 26.7999 38.5946C25.1625 39.1004 23.4246 39.3774 21.6223 39.3883C21.585 39.3885 21.5488 39.3887 21.5114 39.3887ZM21.516 5.27551C21.4826 5.27551 21.4487 5.2757 21.4153 5.27589C12.4548 5.33018 5.23519 12.6382 5.28967 21.5985C5.34378 30.5255 12.5969 37.7243 21.5116 37.7243C21.545 37.7243 21.5789 37.7243 21.6123 37.7241C30.5726 37.6696 37.7922 30.3618 37.7377 21.4015C37.6836 12.4746 30.4305 5.27551 21.516 5.27551Z" fill="#E49F4E"/>
<path d="M21.6085 39.3883C11.7291 39.4482 3.67167 31.4881 3.61153 21.6087C3.55158 11.7291 11.5119 3.67167 21.3913 3.61172C31.2707 3.55158 39.3283 11.5119 39.3883 21.3913C39.4482 31.2709 31.4881 39.3283 21.6085 39.3883ZM21.3694 0.000404358C9.49539 0.072422 -0.0718013 9.75651 0.000406057 21.6306C0.0724249 33.5044 9.75651 43.0716 21.6306 42.9996C33.5044 42.9276 43.0718 33.2433 42.9996 21.3694C42.9274 9.49558 33.2433 -0.071804 21.3694 0.000404358Z" fill="#FFC661"/>
<circle cx="39.5" cy="32.5" r="12" fill="#289F4C" stroke="white"/>
<path d="M31.6562 35.2955V34.2301L35.4276 28.2727H36.267V29.8409H35.7344L33.0369 34.1108V34.179H38.206V35.2955H31.6562ZM35.794 37V34.9716L35.8026 34.4858V28.2727H37.0511V37H35.794ZM42.7294 37.1449C42.0561 37.142 41.4808 36.9645 41.0036 36.6122C40.5263 36.2599 40.1612 35.7472 39.9084 35.0739C39.6555 34.4006 39.5291 33.5895 39.5291 32.6406C39.5291 31.6946 39.6555 30.8864 39.9084 30.2159C40.1641 29.5455 40.5305 29.0341 41.0078 28.6818C41.4879 28.3295 42.0618 28.1534 42.7294 28.1534C43.397 28.1534 43.9695 28.331 44.4467 28.6861C44.924 29.0384 45.2891 29.5497 45.5419 30.2202C45.7976 30.8878 45.9254 31.6946 45.9254 32.6406C45.9254 33.5923 45.799 34.4048 45.5462 35.0781C45.2933 35.7486 44.9283 36.2614 44.451 36.6165C43.9737 36.9688 43.3999 37.1449 42.7294 37.1449ZM42.7294 36.0071C43.3203 36.0071 43.782 35.7188 44.1143 35.142C44.4496 34.5653 44.6172 33.7315 44.6172 32.6406C44.6172 31.9162 44.5405 31.304 44.3871 30.804C44.2365 30.3011 44.0192 29.9205 43.7351 29.6619C43.4538 29.4006 43.1186 29.2699 42.7294 29.2699C42.1413 29.2699 41.6797 29.5597 41.3445 30.1392C41.0092 30.7187 40.8402 31.5526 40.8374 32.6406C40.8374 33.3679 40.9126 33.983 41.0632 34.4858C41.2166 34.9858 41.4339 35.3651 41.7152 35.6236C41.9964 35.8793 42.3345 36.0071 42.7294 36.0071Z" fill="white"/>
</svg>
