<svg width="52" height="47" viewBox="0 0 52 47" fill="none" xmlns="http://www.w3.org/2000/svg">
<path d="M21.4676 3.67231C11.5882 3.73227 3.62788 11.7897 3.68784 21.6693C3.74798 31.5487 11.8054 39.5088 21.6848 39.4489C31.5644 39.3889 39.5245 31.3315 39.4644 21.4519C39.4046 11.5725 31.347 3.61217 21.4676 3.67231Z" fill="#FFC661"/>
<path d="M12.7283 13.7868V18.8929H14.7785V14.808H18.8791V12.7656H13.7534C13.4815 12.7656 13.2208 12.8732 13.0285 13.0647C12.8363 13.2562 12.7283 13.516 12.7283 13.7868ZM31.1807 18.8929V13.7868C31.1807 13.516 31.0727 13.2562 30.8805 13.0647C30.6882 12.8732 30.4275 12.7656 30.1556 12.7656H25.0299V14.808H29.1305V18.8929H31.1807ZM29.1305 29.105H25.0299V31.1474H30.1556C30.4275 31.1474 30.6882 31.0398 30.8805 30.8483C31.0727 30.6568 31.1807 30.397 31.1807 30.1262V25.0201H29.1305V29.105ZM18.8791 31.1474V29.105H14.7785V25.0201H12.7283V30.1262C12.7283 30.397 12.8363 30.6568 13.0285 30.8483C13.2208 31.0398 13.4815 31.1474 13.7534 31.1474H18.8791ZM11.7031 20.9353H32.2059V22.9777H11.7031V20.9353Z" fill="#E4A356"/>
<path d="M12.3454 13.322V18.428H14.3957V14.3432H18.4963V12.3008H13.3706C13.0987 12.3008 12.838 12.4084 12.6457 12.5999C12.4535 12.7914 12.3454 13.0511 12.3454 13.322ZM30.7979 18.428V13.322C30.7979 13.0511 30.6899 12.7914 30.4977 12.5999C30.3054 12.4084 30.0447 12.3008 29.7728 12.3008H24.6471V14.3432H28.7476V18.428H30.7979ZM28.7476 28.6401H24.6471V30.6825H29.7728C30.0447 30.6825 30.3054 30.575 30.4977 30.3834C30.6899 30.1919 30.7979 29.9322 30.7979 29.6613V24.5553H28.7476V28.6401ZM18.4963 30.6825V28.6401H14.3957V24.5553H12.3454V29.6613C12.3454 29.9322 12.4535 30.1919 12.6457 30.3834C12.838 30.575 13.0987 30.6825 13.3706 30.6825H18.4963ZM11.3203 20.4705H31.8231V22.5129H11.3203V20.4705Z" fill="white"/>
<path d="M21.5114 39.3887C11.6831 39.3879 3.68527 31.4508 3.62531 21.6087C3.62343 21.2854 3.63003 20.9643 3.64492 20.6453C3.68112 19.8755 3.76596 19.1188 3.89661 18.3773C5.3664 10.0304 12.6286 3.66489 21.4051 3.61172C21.4424 3.61135 21.4788 3.61135 21.5161 3.61135C31.3443 3.61135 39.3423 11.5492 39.4019 21.3913C39.4172 23.8999 38.9153 26.291 37.9964 28.4635C35.9563 33.2863 31.8595 37.032 26.7999 38.5946C25.1625 39.1004 23.4246 39.3774 21.6223 39.3883C21.585 39.3885 21.5488 39.3887 21.5114 39.3887ZM21.516 5.27551C21.4826 5.27551 21.4487 5.2757 21.4153 5.27589C12.4548 5.33018 5.23519 12.6382 5.28967 21.5985C5.34378 30.5255 12.5969 37.7243 21.5116 37.7243C21.545 37.7243 21.5789 37.7243 21.6123 37.7241C30.5726 37.6696 37.7922 30.3618 37.7377 21.4015C37.6836 12.4746 30.4305 5.27551 21.516 5.27551Z" fill="#E49F4E"/>
<path d="M21.6085 39.3883C11.7291 39.4482 3.67167 31.4881 3.61153 21.6087C3.55158 11.7291 11.5119 3.67167 21.3913 3.61172C31.2707 3.55158 39.3283 11.5119 39.3883 21.3913C39.4482 31.2709 31.4881 39.3283 21.6085 39.3883ZM21.3694 0.000404358C9.49539 0.072422 -0.0718013 9.75651 0.000406057 21.6306C0.0724249 33.5044 9.75651 43.0716 21.6306 42.9996C33.5044 42.9276 43.0718 33.2433 42.9996 21.3694C42.9274 9.49558 33.2433 -0.071804 21.3694 0.000404358Z" fill="#FFC661"/>
<circle cx="39.5" cy="32.5" r="12" fill="#289F4C" stroke="white"/>
<path d="M35.4197 38.1392C34.7071 38.1392 34.0774 38.0166 33.5305 37.7713C32.987 37.526 32.5611 37.188 32.2528 36.7571C31.9446 36.3262 31.7921 35.8357 31.7955 35.2855C31.7921 34.8546 31.88 34.4586 32.0589 34.0973C32.2412 33.7327 32.4882 33.4295 32.7997 33.1875C33.1113 32.9422 33.4593 32.7865 33.8438 32.7202V32.6605C33.3366 32.5379 32.9306 32.2661 32.6257 31.8452C32.3208 31.4242 32.17 30.9403 32.1733 30.3935C32.17 29.8731 32.3075 29.4091 32.5859 29.0014C32.8677 28.5904 33.2538 28.2673 33.7443 28.032C34.2348 27.7966 34.7933 27.679 35.4197 27.679C36.0395 27.679 36.593 27.7983 37.0803 28.0369C37.5708 28.2723 37.9569 28.5954 38.2386 29.0064C38.5204 29.4141 38.6629 29.8764 38.6662 30.3935C38.6629 30.9403 38.5071 31.4242 38.1989 31.8452C37.8906 32.2661 37.4896 32.5379 36.9957 32.6605V32.7202C37.3769 32.7865 37.7199 32.9422 38.0249 33.1875C38.3331 33.4295 38.5784 33.7327 38.7607 34.0973C38.9463 34.4586 39.0407 34.8546 39.044 35.2855C39.0407 35.8357 38.8849 36.3262 38.5767 36.7571C38.2685 37.188 37.8409 37.526 37.294 37.7713C36.7505 38.0166 36.1257 38.1392 35.4197 38.1392ZM35.4197 36.8814C35.8407 36.8814 36.2053 36.8118 36.5135 36.6726C36.8217 36.5301 37.0604 36.3329 37.2294 36.081C37.3984 35.8258 37.4846 35.5275 37.4879 35.1861C37.4846 34.8314 37.3918 34.5182 37.2095 34.2464C37.0305 33.9747 36.7869 33.7609 36.4787 33.6051C36.1705 33.4493 35.8175 33.3714 35.4197 33.3714C35.0187 33.3714 34.6624 33.4493 34.3509 33.6051C34.0393 33.7609 33.794 33.9747 33.6151 34.2464C33.4361 34.5182 33.3482 34.8314 33.3516 35.1861C33.3482 35.5275 33.4295 35.8258 33.5952 36.081C33.7642 36.3329 34.0045 36.5301 34.3161 36.6726C34.6276 36.8118 34.9955 36.8814 35.4197 36.8814ZM35.4197 32.1435C35.7578 32.1435 36.0578 32.0755 36.3196 31.9396C36.5814 31.8037 36.7869 31.6148 36.9361 31.3729C37.0885 31.1309 37.1664 30.8475 37.1697 30.5227C37.1664 30.2045 37.0902 29.9261 36.9411 29.6875C36.7952 29.4489 36.5914 29.2649 36.3295 29.1357C36.0677 29.0031 35.7644 28.9368 35.4197 28.9368C35.0684 28.9368 34.7602 29.0031 34.495 29.1357C34.2332 29.2649 34.0294 29.4489 33.8835 29.6875C33.7377 29.9261 33.6664 30.2045 33.6697 30.5227C33.6664 30.8475 33.7393 31.1309 33.8885 31.3729C34.0376 31.6148 34.2431 31.8037 34.505 31.9396C34.7701 32.0755 35.075 32.1435 35.4197 32.1435ZM44.3699 38.169C43.5843 38.1657 42.9132 37.9586 42.3564 37.5476C41.7995 37.1366 41.3736 36.5384 41.0787 35.7528C40.7837 34.9673 40.6362 34.0211 40.6362 32.9141C40.6362 31.8104 40.7837 30.8674 41.0787 30.0852C41.377 29.303 41.8045 28.7064 42.3613 28.2955C42.9215 27.8845 43.591 27.679 44.3699 27.679C45.1487 27.679 45.8166 27.8861 46.3734 28.3004C46.9302 28.7114 47.3561 29.308 47.6511 30.0902C47.9494 30.8691 48.0985 31.8104 48.0985 32.9141C48.0985 34.0244 47.9511 34.9723 47.6561 35.7578C47.3611 36.54 46.9352 37.1383 46.3784 37.5526C45.8216 37.9635 45.152 38.169 44.3699 38.169ZM44.3699 36.8416C45.0592 36.8416 45.5978 36.5052 45.9856 35.8324C46.3767 35.1596 46.5723 34.1868 46.5723 32.9141C46.5723 32.0689 46.4828 31.3546 46.3038 30.7713C46.1281 30.1847 45.8746 29.7405 45.5431 29.4389C45.215 29.134 44.8239 28.9815 44.3699 28.9815C43.6838 28.9815 43.1452 29.3196 42.7541 29.9957C42.363 30.6719 42.1658 31.6446 42.1625 32.9141C42.1625 33.7625 42.2503 34.4801 42.426 35.0668C42.6049 35.6501 42.8585 36.0926 43.1866 36.3942C43.5147 36.6925 43.9092 36.8416 44.3699 36.8416Z" fill="white"/>
</svg>
