<svg width="52" height="46" viewBox="0 0 52 46" fill="none" xmlns="http://www.w3.org/2000/svg">
<path fill-rule="evenodd" clip-rule="evenodd" d="M19.211 0.0754501C11.7216 0.929395 5.30301 5.50854 2.08884 12.2906C-2.90235 22.8223 1.34406 35.3706 11.7045 40.7054C12.3173 41.0209 13.2776 41.4517 13.8383 41.6629C15.0308 42.1118 15.5292 42.1122 15.9099 41.6646C16.1332 41.4021 16.14 41.3281 16.14 39.1659V36.9377L15.859 37.0063C15.7045 37.044 14.9801 37.1007 14.2495 37.1322C12.6948 37.1992 11.8737 37.0497 10.8932 36.5211C9.9304 36.0022 9.39348 35.3837 8.74496 34.0462C8.11597 32.7491 7.58681 32.0415 6.8033 31.4498C5.6662 30.591 5.46437 30.2344 5.99741 30.026C7.09526 29.5969 8.97806 30.615 9.96136 32.1695C11.0359 33.8682 12.3001 34.5668 14.0906 34.4515C15.1878 34.3808 16.2422 34.0347 16.2422 33.7454C16.2422 33.3438 16.679 32.2452 17.0685 31.6672C17.528 30.9851 17.6565 31.0934 16.0609 30.8169C10.9821 29.937 8.37227 27.1168 7.85323 21.9477C7.58313 19.257 8.10064 17.1126 9.46797 15.2563L9.96065 14.5874L9.78712 13.9157C9.44866 12.6052 9.61544 10.2504 10.1273 9.11447C10.2549 8.83131 10.2707 8.82665 10.9249 8.88298C12.1487 8.98818 13.9802 9.72555 15.5659 10.7514L16.1001 11.097L17.2187 10.8583C20.0436 10.2557 22.9667 10.2557 25.7916 10.8583L26.9102 11.097L27.4444 10.7514C29.037 9.72121 30.8617 8.98818 32.0988 8.88184L32.7797 8.82335L33.059 9.69011C33.4379 10.8666 33.5183 12.7749 33.2352 13.8733L33.0464 14.6061L33.5401 15.2643C35.223 17.5083 35.6639 20.6223 34.7913 24.101C33.8162 27.9883 31.028 30.2537 26.436 30.8896C25.9442 30.9577 25.5418 31.0461 25.5418 31.086C25.5418 31.126 25.6506 31.2901 25.7836 31.4507C26.1877 31.9391 26.5389 32.7466 26.7088 33.579C26.8375 34.2088 26.8703 35.0832 26.8703 37.8818C26.8703 41.376 26.8715 41.3955 27.1004 41.6646C27.4815 42.1127 27.9797 42.1119 29.172 41.6614C40.8488 37.249 46.2962 23.6317 40.9215 12.2906C37.8953 5.90528 32.0833 1.49356 25.0819 0.267362C23.6619 0.0186094 20.5898 -0.0818419 19.211 0.0754501ZM7.62401 30.6233C7.43168 30.8177 7.82073 31.1215 8.06579 30.9684C8.18249 30.8954 8.18382 30.8519 8.07325 30.7172C7.93335 30.5467 7.73969 30.5062 7.62401 30.6233ZM8.52606 31.382C8.39914 31.5899 8.58667 31.8978 8.8401 31.8978C9.13564 31.8978 9.16426 31.689 8.90183 31.4488C8.68528 31.2506 8.61415 31.238 8.52606 31.382ZM9.3247 32.5836C9.23968 32.8078 9.41678 33.0787 9.67379 33.1176C9.94501 33.1588 10.032 32.9078 9.84169 32.6331C9.66112 32.3725 9.41381 32.3488 9.3247 32.5836ZM10.3151 33.8924C10.3151 34.1917 10.4951 34.3781 10.7844 34.3781C11.075 34.3781 11.1571 34.1495 10.9658 33.8733C10.7523 33.565 10.3151 33.5779 10.3151 33.8924ZM11.7822 34.7412C11.6875 34.9909 11.9494 35.219 12.2913 35.1843C12.6553 35.1475 12.7381 34.9831 12.5094 34.7518C12.3012 34.5412 11.8605 34.5348 11.7822 34.7412ZM15.2453 34.8075C15.0465 35.0086 15.0951 35.1951 15.3641 35.2634C15.679 35.3433 16.0599 35.1396 16.0176 34.9138C15.9775 34.6997 15.4268 34.624 15.2453 34.8075ZM13.5193 35.0516C13.4832 35.1468 13.5276 35.2943 13.6208 35.3884C13.8431 35.6133 14.3517 35.4479 14.3517 35.1508C14.3517 34.8756 13.6192 34.7884 13.5193 35.0516Z" fill="black"/>
<circle cx="39.5" cy="33.5" r="12" fill="#289F4C" stroke="white"/>
<path d="M44.391 30.2871L37.8434 36.8347L34.8672 33.8585" stroke="white" stroke-width="3" stroke-linecap="round" stroke-linejoin="round"/>
</svg>
