<svg width="37" height="36" viewBox="0 0 37 36" fill="none" xmlns="http://www.w3.org/2000/svg">
<path fill-rule="evenodd" clip-rule="evenodd" d="M16.5304 0.0646715C10.0861 0.796624 4.56305 4.7216 1.79738 10.5348C-2.49737 19.562 1.15652 30.3176 10.0713 34.8903C10.5986 35.1608 11.4249 35.5301 11.9074 35.711C12.9335 36.0958 13.3624 36.0962 13.6899 35.7125C13.882 35.4875 13.8879 35.4241 13.8879 33.5708V31.6609L13.6461 31.7197C13.5132 31.752 12.8899 31.8006 12.2612 31.8276C10.9234 31.885 10.2169 31.7569 9.37318 31.3038C8.54476 30.859 8.08276 30.3289 7.52473 29.1825C6.98351 28.0707 6.52819 27.4641 5.854 26.957C4.87557 26.2209 4.7019 25.9152 5.16056 25.7366C6.10523 25.3687 7.72531 26.2414 8.5714 27.5739C9.49602 29.0299 10.5838 29.6287 12.1244 29.5299C13.0686 29.4693 13.9759 29.1726 13.9759 28.9246C13.9759 28.5804 14.3517 27.6387 14.6868 27.1433C15.0822 26.5587 15.1928 26.6515 13.8199 26.4145C9.44968 25.6603 7.20404 23.2429 6.75743 18.8123C6.52502 16.506 6.97031 14.6679 8.14686 13.0768L8.57079 12.5035L8.42148 11.9277C8.13024 10.8044 8.27375 8.7861 8.71421 7.81241C8.82395 7.56969 8.83758 7.5657 9.40053 7.61398C10.4535 7.70416 12.0295 8.33619 13.3939 9.21545L13.8536 9.51167L14.8161 9.30714C17.2468 8.79062 19.7621 8.79062 22.1928 9.30714L23.1553 9.51167L23.6149 9.21545C24.9853 8.33247 26.5554 7.70416 27.6199 7.61301L28.2058 7.56287L28.4461 8.30581C28.7721 9.31422 28.8413 10.9499 28.5978 11.8914L28.4353 12.5195L28.8601 13.0837C30.3082 15.0071 30.6876 17.6763 29.9367 20.658C29.0977 23.99 26.6985 25.9318 22.7472 26.4768C22.3241 26.5352 21.9778 26.6109 21.9778 26.6451C21.9778 26.6794 22.0714 26.8201 22.1858 26.9577C22.5336 27.3764 22.8358 28.0685 22.982 28.782C23.0927 29.3218 23.1209 30.0713 23.1209 32.4701C23.1209 35.4651 23.122 35.4819 23.319 35.7125C23.6469 36.0966 24.0755 36.0959 25.1015 35.7098C35.149 31.9277 39.8363 20.2558 35.2115 10.5348C32.6076 5.06167 27.6066 1.28019 21.5821 0.229168C20.3603 0.0159509 17.7168 -0.0701502 16.5304 0.0646715ZM6.56019 26.2485C6.3947 26.4151 6.72947 26.6756 6.94033 26.5443C7.04075 26.4818 7.04189 26.4445 6.94675 26.329C6.82637 26.1829 6.65974 26.1482 6.56019 26.2485ZM7.33638 26.8989C7.22717 27.077 7.38853 27.341 7.6066 27.341C7.8609 27.341 7.88553 27.162 7.65971 26.9561C7.47338 26.7862 7.41218 26.7754 7.33638 26.8989ZM8.02358 27.9288C7.95042 28.121 8.10281 28.3531 8.32396 28.3865C8.55733 28.4218 8.63217 28.2067 8.46843 27.9713C8.31306 27.7479 8.10026 27.7276 8.02358 27.9288ZM8.87574 29.0506C8.87574 29.3072 9.03068 29.467 9.27962 29.467C9.52961 29.467 9.60031 29.271 9.4357 29.0343C9.25201 28.77 8.87574 28.7811 8.87574 29.0506ZM10.1382 29.7782C10.0567 29.9922 10.2821 30.1877 10.5762 30.158C10.8894 30.1265 10.9607 29.9855 10.7639 29.7873C10.5847 29.6068 10.2056 29.6013 10.1382 29.7782ZM13.1181 29.835C12.947 30.0074 12.9888 30.1672 13.2203 30.2258C13.4913 30.2942 13.819 30.1196 13.7826 29.9261C13.7481 29.7426 13.2742 29.6777 13.1181 29.835ZM11.6329 30.0443C11.6018 30.1258 11.64 30.2523 11.7202 30.333C11.9115 30.5257 12.3491 30.3839 12.3491 30.1292C12.3491 29.8934 11.7189 29.8186 11.6329 30.0443Z" fill="black"/>
</svg>
