<svg width="30" height="30" viewBox="0 0 30 30" fill="none" xmlns="http://www.w3.org/2000/svg">
<mask id="mask0_5666_6049" style="mask-type:alpha" maskUnits="userSpaceOnUse" x="0" y="0" width="30" height="30">
<rect width="30" height="30" fill="white"/>
</mask>
<g mask="url(#mask0_5666_6049)">
<path d="M26.8731 21.64V13.8267C26.8727 13.4842 26.7803 13.1477 26.6051 12.8512C26.4299 12.5546 26.1781 12.3083 25.8749 12.1371L18.8878 8.23044C18.5843 8.05901 18.2401 7.96875 17.8897 7.96875C17.5392 7.96875 17.195 8.05901 16.8915 8.23044L9.90441 12.1371C9.60123 12.3083 9.34941 12.5546 9.17422 12.8512C8.99902 13.1477 8.90661 13.4842 8.90625 13.8267V21.64C8.90661 21.9825 8.99902 22.3189 9.17422 22.6155C9.34941 22.9121 9.60123 23.1583 9.90441 23.3296L16.8915 27.2362C17.195 27.4077 17.5392 27.4979 17.8897 27.4979C18.2401 27.4979 18.5843 27.4077 18.8878 27.2362L25.8749 23.3296C26.1781 23.1583 26.4299 22.9121 26.6051 22.6155C26.7803 22.3189 26.8727 21.9825 26.8731 21.64Z" fill="#FFE0D9"/>
<path d="M23.748 19.1656V10.8331C23.7476 10.4678 23.6512 10.1091 23.4684 9.79279C23.2856 9.47652 23.0228 9.21389 22.7064 9.03124L15.4156 4.86502C15.0989 4.68219 14.7397 4.58594 14.374 4.58594C14.0083 4.58594 13.6491 4.68219 13.3324 4.86502L6.04156 9.03124C5.7252 9.21389 5.46243 9.47652 5.27962 9.79279C5.09681 10.1091 5.00037 10.4678 5 10.8331V19.1656C5.00037 19.5309 5.09681 19.8897 5.27962 20.2059C5.46243 20.5222 5.7252 20.7848 6.04156 20.9675L13.3324 25.1337C13.6491 25.3165 14.0083 25.4128 14.374 25.4128C14.7397 25.4128 15.0989 25.3165 15.4156 25.1337L22.7064 20.9675C23.0228 20.7848 23.2856 20.5222 23.4684 20.2059C23.6512 19.8897 23.7476 19.5309 23.748 19.1656Z" stroke="#FF5630" stroke-width="1.5" stroke-linecap="round" stroke-linejoin="round"/>
</g>
</svg>
