<svg width="30" height="30" viewBox="0 0 30 30" fill="none" xmlns="http://www.w3.org/2000/svg">
<rect width="30" height="30" fill="white"/>
<mask id="mask0_5666_5979" style="mask-type:alpha" maskUnits="userSpaceOnUse" x="0" y="0" width="30" height="30">
<rect width="30" height="30" fill="white"/>
</mask>
<g mask="url(#mask0_5666_5979)">
<path d="M17.5864 10.2813C18.3562 8.94792 20.2807 8.94792 21.0505 10.2812L27.9652 22.2579C28.735 23.5912 27.7727 25.2579 26.2331 25.2579H12.4037C10.8641 25.2579 9.90184 23.5912 10.6716 22.2579L17.5864 10.2813Z" fill="#CBF0FF"/>
<path d="M12.2122 5.93236L4.00956 19.6261C3.84044 19.919 3.75095 20.251 3.75001 20.5892C3.74906 20.9274 3.83668 21.26 4.00416 21.5538C4.17164 21.8476 4.41313 22.0925 4.70462 22.264C4.9961 22.4355 5.32741 22.5277 5.66559 22.5314H22.071C22.4091 22.5277 22.7404 22.4355 23.0319 22.264C23.3234 22.0925 23.5649 21.8476 23.7324 21.5538C23.8999 21.26 23.9875 20.9274 23.9865 20.5892C23.9856 20.251 23.8961 19.919 23.727 19.6261L15.5243 5.93236C15.3517 5.64774 15.1086 5.41242 14.8185 5.24911C14.5284 5.0858 14.2012 5 13.8683 5C13.5354 5 13.2081 5.0858 12.918 5.24911C12.628 5.41242 12.3849 5.64774 12.2122 5.93236Z" stroke="#54C0EB" stroke-width="1.5" stroke-linecap="round" stroke-linejoin="round"/>
</g>
</svg>
