<svg width="30" height="32" viewBox="0 0 30 32" fill="none" xmlns="http://www.w3.org/2000/svg">
<mask id="mask0_5666_6997" style="mask-type:alpha" maskUnits="userSpaceOnUse" x="0" y="0" width="30" height="30">
<rect width="30" height="30" fill="white"/>
</mask>
<g mask="url(#mask0_5666_6997)">
<path d="M9.83811 8.9375H24.9492C25.4502 8.9375 25.9306 9.14019 26.2849 9.50099C26.6391 9.86178 26.8381 10.3511 26.8381 10.8614V16.633C26.8381 19.1842 25.8431 21.6309 24.0719 23.4349C22.3007 25.2388 19.8985 26.2523 17.3937 26.2523C16.1534 26.2523 14.9253 26.0035 13.7794 25.5201C12.6336 25.0367 11.5924 24.3281 10.7154 23.4349C8.94426 21.6309 7.94922 19.1842 7.94922 16.633V10.8614C7.94922 10.3511 8.14823 9.86178 8.50246 9.50099C8.8567 9.14019 9.33714 8.9375 9.83811 8.9375Z" fill="#E9E9FF"/>
<path d="M5.84877 5H22.6389C23.1955 5 23.7293 5.22112 24.1229 5.61471C24.5165 6.00831 24.7377 6.54214 24.7377 7.09877V13.3951C24.7377 16.1782 23.6321 18.8473 21.6641 20.8153C19.6961 22.7833 17.027 23.8889 14.2438 23.8889C12.8658 23.8889 11.5012 23.6175 10.228 23.0901C8.95484 22.5627 7.79801 21.7898 6.82357 20.8153C4.8556 18.8473 3.75 16.1782 3.75 13.3951V7.09877C3.75 6.54214 3.97112 6.00831 4.36471 5.61471C4.75831 5.22112 5.29214 5 5.84877 5Z" stroke="#5355F6" stroke-width="1.5" stroke-linecap="round" stroke-linejoin="round"/>
<path d="M10.0488 12.3438L14.2464 16.5413L18.4439 12.3438" stroke="#5355F6" stroke-width="1.5" stroke-linecap="round" stroke-linejoin="round"/>
</g>
</svg>
