<svg width="55" height="57" viewBox="0 0 55 57" fill="none" xmlns="http://www.w3.org/2000/svg">
<rect x="5.58594" y="4.44531" width="42.9596" height="50.5556" fill="#595959"/>
<path d="M44.6807 0H2V41.1112L11.2056 50.4493H44.6807V0Z" fill="url(#paint0_linear_1688_1288)"/>
<path d="M11.4583 41.2832L11.3459 50.4462L2.25729 41.1094L11.4583 41.2832Z" fill="#CED5E0"/>
<path d="M8.92188 12.1411V6.19265H11.1248C11.5465 6.19265 11.9064 6.27301 12.2045 6.43373C12.5044 6.59251 12.7325 6.8181 12.8888 7.11049C13.0469 7.40094 13.126 7.7427 13.126 8.13578C13.126 8.5308 13.046 8.87063 12.8861 9.15527C12.7261 9.43798 12.4944 9.65485 12.1908 9.80588C11.8891 9.95692 11.5238 10.0324 11.0948 10.0324H9.61984V9.02166H10.904C11.1294 9.02166 11.3166 8.98874 11.4656 8.92291C11.6147 8.85707 11.7255 8.75832 11.7982 8.62665C11.8728 8.49498 11.91 8.33135 11.91 8.13578C11.91 7.93827 11.8728 7.77175 11.7982 7.6362C11.7255 7.50066 11.6138 7.39803 11.4629 7.32832C11.3138 7.25668 11.1257 7.22086 10.8985 7.22086H10.1024V12.1411H8.92188ZM11.9373 9.43411L13.325 12.1411H12.0218L10.6641 9.43411H11.9373Z" fill="#54C0EB"/>
<path d="M13.9603 12.1411V6.19265H17.7227V7.22957H15.1408V8.64698H17.5292V9.68389H15.1408V11.1042H17.7336V12.1411H13.9603Z" fill="#54C0EB"/>
<path d="M18.6613 12.1411V6.19265H20.8642C21.2877 6.19265 21.6485 6.27882 21.9466 6.45116C22.2447 6.62156 22.4719 6.85876 22.6282 7.16277C22.7864 7.46484 22.8654 7.81338 22.8654 8.2084C22.8654 8.60341 22.7855 8.95195 22.6255 9.25402C22.4656 9.5561 22.2338 9.79136 21.9303 9.95982C21.6285 10.1283 21.2632 10.2125 20.8342 10.2125H19.4301V9.20465H20.6434C20.8706 9.20465 21.0578 9.16302 21.205 9.07975C21.3541 8.99455 21.465 8.8774 21.5377 8.72831C21.6122 8.57727 21.6494 8.40397 21.6494 8.2084C21.6494 8.01089 21.6122 7.83855 21.5377 7.69139C21.465 7.54229 21.3541 7.42708 21.205 7.34575C21.056 7.26249 20.867 7.22086 20.6379 7.22086H19.8418V12.1411H18.6613Z" fill="#54C0EB"/>
<path d="M28.7633 9.16689C28.7633 9.81557 28.6479 10.3674 28.4171 10.8225C28.1881 11.2775 27.8754 11.6251 27.4792 11.8652C27.0848 12.1034 26.6413 12.2224 26.1487 12.2224C25.6525 12.2224 25.2072 12.1024 24.8128 11.8623C24.4183 11.6222 24.1066 11.2746 23.8776 10.8196C23.6486 10.3645 23.5341 9.81363 23.5341 9.16689C23.5341 8.51821 23.6486 7.96635 23.8776 7.51131C24.1066 7.05627 24.4183 6.70966 24.8128 6.47149C25.2072 6.23138 25.6525 6.11133 26.1487 6.11133C26.6413 6.11133 27.0848 6.23138 27.4792 6.47149C27.8754 6.70966 28.1881 7.05627 28.4171 7.51131C28.6479 7.96635 28.7633 8.51821 28.7633 9.16689ZM27.5664 9.16689C27.5664 8.7467 27.5074 8.39235 27.3892 8.10383C27.2729 7.81532 27.1084 7.59651 26.8957 7.44741C26.6831 7.29831 26.4341 7.22376 26.1487 7.22376C25.8633 7.22376 25.6143 7.29831 25.4017 7.44741C25.189 7.59651 25.0236 7.81532 24.9055 8.10383C24.7891 8.39235 24.731 8.7467 24.731 9.16689C24.731 9.58708 24.7891 9.94143 24.9055 10.2299C25.0236 10.5185 25.189 10.7373 25.4017 10.8864C25.6143 11.0355 25.8633 11.11 26.1487 11.11C26.4341 11.11 26.6831 11.0355 26.8957 10.8864C27.1084 10.7373 27.2729 10.5185 27.3892 10.2299C27.5074 9.94143 27.5664 9.58708 27.5664 9.16689Z" fill="#54C0EB"/>
<path d="M29.6378 12.1411V6.19265H31.8408C32.2625 6.19265 32.6223 6.27301 32.9204 6.43373C33.2203 6.59251 33.4484 6.8181 33.6048 7.11049C33.7629 7.40094 33.842 7.7427 33.842 8.13578C33.842 8.5308 33.762 8.87063 33.602 9.15527C33.4421 9.43798 33.2103 9.65485 32.9068 9.80588C32.6051 9.95692 32.2397 10.0324 31.8108 10.0324H30.3358V9.02166H31.6199C31.8453 9.02166 32.0325 8.98874 32.1816 8.92291C32.3306 8.85707 32.4415 8.75832 32.5142 8.62665C32.5887 8.49498 32.626 8.33135 32.626 8.13578C32.626 7.93827 32.5887 7.77175 32.5142 7.6362C32.4415 7.50066 32.3297 7.39803 32.1788 7.32832C32.0298 7.25668 31.8417 7.22086 31.6145 7.22086H30.8184V12.1411H29.6378ZM32.6532 9.43411L34.041 12.1411H32.7378L31.38 9.43411H32.6532Z" fill="#54C0EB"/>
<path d="M34.4636 7.22957V6.19265H39.0494V7.22957H37.3399V12.1411H36.173V7.22957H34.4636Z" fill="#54C0EB"/>
<circle cx="42.5" cy="44.5" r="12" fill="#289F4C" stroke="white"/>
<path d="M47.391 41.2871L40.8434 47.8347L37.8672 44.8585" stroke="white" stroke-width="3" stroke-linecap="round" stroke-linejoin="round"/>
<path d="M16 33V34C16 34.7956 16.3161 35.5587 16.8787 36.1213C17.4413 36.6839 18.2044 37 19 37H29C29.7956 37 30.5587 36.6839 31.1213 36.1213C31.6839 35.5587 32 34.7956 32 34V33M28 25L24 21M24 21L20 25M24 21V33" stroke="#54C0EB" stroke-width="1.5" stroke-linecap="round" stroke-linejoin="round"/>
<defs>
<linearGradient id="paint0_linear_1688_1288" x1="0.420037" y1="2.7384e-07" x2="44.2377" y2="49.8847" gradientUnits="userSpaceOnUse">
<stop stop-color="#F2F2F2"/>
<stop offset="1" stop-color="white"/>
</linearGradient>
</defs>
</svg>
