<svg width="37" height="41" viewBox="0 0 37 41" fill="none" xmlns="http://www.w3.org/2000/svg">
<rect x="4.14062" y="3.29492" width="31.8636" height="37.4976" fill="#595959"/>
<path d="M33.3286 0H1.67188V30.4926L8.49979 37.4187H33.3286V0Z" fill="url(#paint0_linear_1685_1469)"/>
<path d="M12 25V25.75C12 26.3467 12.2371 26.919 12.659 27.341C13.081 27.7629 13.6533 28 14.25 28H21.75C22.3467 28 22.919 27.7629 23.341 27.341C23.7629 26.919 24 26.3467 24 25.75V25M21 19L18 16M18 16L15 19M18 16V25" stroke="#54C0EB" stroke-width="1.5" stroke-linecap="round" stroke-linejoin="round"/>
<path d="M8.49356 30.6194L8.41023 37.4157L1.66911 30.4904L8.49356 30.6194Z" fill="#CED5E0"/>
<path d="M6.61719 9.00361V4.59157H8.25113C8.5639 4.59157 8.83083 4.65117 9.05193 4.77038C9.27437 4.88815 9.44356 5.05547 9.5595 5.27233C9.67679 5.48777 9.73543 5.74126 9.73543 6.03281C9.73543 6.3258 9.67611 6.57785 9.55748 6.78897C9.43884 6.99866 9.26695 7.15952 9.04181 7.27154C8.81802 7.38356 8.54705 7.43958 8.22889 7.43958H7.13487V6.68987H8.08733C8.2545 6.68987 8.39336 6.66546 8.50391 6.61663C8.61445 6.5678 8.69669 6.49455 8.75062 6.39689C8.80589 6.29923 8.83353 6.17787 8.83353 6.03281C8.83353 5.88631 8.80589 5.7628 8.75062 5.66227C8.69669 5.56173 8.61378 5.48561 8.50188 5.43391C8.39134 5.38077 8.25181 5.3542 8.08329 5.3542H7.4928V9.00361H6.61719ZM8.85375 6.99579L9.88305 9.00361H8.91644L7.90938 6.99579H8.85375Z" fill="#54C0EB"/>
<path d="M10.3542 9.00361V4.59157H13.1449V5.36066H11.2298V6.41197H13.0013V7.18106H11.2298V8.23452H13.153V9.00361H10.3542Z" fill="#54C0EB"/>
<path d="M13.841 9.00361V4.59157H15.475C15.7891 4.59157 16.0567 4.65548 16.2778 4.78331C16.4989 4.90969 16.6674 5.08563 16.7833 5.31111C16.9006 5.53516 16.9593 5.79368 16.9593 6.08667C16.9593 6.37965 16.8999 6.63817 16.7813 6.86222C16.6627 7.08627 16.4908 7.26077 16.2656 7.38572C16.0419 7.51067 15.7709 7.57314 15.4527 7.57314H14.4113V6.8256H15.3112C15.4797 6.8256 15.6185 6.79472 15.7277 6.73296C15.8383 6.66977 15.9205 6.58288 15.9744 6.47229C16.0297 6.36026 16.0574 6.23172 16.0574 6.08667C16.0574 5.94017 16.0297 5.81235 15.9744 5.7032C15.9205 5.59261 15.8383 5.50716 15.7277 5.44683C15.6172 5.38508 15.477 5.3542 15.3071 5.3542H14.7166V9.00361H13.841Z" fill="#54C0EB"/>
<path d="M21.3338 6.79759C21.3338 7.27872 21.2482 7.68804 21.077 8.02555C20.9071 8.36306 20.6752 8.62086 20.3813 8.79895C20.0888 8.9756 19.7599 9.06393 19.3945 9.06393C19.0265 9.06393 18.6962 8.97489 18.4036 8.7968C18.1111 8.61871 17.8799 8.36091 17.71 8.0234C17.5401 7.68589 17.4552 7.27728 17.4552 6.79759C17.4552 6.31646 17.5401 5.90714 17.71 5.56963C17.8799 5.23212 18.1111 4.97504 18.4036 4.79839C18.6962 4.6203 19.0265 4.53125 19.3945 4.53125C19.7599 4.53125 20.0888 4.6203 20.3813 4.79839C20.6752 4.97504 20.9071 5.23212 21.077 5.56963C21.2482 5.90714 21.3338 6.31646 21.3338 6.79759ZM20.4461 6.79759C20.4461 6.48593 20.4022 6.22311 20.3146 6.00911C20.2283 5.79512 20.1063 5.63282 19.9486 5.52224C19.7909 5.41165 19.6062 5.35635 19.3945 5.35635C19.1828 5.35635 18.9982 5.41165 18.8404 5.52224C18.6827 5.63282 18.56 5.79512 18.4724 6.00911C18.3861 6.22311 18.343 6.48593 18.343 6.79759C18.343 7.10925 18.3861 7.37207 18.4724 7.58607C18.56 7.80007 18.6827 7.96236 18.8404 8.07295C18.9982 8.18353 19.1828 8.23883 19.3945 8.23883C19.6062 8.23883 19.7909 8.18353 19.9486 8.07295C20.1063 7.96236 20.2283 7.80007 20.3146 7.58607C20.4022 7.37207 20.4461 7.10925 20.4461 6.79759Z" fill="#54C0EB"/>
<path d="M21.9824 9.00361V4.59157H23.6164C23.9291 4.59157 24.1961 4.65117 24.4172 4.77038C24.6396 4.88815 24.8088 5.05547 24.9247 5.27233C25.042 5.48777 25.1007 5.74126 25.1007 6.03281C25.1007 6.3258 25.0414 6.57785 24.9227 6.78897C24.8041 6.99866 24.6322 7.15952 24.4071 7.27154C24.1833 7.38356 23.9123 7.43958 23.5941 7.43958H22.5001V6.68987H23.4526C23.6197 6.68987 23.7586 6.66546 23.8691 6.61663C23.9797 6.5678 24.0619 6.49455 24.1159 6.39689C24.1711 6.29923 24.1988 6.17787 24.1988 6.03281C24.1988 5.88631 24.1711 5.7628 24.1159 5.66227C24.0619 5.56173 23.979 5.48561 23.8671 5.43391C23.7566 5.38077 23.617 5.3542 23.4485 5.3542H22.858V9.00361H21.9824ZM24.219 6.99579L25.2483 9.00361H24.2817L23.2746 6.99579H24.219Z" fill="#54C0EB"/>
<path d="M25.5617 5.36066V4.59157H28.9631V5.36066H27.6952V9.00361H26.8297V5.36066H25.5617Z" fill="#54C0EB"/>
<defs>
<linearGradient id="paint0_linear_1685_1469" x1="0.5" y1="2.0311e-07" x2="33" y2="37" gradientUnits="userSpaceOnUse">
<stop stop-color="#F2F2F2"/>
<stop offset="1" stop-color="white"/>
</linearGradient>
</defs>
</svg>
