<svg width="57" height="57" viewBox="0 0 57 57" fill="none" xmlns="http://www.w3.org/2000/svg">
<rect x="5.60938" y="4.46094" width="43.1233" height="50.7482" fill="#595959"/>
<path d="M45.1167 0H2.27344V41.2678L11.5141 50.6414H45.1167V0Z" fill="url(#paint0_linear_1688_1272)"/>
<path d="M11.5017 41.4405L11.3889 50.6384L2.26567 41.266L11.5017 41.4405Z" fill="#CED5E0"/>
<rect x="8.40625" y="17.8457" width="29.6822" height="1.67302" fill="#C4C4C4"/>
<rect x="8.40625" y="22.8652" width="29.6822" height="1.67302" fill="#C4C4C4"/>
<rect x="8.40625" y="27.8828" width="29.6822" height="1.67302" fill="#C4C4C4"/>
<rect x="8.40625" y="32.9043" width="17.9214" height="1.67302" fill="#C4C4C4"/>
<path d="M8.96094 12.1856V6.21445H11.1723C11.5956 6.21445 11.9568 6.29511 12.256 6.45644C12.5571 6.61583 12.7861 6.84227 12.943 7.13578C13.1017 7.42733 13.1811 7.7704 13.1811 8.16498C13.1811 8.5615 13.1008 8.90262 12.9402 9.18835C12.7797 9.47213 12.5471 9.68983 12.2424 9.84144C11.9395 9.99305 11.5728 10.0689 11.1422 10.0689H9.66156V9.05423H10.9506C11.1768 9.05423 11.3648 9.02119 11.5144 8.9551C11.664 8.88902 11.7753 8.78989 11.8483 8.65771C11.9231 8.52554 11.9605 8.36129 11.9605 8.16498C11.9605 7.96672 11.9231 7.79956 11.8483 7.6635C11.7753 7.52744 11.6631 7.42442 11.5116 7.35444C11.362 7.28253 11.1732 7.24657 10.9451 7.24657H10.146V12.1856H8.96094ZM11.9878 9.46825L13.3809 12.1856H12.0727L10.7098 9.46825H11.9878Z" fill="#54C0EB"/>
<path d="M14.0185 12.1856V6.21445H17.7953V7.25531H15.2036V8.67812H17.601V9.71899H15.2036V11.1447H17.8063V12.1856H14.0185Z" fill="#54C0EB"/>
<path d="M18.7375 12.1856V6.21445H20.9488C21.3739 6.21445 21.7361 6.30094 22.0353 6.47394C22.3345 6.64498 22.5626 6.88309 22.7195 7.18826C22.8782 7.49148 22.9576 7.84135 22.9576 8.23787C22.9576 8.63439 22.8773 8.98426 22.7168 9.28748C22.5562 9.5907 22.3236 9.82686 22.0189 9.99597C21.716 10.1651 21.3493 10.2496 20.9187 10.2496H19.5092V9.23791H20.7271C20.9552 9.23791 21.1431 9.19612 21.2909 9.11254C21.4405 9.02702 21.5518 8.90942 21.6248 8.75976C21.6996 8.60815 21.737 8.43418 21.737 8.23787C21.737 8.03961 21.6996 7.86662 21.6248 7.71889C21.5518 7.56923 21.4405 7.45357 21.2909 7.37194C21.1413 7.28836 20.9515 7.24657 20.7216 7.24657H19.9225V12.1856H18.7375Z" fill="#54C0EB"/>
<path d="M28.878 9.20001C28.878 9.85116 28.7621 10.4051 28.5304 10.8619C28.3005 11.3187 27.9867 11.6676 27.5889 11.9086C27.193 12.1477 26.7478 12.2672 26.2534 12.2672C25.7553 12.2672 25.3083 12.1467 24.9124 11.9057C24.5164 11.6647 24.2035 11.3158 23.9736 10.859C23.7437 10.4022 23.6288 9.84922 23.6288 9.20001C23.6288 8.54886 23.7437 7.9949 23.9736 7.53813C24.2035 7.08135 24.5164 6.73342 24.9124 6.49435C25.3083 6.25332 25.7553 6.13281 26.2534 6.13281C26.7478 6.13281 27.193 6.25332 27.5889 6.49435C27.9867 6.73342 28.3005 7.08135 28.5304 7.53813C28.7621 7.9949 28.878 8.54886 28.878 9.20001ZM27.6765 9.20001C27.6765 8.77822 27.6172 8.42252 27.4986 8.13291C27.3819 7.84329 27.2167 7.62365 27.0033 7.47398C26.7898 7.32432 26.5398 7.24948 26.2534 7.24948C25.9669 7.24948 25.717 7.32432 25.5035 7.47398C25.29 7.62365 25.124 7.84329 25.0054 8.13291C24.8886 8.42252 24.8303 8.77822 24.8303 9.20001C24.8303 9.6218 24.8886 9.9775 25.0054 10.2671C25.124 10.5567 25.29 10.7764 25.5035 10.926C25.717 11.0757 25.9669 11.1505 26.2534 11.1505C26.5398 11.1505 26.7898 11.0757 27.0033 10.926C27.2167 10.7764 27.3819 10.5567 27.4986 10.2671C27.6172 9.9775 27.6765 9.6218 27.6765 9.20001Z" fill="#54C0EB"/>
<path d="M29.7558 12.1856V6.21445H31.9671C32.3904 6.21445 32.7517 6.29511 33.0509 6.45644C33.352 6.61583 33.5809 6.84227 33.7378 7.13578C33.8966 7.42733 33.9759 7.7704 33.9759 8.16498C33.9759 8.5615 33.8957 8.90262 33.7351 9.18835C33.5745 9.47213 33.3419 9.68983 33.0372 9.84144C32.7343 9.99305 32.3676 10.0689 31.937 10.0689H30.4564V9.05423H31.7455C31.9717 9.05423 32.1596 9.02119 32.3092 8.9551C32.4588 8.88902 32.5701 8.78989 32.6431 8.65771C32.7179 8.52554 32.7553 8.36129 32.7553 8.16498C32.7553 7.96672 32.7179 7.79956 32.6431 7.6635C32.5701 7.52744 32.4579 7.42442 32.3065 7.35444C32.1569 7.28253 31.968 7.24657 31.74 7.24657H30.9408V12.1856H29.7558ZM32.7827 9.46825L34.1757 12.1856H32.8675L31.5046 9.46825H32.7827Z" fill="#54C0EB"/>
<path d="M34.5999 7.25531V6.21445H39.2032V7.25531H37.4873V12.1856H36.3159V7.25531H34.5999Z" fill="#54C0EB"/>
<circle cx="44.5" cy="44.5" r="12" fill="#289F4C" stroke="white"/>
<path d="M49.391 41.2871L42.8434 47.8347L39.8672 44.8585" stroke="white" stroke-width="3" stroke-linecap="round" stroke-linejoin="round"/>
<defs>
<linearGradient id="paint0_linear_1688_1272" x1="0.687456" y1="2.74883e-07" x2="44.672" y2="50.0747" gradientUnits="userSpaceOnUse">
<stop stop-color="#F2F2F2"/>
<stop offset="1" stop-color="white"/>
</linearGradient>
</defs>
</svg>
