<svg width="39" height="40" viewBox="0 0 39 40" fill="none" xmlns="http://www.w3.org/2000/svg">
<circle cx="19" cy="20" r="17.5" stroke="#FAFBFC" stroke-width="3"/>
<path d="M18.8597 1.61279C28.7542 1.61279 36.7753 9.70489 36.7753 19.687C36.7753 29.6691 28.7542 37.7612 18.8597 37.7612C18.8597 37.7612 6.99059 38.6649 1.83984 25.3352" stroke="url(#paint0_linear_1279_1393)" stroke-width="3" stroke-linecap="round" stroke-linejoin="round"/>
<path d="M10 12V17H12V13H16V11H11C10.7348 11 10.4804 11.1054 10.2929 11.2929C10.1054 11.4804 10 11.7348 10 12ZM28 17V12C28 11.7348 27.8946 11.4804 27.7071 11.2929C27.5196 11.1054 27.2652 11 27 11H22V13H26V17H28ZM26 27H22V29H27C27.2652 29 27.5196 28.8946 27.7071 28.7071C27.8946 28.5196 28 28.2652 28 28V23H26V27ZM16 29V27H12V23H10V28C10 28.2652 10.1054 28.5196 10.2929 28.7071C10.4804 28.8946 10.7348 29 11 29H16ZM9 19H29V21H9V19Z" fill="url(#paint1_linear_1279_1393)"/>
<defs>
<linearGradient id="paint0_linear_1279_1393" x1="5.20862" y1="4.19574" x2="38.6419" y2="30.5233" gradientUnits="userSpaceOnUse">
<stop stop-color="#52FF00"/>
<stop offset="1" stop-color="#00EEFD"/>
</linearGradient>
<linearGradient id="paint1_linear_1279_1393" x1="10.9286" y1="12.2857" x2="27.9643" y2="27.7143" gradientUnits="userSpaceOnUse">
<stop stop-color="#52FF00"/>
<stop offset="1" stop-color="#00EEFD"/>
</linearGradient>
</defs>
</svg>
