<svg width="24" height="24" viewBox="0 0 24 24" fill="none" xmlns="http://www.w3.org/2000/svg">
<path fill-rule="evenodd" clip-rule="evenodd" d="M16.0022 15.6316V12C16.0022 10.3431 14.6591 9 13.0022 9H6.16406V5.52632C6.16406 4.13107 7.29513 3 8.69038 3H20.4799C21.8751 3 23.0062 4.13107 23.0062 5.52632V13.1053L23.0228 17.7868C23.0238 18.0629 22.8008 18.2876 22.5246 18.2886C22.3914 18.289 22.2635 18.2363 22.1693 18.1421L19.6587 15.6316H16.0022Z" fill="#3300FF"/>
<path opacity="0.3" fill-rule="evenodd" clip-rule="evenodd" d="M1.98438 18V13C1.98438 11.8954 2.87981 11 3.98437 11H11.9844C13.0889 11 13.9844 11.8954 13.9844 13V18C13.9844 19.1046 13.0889 20 11.9844 20H4.10011L2.85625 21.1905C2.65676 21.3815 2.34026 21.3745 2.14932 21.175C2.06024 21.082 2.01053 20.9581 2.01053 20.8293V18.3243C1.99332 18.2187 1.98438 18.1104 1.98438 18ZM6.49932 14C6.22318 14 5.99932 14.2239 5.99932 14.5C5.99932 14.7761 6.22318 15 6.49932 15H11.4993C11.7755 15 11.9993 14.7761 11.9993 14.5C11.9993 14.2239 11.7755 14 11.4993 14H6.49932ZM9.49932 16C9.22318 16 8.99932 16.2239 8.99932 16.5C8.99932 16.7761 9.22318 17 9.49932 17H11.4993C11.7755 17 11.9993 16.7761 11.9993 16.5C11.9993 16.2239 11.7755 16 11.4993 16H9.49932Z" fill="#3300FF"/>
</svg>
