<svg width="424" height="427" viewBox="0 0 424 427" fill="none" xmlns="http://www.w3.org/2000/svg">
<path d="M355.246 80.9902H192.357C150.576 83.773 150.762 129.826 150.762 129.826V349.888H313.854V129.826C313.854 129.826 314.627 83.6186 355.244 80.9902H355.246Z" fill="#8A94A6"/>
<path d="M327.458 27.597C327.458 42.8385 315.102 55.1941 299.861 55.1941H255.519C240.278 55.1941 227.922 42.8385 227.922 27.597C227.922 12.3556 240.277 0 255.519 0H299.861C315.102 0 327.458 12.3556 327.458 27.597ZM229.85 27.597C229.85 41.7731 241.342 53.265 255.518 53.265H299.862C314.038 53.265 325.53 41.7731 325.53 27.597C325.53 13.421 314.038 1.9291 299.862 1.9291H255.518C241.342 1.9291 229.85 13.421 229.85 27.597Z" fill="#B0B7C3"/>
<path d="M141.042 78.2913C141.042 93.5893 128.64 105.991 113.342 105.991H69.2054C53.9074 105.991 41.5059 93.5893 41.5059 78.2913C41.5059 62.9933 53.9074 50.5918 69.2054 50.5918H113.342C128.64 50.5918 141.042 62.9933 141.042 78.2913ZM43.4338 78.2913C43.4338 92.5239 54.9716 104.062 69.2042 104.062H113.343C127.576 104.062 139.114 92.5239 139.114 78.2913C139.114 64.0587 127.576 52.5209 113.343 52.5209H69.2042C54.9716 52.5209 43.4338 64.0587 43.4338 78.2913Z" fill="#B0B7C3"/>
<path d="M423.212 195.61C423.212 210.908 410.81 223.309 395.512 223.309H351.375C336.077 223.309 323.676 210.908 323.676 195.61C323.676 180.312 336.077 167.91 351.375 167.91H395.512C410.81 167.91 423.212 180.312 423.212 195.61ZM325.604 195.61C325.604 209.842 337.142 221.38 351.374 221.38H395.513C409.746 221.38 421.284 209.842 421.284 195.61C421.284 181.377 409.746 169.839 395.513 169.839H351.374C337.142 169.839 325.604 181.377 325.604 195.61Z" fill="#B0B7C3"/>
<path d="M348.734 78.0039C308.115 80.6299 307.344 126.839 307.344 126.839V346.902H144.252V126.839C144.252 126.839 144.066 80.7866 185.847 78.0039H348.734Z" fill="url(#paint0_linear_3802_1655)"/>
<path d="M349.347 202.057L344.537 194.177C344.142 193.531 344.347 192.687 344.993 192.291C345.639 191.896 346.482 192.101 346.877 192.747L350.278 198.32L359.32 192.964C359.97 192.578 360.811 192.795 361.197 193.446C361.582 194.097 361.366 194.939 360.715 195.325L349.347 202.057Z" fill="#4E5D78"/>
<path d="M352.578 214.204C343.039 214.204 335.279 206.439 335.279 196.895C335.279 187.351 343.039 179.586 352.578 179.586C362.116 179.586 369.876 187.351 369.876 196.895C369.876 206.439 362.116 214.204 352.578 214.204ZM352.578 182.06C344.403 182.06 337.752 188.715 337.752 196.895C337.752 205.074 344.403 211.73 352.578 211.73C360.752 211.73 367.403 205.074 367.403 196.895C367.403 188.715 360.752 182.06 352.578 182.06Z" fill="#4E5D78"/>
<path d="M269.658 21.8276L269.998 29.1003L272.882 28.9677L272.316 16.7637L259.859 17.3424L259.994 20.2312L267.523 19.8792L254.252 34.456L240.443 21.8686L238.498 24.005L254.442 38.5408L269.658 21.8276Z" fill="#4E5D78"/>
<path d="M76.266 69.8788C76.0249 69.6147 75.6705 69.3281 75.2027 69.0213C74.7329 68.7165 74.1909 68.4219 73.5748 68.1435C72.9587 67.8631 72.2807 67.6233 71.5451 67.4221C70.8074 67.221 70.049 67.0929 69.2722 67.0381L69.2454 75.2535L70.0099 75.414C71.4585 75.7635 72.765 76.1516 73.9313 76.5784C75.0976 77.0051 76.0805 77.5253 76.8842 78.1369C77.6878 78.7486 78.3081 79.4984 78.7491 80.3864C79.188 81.2743 79.4064 82.3533 79.4023 83.6234C79.3982 85.0254 79.1385 86.2223 78.6254 87.2119C78.1123 88.2035 77.4055 89.0285 76.505 89.6869C75.6025 90.3452 74.5557 90.839 73.3605 91.1662C72.1653 91.4933 70.8836 91.6681 69.5153 91.6904L69.5009 95.8581L67.4073 95.852L67.4217 91.6051C65.4909 91.4669 63.6528 91.0829 61.9116 90.457C60.1682 89.8291 58.5754 88.9574 57.1309 87.8418L59.1956 84.0379C59.4903 84.3569 59.9189 84.7024 60.4794 85.0742C61.042 85.4461 61.6972 85.8057 62.4473 86.1532C63.1974 86.5007 64.0217 86.8075 64.9201 87.0737C65.8185 87.3419 66.7499 87.5309 67.7164 87.6386L67.7432 79.4232C67.5824 79.3704 67.4155 79.3236 67.2404 79.283C67.0652 79.2423 66.8983 79.1956 66.7376 79.1428C65.3157 78.7689 64.0773 78.3747 63.0181 77.9601C61.959 77.5476 61.0811 77.0478 60.3867 76.4625C59.6902 75.8794 59.1627 75.1946 58.8041 74.4143C58.4435 73.634 58.2663 72.6871 58.2704 71.5756C58.2745 70.2791 58.5053 69.129 58.9669 68.1252C59.4264 67.1214 60.0735 66.2578 60.908 65.5323C61.7426 64.8069 62.7173 64.242 63.8321 63.8356C64.9469 63.4292 66.175 63.1752 67.5186 63.0736L67.5309 59.0645L69.6245 59.0705L69.6122 63.0797C71.3555 63.1915 72.9648 63.541 74.4382 64.1282C75.9116 64.7155 77.2118 65.4206 78.3349 66.2435L76.2701 69.889L76.266 69.8788ZM62.979 70.8684C62.9748 71.9799 63.3684 72.8151 64.1577 73.3739C64.9469 73.9327 66.1462 74.4265 67.7555 74.8532L67.7823 67.034C66.1441 67.1092 64.9366 67.481 64.1556 68.1536C63.3746 68.8262 62.9831 69.7305 62.979 70.8684ZM74.568 84.0846C74.5721 82.9203 74.1044 82.0384 73.1688 81.441C72.2313 80.8415 70.9186 80.303 69.2289 79.8215L69.2021 87.6813C70.9186 87.661 72.2416 87.348 73.1709 86.7425C74.0982 86.137 74.5639 85.253 74.568 84.0867V84.0846Z" fill="#4E5D78"/>
<path d="M114.773 63.0664H92.666V66.2138H114.773V63.0664Z" fill="#C4C4C4"/>
<path d="M110.042 75.2227H92.666V78.3701H110.042V75.2227Z" fill="#C4C4C4"/>
<path d="M112.163 87.377H92.666V90.5244H112.163V87.377Z" fill="#C4C4C4"/>
<path d="M403.254 181.619H381.146V184.767H403.254V181.619Z" fill="#C4C4C4"/>
<path d="M398.522 193.775H381.146V196.923H398.522V193.775Z" fill="#C4C4C4"/>
<path d="M400.644 205.93H381.146V209.077H400.644V205.93Z" fill="#C4C4C4"/>
<path d="M309.89 13.7578H287.783V16.9052H309.89V13.7578Z" fill="#C4C4C4"/>
<path d="M305.159 25.9121H287.783V29.0595H305.159V25.9121Z" fill="#C4C4C4"/>
<path d="M307.281 38.0684H287.783V41.2158H307.281V38.0684Z" fill="#C4C4C4"/>
<path d="M349.698 260.086H319.492V258.157H347.77V224.506H349.698V260.086Z" fill="#C4C4C4"/>
<path d="M204.934 74.7043H203.006V64.8852H268.49V58.0176H270.418V66.8143H204.934V74.7043Z" fill="#C4C4C4"/>
<path d="M131.74 190.292H97.3652V116.123H99.2932V188.363H131.74V190.292Z" fill="#C4C4C4"/>
<path d="M260.834 139.9H157.047V144.021H260.834V139.9Z" fill="#4E5D78"/>
<path d="M260.834 161.467H157.047V165.588H260.834V161.467Z" fill="#4E5D78"/>
<path d="M206.211 181.297H157.047V185.418H206.211V181.297Z" fill="#4E5D78"/>
<path d="M260.574 181.297H211.41V185.418H260.574V181.297Z" fill="#4E5D78"/>
<path d="M260.595 200.129H157.047V204.442H260.595V200.129Z" fill="#4E5D78"/>
<path d="M248.033 217.105H161.725V221.227H248.033V217.105Z" fill="#4E5D78"/>
<path d="M265.512 235.652H161.725V239.773H265.512V235.652Z" fill="#4E5D78"/>
<path d="M210.167 277.222H161.361V253.832H210.167V277.222ZM162.084 276.499H209.444V254.555H162.084V276.499Z" fill="#4E5D78"/>
<path d="M265.507 254.195H221.852V259.553H265.507V254.195Z" fill="#4E5D78"/>
<path d="M252.795 265.527H221.852V270.885H252.795V265.527Z" fill="#4E5D78"/>
<path d="M255.06 291.285H161.725V295.406H255.06V291.285Z" fill="#4E5D78"/>
<path d="M210.889 309.828H161.725V313.949H210.889V309.828Z" fill="#4E5D78"/>
<path d="M291.479 320.723H260.736V289.961H291.479V320.723ZM263.628 317.829H288.587V292.855H263.628V317.829Z" fill="#4E5D78"/>
<path d="M276.524 311.792L265.713 301.594L269.019 298.085L276.741 305.37L293.636 291.48L296.695 295.206L276.524 311.792Z" fill="#4E5D78"/>
<g style="mix-blend-mode:hard-light" opacity="0.24">
<path d="M254.319 230.158C231.306 190.502 180.52 177.02 140.882 200.054C136.904 202.366 133.19 204.956 129.756 207.787V226.832C134.715 221.004 140.733 215.909 147.726 211.841C180.85 192.591 223.298 203.861 242.537 237.006C248.443 247.179 251.47 258.233 251.877 269.224C251.909 270.083 251.928 270.936 251.928 271.795C251.928 295.718 239.553 318.998 217.387 331.874C187.919 348.99 151.069 341.968 129.756 316.871V335.935C134.766 340.078 140.215 343.57 145.96 346.381H219.161C220.872 345.54 222.559 344.633 224.233 343.661C263.864 320.635 277.338 269.818 254.319 230.155V230.158Z" fill="#3F444F"/>
</g>
<path d="M14.5894 427.012L117.611 341.094L103.014 323.569L-0.00818058 409.487L14.5894 427.012Z" fill="#4E5D78"/>
<path d="M115.856 338.988L121.359 334.398L110.28 321.097L104.776 325.687L115.856 338.988Z" fill="#B0B7C3"/>
<path d="M103.817 314.074C126.832 353.732 177.62 367.212 217.254 344.181C256.887 321.152 270.358 270.332 247.341 230.674C224.327 191.017 173.538 177.537 133.905 200.568C94.2717 223.597 80.8004 274.417 103.817 314.074ZM115.602 307.226C105.393 289.635 103.774 269.418 109.454 251.439C114.476 235.541 125.205 221.393 140.749 212.36C173.873 193.112 216.321 204.378 235.557 237.523C241.461 247.696 244.493 258.75 244.9 269.741C245.82 294.554 233.366 319.049 210.409 332.389C177.285 351.637 134.837 340.371 115.602 307.226Z" fill="#323B4B"/>
<path opacity="0.3" d="M109.453 251.438C109.453 251.438 181.685 196.557 244.901 269.743C244.494 258.752 241.462 247.7 235.558 237.524C216.322 204.38 173.874 193.114 140.75 212.362C125.207 221.395 114.475 235.542 109.456 251.44L109.453 251.438Z" fill="#C2C2C2"/>
<defs>
<linearGradient id="paint0_linear_3802_1655" x1="348.346" y1="411.565" x2="147.968" y2="20.3297" gradientUnits="userSpaceOnUse">
<stop stop-color="#D5D5D5"/>
<stop offset="1" stop-color="#FCFCFC"/>
</linearGradient>
</defs>
</svg>
