<svg width="41" height="40" viewBox="0 0 41 40" fill="none" xmlns="http://www.w3.org/2000/svg">
<path fill-rule="evenodd" clip-rule="evenodd" d="M18.0078 0C7.89362 1.02388 0 9.56445 0 19.9487C0 22.3474 0.421198 24.6477 1.19367 26.7798L4.46027 24.4925C4.04078 23.0506 3.81588 21.5259 3.81588 19.9487C3.81588 11.6742 10.0058 4.84543 18.0078 3.8404V0ZM6.13492 28.3155L3.00274 30.5087C6.53931 36.2063 12.8524 40.0002 20.0516 40.0002C27.0035 40.0002 33.1291 36.4624 36.7262 31.0889L33.5992 28.8994C30.6931 33.2892 25.7104 36.1844 20.0516 36.1844C14.1454 36.1844 8.97585 33.0307 6.13492 28.3155ZM40.1031 19.9487C40.1031 22.5986 39.5891 25.1285 38.6553 27.444L35.4252 25.1823C35.9841 23.5402 36.2872 21.7799 36.2872 19.9487C36.2872 11.6758 30.0997 4.84809 22.1 3.84099V0.000473413C32.2119 1.02651 40.1031 9.56605 40.1031 19.9487Z" fill="#D9D9D9"/>
<path d="M18.0022 0.000657249C7.89071 1.02711 0 9.56645 0 19.9488C0 22.3466 0.420896 24.6462 1.19284 26.7776L6.38096 23.1448C6.14188 22.1182 6.01547 21.0482 6.01547 19.9488C6.01547 12.893 11.2217 7.05313 18.0022 6.06122V0.000657249Z" fill="#3300FF"/>
<path d="M40.1031 19.9488C40.1031 22.5998 39.5887 25.1306 38.6542 27.4469L33.5348 23.8623C33.8947 22.6201 34.0876 21.307 34.0876 19.9488C34.0876 12.8907 28.8781 7.04941 22.0944 6.06027V0C32.209 1.02346 40.1031 9.56423 40.1031 19.9488Z" fill="#B0B7C3"/>
</svg>
