
<svg width="41" height="40" viewBox="0 0 41 40" fill="none" xmlns="http://www.w3.org/2000/svg">
<path d="M18.0022 0.000657249C7.89071 1.02711 0 9.56645 0 19.9488C0 22.3466 0.420896 24.6462 1.19284 26.7776L6.38096 23.1448C6.14188 22.1182 6.01547 21.0482 6.01547 19.9488C6.01547 12.893 11.2217 7.05313 18.0022 6.06122V0.000657249Z" fill="#B0B7C3"/>
<path d="M7.94072 27.0483L3.0015 30.5067C6.53783 36.2055 12.8515 40.0003 20.0516 40.0003C27.0025 40.0003 33.1273 36.4635 36.7246 31.0914L31.795 27.6396C29.2871 31.4612 24.964 33.9849 20.0516 33.9849C14.8899 33.9849 10.379 31.1987 7.94072 27.0483Z" fill="#B0B7C3"/>
<path d="M40.1031 19.9488C40.1031 22.5998 39.5887 25.1306 38.6542 27.4469L33.5348 23.8623C33.8947 22.6201 34.0876 21.307 34.0876 19.9488C34.0876 12.8907 28.8781 7.04941 22.0944 6.06027V0C32.209 1.02346 40.1031 9.56423 40.1031 19.9488Z" fill="#B0B7C3"/>
<path d="M18.0022 0.000657249C7.89071 1.02711 0 9.56645 0 19.9488C0 22.3466 0.420896 24.6462 1.19284 26.7776L6.38096 23.1448C6.14188 22.1182 6.01547 21.0482 6.01547 19.9488C6.01547 12.893 11.2217 7.05313 18.0022 6.06122V0.000657249Z" fill="#3300FF"/>
<path d="M40.1031 19.9488C40.1031 22.5998 39.5887 25.1306 38.6542 27.4469L33.5348 23.8623C33.8947 22.6201 34.0876 21.307 34.0876 19.9488C34.0876 12.8907 28.8781 7.04941 22.0944 6.06027V0C32.209 1.02346 40.1031 9.56423 40.1031 19.9488Z" fill="#3300FF"/>
</svg>
