<svg width="41" height="41" viewBox="0 0 41 41" fill="none" xmlns="http://www.w3.org/2000/svg">
<path fill-rule="evenodd" clip-rule="evenodd" d="M18.0022 0.10222C7.89072 1.12867 0 9.66802 0 20.0503C0 22.4178 0.410294 24.6894 1.16366 26.798L4.43525 24.5072C4.03185 23.0911 3.81588 21.5959 3.81588 20.0503C3.81588 11.7778 10.003 4.95026 18.0022 3.94276V0.10222ZM6.09085 28.3436L2.9577 30.5374C6.48555 36.2755 12.8217 40.1019 20.0516 40.1019C27.0323 40.1019 33.1798 36.5347 36.7708 31.1237L33.6434 28.9339C30.7438 33.3614 25.7392 36.286 20.0516 36.286C14.1147 36.286 8.92218 33.0995 6.09085 28.3436ZM40.1031 20.0503C40.1031 22.6711 39.6003 25.1744 38.686 27.4691L35.452 25.2047C35.9937 23.5852 36.2872 21.8521 36.2872 20.0503C36.2872 11.7755 30.0968 4.94657 22.0944 3.94194V0.101562C32.209 1.12502 40.1031 9.6658 40.1031 20.0503Z" fill="#D9D9D9"/>
<path d="M18.0022 0C7.89071 1.02645 0 9.5658 0 19.9481C0 22.346 0.420896 24.6455 1.19284 26.7769L6.38096 23.1442C6.14188 22.1175 6.01547 21.0476 6.01547 19.9481C6.01547 12.8923 11.2217 7.05247 18.0022 6.06056V0Z" fill="#B0B7C3"/>
</svg>
