<svg width="149" height="149" viewBox="0 0 149 149" fill="none" xmlns="http://www.w3.org/2000/svg">
<g filter="url(#filter0_d_3110_1832)">
<path d="M72.2465 5.22541C73.6783 3.54411 76.2749 3.54411 77.7066 5.22541C78.9967 6.74035 81.2736 6.91516 82.7799 5.6149C84.4515 4.17187 87.0177 4.56824 88.176 6.44839C89.2197 8.14251 91.4433 8.66284 93.1303 7.60774C95.0027 6.43679 97.4782 7.22024 98.336 9.25518C99.1089 11.0888 101.227 11.9424 103.055 11.1572C105.084 10.2858 107.411 11.438 107.948 13.58C108.432 15.5101 110.395 16.677 112.322 16.1801C114.46 15.6287 116.584 17.1226 116.788 19.3215C116.972 21.3028 118.734 22.7557 120.714 22.5588C122.911 22.3402 124.782 24.1408 124.648 26.345C124.527 28.3311 126.046 30.036 128.033 30.1436C130.238 30.263 131.812 32.3281 131.343 34.486C130.92 36.4304 132.162 38.3472 134.109 38.7568C136.27 39.2114 137.51 41.4926 136.717 43.5536C136.003 45.4107 136.937 47.4945 138.799 48.1966C140.865 48.9758 141.743 51.4195 140.644 53.3353C139.655 55.0616 140.26 57.2635 141.993 58.2416C143.916 59.3271 144.41 61.8762 143.032 63.6019C141.79 65.1568 142.052 67.4253 143.616 68.6565C145.351 70.0228 145.45 72.6175 143.825 74.1126C142.36 75.4598 142.273 77.7417 143.63 79.197C145.136 80.8122 144.838 83.3916 143.004 84.6211C141.351 85.729 140.916 87.9708 142.035 89.6162C143.277 91.4423 142.589 93.9461 140.588 94.8812C138.785 95.7237 138.014 97.8729 138.868 99.6699C139.817 101.664 138.755 104.034 136.635 104.652C134.725 105.21 133.634 107.216 134.204 109.122C134.837 111.238 133.425 113.417 131.236 113.705C129.263 113.965 127.879 115.781 128.151 117.752C128.454 119.939 126.726 121.878 124.519 121.828C122.529 121.783 120.884 123.367 120.853 125.356C120.818 127.565 118.814 129.217 116.64 128.83C114.681 128.482 112.813 129.796 112.478 131.758C112.107 133.935 109.875 135.262 107.785 134.548C105.902 133.905 103.855 134.918 103.225 136.806C102.526 138.9 100.117 139.871 98.1608 138.847C96.398 137.924 94.2208 138.613 93.3098 140.382C92.2988 142.345 89.7705 142.937 87.9933 141.626C86.3919 140.445 84.1351 140.794 82.9648 142.403C81.6659 144.189 79.0769 144.388 77.5207 142.821C76.1184 141.409 73.8348 141.409 72.4325 142.821C70.8762 144.388 68.2872 144.189 66.9884 142.403C65.818 140.794 63.5612 140.445 61.9598 141.626C60.1826 142.937 57.6543 142.345 56.6433 140.382C55.7323 138.613 53.5552 137.924 51.7923 138.847C49.8358 139.871 47.4275 138.9 46.728 136.806C46.0977 134.918 44.0513 133.905 42.1682 134.548C40.0783 135.262 37.8463 133.935 37.4748 131.758C37.14 129.796 35.2722 128.482 33.313 128.83C31.1387 129.217 29.1355 127.565 29.1006 125.356C29.0692 123.367 27.4238 121.783 25.4345 121.828C23.2267 121.878 21.4991 119.939 21.8017 117.752C22.0744 115.781 20.69 113.965 18.7171 113.705C16.5276 113.417 15.1162 111.238 15.7492 109.122C16.3195 107.216 15.2286 105.21 13.3185 104.652C11.1986 104.034 10.1364 101.664 11.0849 99.6699C11.9395 97.8729 11.1676 95.7237 9.365 94.8812C7.36442 93.9461 6.67636 91.4423 7.91817 89.6162C9.03711 87.9708 8.60233 85.729 6.94943 84.6211C5.11503 83.3916 4.81724 80.8122 6.32324 79.197C7.68024 77.7417 7.59277 75.4598 6.12835 74.1126C4.50313 72.6175 4.60259 70.0228 6.33749 68.6565C7.90074 67.4253 8.16263 65.1568 6.92102 63.6019C5.54307 61.8762 6.03744 59.3271 7.96058 58.2416C9.69344 57.2635 10.2985 55.0616 9.30885 53.3353C8.21047 51.4195 9.08817 48.9758 11.1545 48.1966C13.0163 47.4945 13.9505 45.4107 13.2359 43.5536C12.4428 41.4926 13.6833 39.2114 15.8443 38.7568C17.7915 38.3472 19.0328 36.4304 18.6101 34.486C18.1409 32.3281 19.715 30.263 21.9201 30.1436C23.907 30.036 25.4264 28.3311 25.3054 26.345C25.1712 24.1408 27.0421 22.3402 29.2395 22.5588C31.2196 22.7557 32.9814 21.3028 33.165 19.3215C33.3688 17.1226 35.4927 15.6287 37.631 16.1801C39.5578 16.677 41.5207 15.5101 42.0047 13.58C42.5417 11.438 44.8687 10.2858 46.8978 11.1572C48.7262 11.9424 50.8442 11.0888 51.6171 9.25518C52.4749 7.22024 54.9505 6.43679 56.8228 7.60774C58.5099 8.66284 60.7334 8.14251 61.7771 6.44839C62.9355 4.56824 65.5016 4.17187 67.1733 5.6149C68.6795 6.91516 70.9564 6.74035 72.2465 5.22541Z" fill="#F2F2F2"/>
<circle cx="75.0943" cy="74.0455" r="51.1314" fill="white"/>
<circle cx="75.0069" cy="74.046" r="43.7319" fill="white" stroke="#D9D9D9" stroke-width="0.342995"/>
<circle cx="75.0069" cy="74.046" r="43.7319" fill="white" stroke="#D9D9D9" stroke-width="0.342995"/>
<path d="M137.75 73.5195C137.75 108.453 109.654 136.77 75 136.77C40.346 136.77 12.25 108.453 12.25 73.5195C12.25 38.5857 40.346 10.2695 75 10.2695C109.654 10.2695 137.75 38.5857 137.75 73.5195Z" fill="#F2F2F2" stroke="#D9D9D9" stroke-width="0.5"/>
<circle cx="75.0112" cy="73.3589" r="44.4179" fill="#F9F9F9" stroke="#D9D9D9" stroke-width="0.342995"/>
<path d="M28.6794 45.5391C28.5315 45.4744 28.3907 45.4712 28.2569 45.5295C28.1226 45.5857 28.0043 45.7067 27.9023 45.8924C27.8347 46.0154 27.7943 46.1267 27.7813 46.2262C27.7683 46.3258 27.7786 46.4116 27.8125 46.4836C27.845 46.5548 27.8968 46.6108 27.9678 46.6515C28.0253 46.6865 28.0836 46.7035 28.1425 46.7025C28.2021 46.7002 28.2629 46.6836 28.325 46.6527C28.3864 46.6198 28.4497 46.5745 28.5147 46.5168C28.5798 46.4592 28.6465 46.3908 28.715 46.3117L28.9778 46.0158C29.1271 45.8444 29.2778 45.7037 29.4299 45.5939C29.5827 45.4827 29.7356 45.4033 29.8886 45.3556C30.0423 45.3067 30.1969 45.2908 30.3526 45.308C30.5083 45.3252 30.6653 45.3764 30.8235 45.4618C31.0713 45.5996 31.25 45.7796 31.3598 46.0018C31.4695 46.2239 31.5077 46.4775 31.4743 46.7628C31.4417 47.0467 31.3352 47.3526 31.155 47.6805C30.974 48.0097 30.767 48.2695 30.5339 48.4599C30.3008 48.6503 30.0463 48.7582 29.7706 48.7834C29.4949 48.8086 29.2023 48.7387 28.8927 48.5735L29.3934 47.6628C29.5244 47.7249 29.6487 47.749 29.7664 47.7353C29.884 47.7215 29.9934 47.6741 30.0947 47.593C30.1967 47.5107 30.2861 47.3997 30.3628 47.2601C30.4332 47.132 30.4758 47.0136 30.4905 46.9049C30.5059 46.795 30.4963 46.6988 30.4615 46.6163C30.4268 46.5338 30.3701 46.4701 30.2914 46.4252C30.2164 46.3856 30.1403 46.3738 30.0632 46.3898C29.9847 46.4051 29.9006 46.4489 29.8108 46.5213C29.7204 46.5916 29.6191 46.6894 29.5069 46.8146L29.1848 47.1729C28.9194 47.4707 28.6457 47.6697 28.3638 47.7699C28.0806 47.8694 27.7901 47.8365 27.4924 47.6711C27.2483 47.5386 27.071 47.3561 26.9603 47.1234C26.8497 46.8908 26.8072 46.6298 26.8329 46.3404C26.8586 46.0509 26.9534 45.757 27.1175 45.4585C27.2851 45.1537 27.4824 44.9177 27.7093 44.7506C27.9357 44.5815 28.1759 44.4859 28.4299 44.4637C28.684 44.4416 28.934 44.4965 29.1801 44.6284L28.6794 45.5391Z" fill="#806CCF"/>
<path d="M33.2877 43.9773L29.6254 41.3796L31.4367 38.8259L32.1556 39.3359L30.9722 41.0043L31.7232 41.537L32.8141 39.9991L33.5348 40.5103L32.4439 42.0482L33.1967 42.5822L34.3802 40.9138L35.0991 41.4237L33.2877 43.9773Z" fill="#806CCF"/>
<path d="M37.2897 34.4795L36.552 35.2904C36.4589 35.2255 36.3636 35.1793 36.2661 35.1518C36.1685 35.1243 36.0709 35.1165 35.9732 35.1284C35.8754 35.1402 35.7797 35.1727 35.686 35.2257C35.5922 35.2767 35.504 35.3476 35.4213 35.4385C35.2748 35.5995 35.1878 35.7744 35.1605 35.9629C35.1342 36.1504 35.1671 36.3434 35.2593 36.5418C35.3524 36.7392 35.5049 36.9343 35.7168 37.1271C35.9374 37.3277 36.1508 37.4646 36.357 37.5376C36.5632 37.6086 36.7562 37.6212 36.9361 37.5754C37.116 37.5276 37.2777 37.4248 37.4213 37.2669C37.502 37.1783 37.5639 37.0874 37.6071 36.9943C37.6513 36.9002 37.6768 36.8058 37.6838 36.7113C37.6906 36.6148 37.6789 36.5202 37.6486 36.4274C37.6183 36.3326 37.5695 36.2418 37.5023 36.155L38.2449 35.3486C38.3791 35.4964 38.4851 35.6709 38.5629 35.8721C38.6417 36.0722 38.6839 36.2875 38.6896 36.518C38.6943 36.7474 38.6505 36.9823 38.5584 37.2226C38.4673 37.4617 38.3179 37.6954 38.1104 37.9235C37.8369 38.2241 37.5261 38.4333 37.1778 38.5511C36.8294 38.6669 36.4657 38.6779 36.0867 38.584C35.7077 38.4902 35.3361 38.2775 34.9717 37.946C34.6063 37.6136 34.36 37.262 34.2328 36.8914C34.1056 36.5208 34.0843 36.1565 34.1688 35.7987C34.2533 35.4408 34.4298 35.1143 34.6983 34.8192C34.8813 34.6181 35.0786 34.4577 35.2902 34.3381C35.5008 34.2174 35.7186 34.1409 35.9436 34.1085C36.1676 34.0752 36.3938 34.0883 36.6222 34.1479C36.8506 34.2075 37.0731 34.318 37.2897 34.4795Z" fill="#806CCF"/>
<path d="M40.4853 29.3684L41.313 28.6698L43.1809 30.8832C43.3967 31.139 43.5239 31.4133 43.5624 31.7059C43.6 31.9974 43.5537 32.287 43.4235 32.5747C43.2924 32.8613 43.0828 33.1262 42.7946 33.3694C42.503 33.6155 42.205 33.779 41.9004 33.8601C41.5949 33.94 41.3022 33.9365 41.0223 33.8495C40.7414 33.7614 40.493 33.5895 40.2771 33.3337L38.4093 31.1203L39.2387 30.4204L41.0457 32.5617C41.1457 32.6801 41.2604 32.764 41.3901 32.8133C41.5208 32.8617 41.6552 32.8726 41.7934 32.8459C41.9315 32.8192 42.0626 32.7536 42.1866 32.6489C42.3105 32.5443 42.3967 32.4266 42.4452 32.2959C42.4947 32.1642 42.5066 32.0299 42.4808 31.8928C42.4551 31.7558 42.3923 31.6281 42.2923 31.5097L40.4853 29.3684Z" fill="#806CCF"/>
<path d="M46.5561 30.348L44.1096 26.5829L45.6649 25.5723C45.9468 25.3891 46.2231 25.2819 46.4939 25.2506C46.7651 25.2173 47.0178 25.2588 47.252 25.3751C47.4853 25.4901 47.6856 25.6763 47.8529 25.9337C48.0225 26.1948 48.1097 26.4536 48.1143 26.7103C48.1182 26.9658 48.0464 27.2094 47.899 27.4412C47.7507 27.6717 47.5332 27.8802 47.2464 28.0665L46.2628 28.7056L45.797 27.9886L46.6114 27.4595C46.7487 27.3703 46.8517 27.278 46.9205 27.1828C46.9898 27.0855 47.0244 26.9845 47.0244 26.8799C47.0237 26.7741 46.9854 26.663 46.9098 26.5465C46.8341 26.4301 46.7477 26.3494 46.6505 26.3045C46.5526 26.2583 46.4447 26.2465 46.3268 26.2691C46.2082 26.2904 46.0809 26.3452 45.9448 26.4336L45.4962 26.7251L47.4661 29.7566L46.5561 30.348ZM47.5576 27.2499L49.6134 28.3614L48.6206 29.0065L46.5833 27.883L47.5576 27.2499Z" fill="#806CCF"/>
<path d="M50.5861 22.7247L52.6703 26.7019L51.709 27.2056L49.6249 23.2285L50.5861 22.7247Z" fill="#806CCF"/>
<path d="M53.3572 22.3346L53.0228 21.5191L56.5342 20.0793L56.8686 20.8947L55.6089 21.4113L56.978 24.7502L55.9881 25.1561L54.619 21.8172L53.3572 22.3346Z" fill="#806CCF"/>
<path d="M59.0742 19.185L60.2434 18.8641L61.6562 20.4247L61.6943 20.4143L62.1124 18.3511L63.2816 18.0302L62.4896 21.3487L62.8865 22.7948L61.8463 23.0803L61.4494 21.6342L59.0742 19.185Z" fill="#806CCF"/>
<path d="M71.1362 21.3206L69.9727 21.4027L71.168 16.8171L72.6093 16.7154L74.4364 21.0878L73.2729 21.1699L71.9847 17.8936L71.9497 17.8961L71.1362 21.3206ZM70.8566 19.5688L73.2886 19.3973L73.3466 20.2196L70.9146 20.3912L70.8566 19.5688Z" fill="#806CCF"/>
<path d="M79.8742 16.7566L80.9552 16.8229L80.778 19.7136C80.7575 20.0477 80.6601 20.3339 80.4859 20.5722C80.3118 20.809 80.0783 20.9865 79.7855 21.1047C79.4928 21.2215 79.1582 21.2683 78.7818 21.2453C78.4011 21.2219 78.0726 21.1344 77.7963 20.9828C77.5201 20.8296 77.3108 20.625 77.1684 20.3688C77.026 20.1111 76.9651 19.8152 76.9856 19.4811L77.1628 16.5903L78.246 16.6568L78.0746 19.4534C78.0651 19.6081 78.0902 19.748 78.1499 19.8732C78.211 19.9985 78.3008 20.0992 78.4191 20.1753C78.5375 20.2514 78.6776 20.2944 78.8395 20.3043C79.0015 20.3142 79.1451 20.2886 79.2704 20.2275C79.3971 20.1664 79.4985 20.0774 79.5745 19.9606C79.6505 19.8437 79.6932 19.7079 79.7027 19.5533L79.8742 16.7566Z" fill="#806CCF"/>
<path d="M85.2264 21.9576L83.5975 21.6394L84.4582 17.2326L86.0849 17.5503C86.5339 17.638 86.9033 17.8017 87.193 18.0415C87.4845 18.2801 87.6862 18.5816 87.7982 18.946C87.9105 19.309 87.922 19.7193 87.8326 20.1769C87.7429 20.6359 87.5777 21.0132 87.3368 21.3087C87.0973 21.6044 86.7976 21.8087 86.4375 21.9216C86.0776 22.033 85.6739 22.045 85.2264 21.9576ZM84.84 20.9394L85.3628 21.0415C85.6096 21.0897 85.8264 21.0889 86.0134 21.039C86.2021 20.988 86.3586 20.8764 86.4831 20.7041C86.6093 20.5307 86.7034 20.2854 86.7653 19.9684C86.8272 19.6514 86.8321 19.3902 86.7798 19.1849C86.7279 18.9782 86.6232 18.8163 86.4659 18.6992C86.3103 18.5809 86.1062 18.4971 85.8538 18.4478L85.346 18.3487L84.84 20.9394Z" fill="#806CCF"/>
<path d="M92.5077 19.1485L91.2093 23.4468L90.1704 23.133L91.4688 18.8347L92.5077 19.1485Z" fill="#806CCF"/>
<path d="M94.7628 20.8068L95.0953 19.9906L98.6099 21.4225L98.2774 22.2388L97.0165 21.725L95.6549 25.0671L94.6641 24.6634L96.0257 21.3214L94.7628 20.8068Z" fill="#806CCF"/>
<path d="M102.155 28.3187L104.593 24.5481L106.15 25.5552C106.432 25.7378 106.643 25.9462 106.782 26.1807C106.923 26.4146 106.989 26.6622 106.978 26.9235C106.968 27.1835 106.88 27.4424 106.714 27.7001C106.544 27.9616 106.344 28.1468 106.111 28.2559C105.88 28.3638 105.628 28.3977 105.356 28.3577C105.085 28.3165 104.806 28.2031 104.519 28.0174L103.534 27.3805L103.998 26.6625L104.814 27.1898C104.951 27.2787 105.078 27.3351 105.193 27.359C105.31 27.3825 105.416 27.3729 105.512 27.3302C105.608 27.2863 105.694 27.206 105.769 27.0894C105.844 26.9728 105.883 26.861 105.884 26.754C105.886 26.6457 105.853 26.5424 105.784 26.444C105.716 26.3444 105.614 26.2506 105.478 26.1625L105.029 25.872L103.066 28.908L102.155 28.3187ZM105.392 27.968L105.216 30.2984L104.222 29.6556L104.416 27.3371L105.392 27.968Z" fill="#806CCF"/>
<path d="M107.135 31.7112L109.987 28.2433L112.405 30.2321L111.845 30.9128L110.265 29.6134L109.68 30.3246L111.137 31.5223L110.575 32.2047L109.119 31.007L108.533 31.7199L110.113 33.0192L109.553 33.6999L107.135 31.7112Z" fill="#806CCF"/>
<path d="M111.423 35.4075L114.652 32.2876L115.941 33.6216C116.175 33.8633 116.329 34.1177 116.404 34.3847C116.481 34.6516 116.482 34.9142 116.406 35.1723C116.331 35.4295 116.183 35.6652 115.961 35.8795C115.738 36.0948 115.496 36.2343 115.234 36.298C114.975 36.3618 114.713 36.3479 114.447 36.2565C114.182 36.1652 113.93 35.9959 113.692 35.7489L112.897 34.9259L113.511 34.3317L114.167 35.0097C114.28 35.1275 114.396 35.206 114.513 35.2452C114.631 35.2855 114.747 35.2906 114.86 35.2605C114.974 35.2294 115.081 35.1661 115.18 35.0706C115.279 34.9741 115.346 34.8703 115.379 34.7593C115.413 34.6472 115.411 34.5319 115.374 34.4134C115.337 34.2949 115.262 34.1774 115.149 34.0607L114.777 33.676L112.177 36.188L111.423 35.4075Z" fill="#806CCF"/>
<path d="M119.848 41.8703C119.453 42.1667 119.061 42.3419 118.672 42.396C118.283 42.45 117.92 42.4008 117.583 42.2482C117.246 42.0967 116.957 41.8602 116.716 41.5387C116.474 41.2159 116.328 40.8714 116.278 40.5051C116.228 40.1388 116.283 39.7771 116.443 39.4199C116.604 39.063 116.882 38.7367 117.276 38.4412C117.672 38.1448 118.063 37.969 118.451 37.9137C118.84 37.8597 119.203 37.9084 119.539 38.0598C119.875 38.2112 120.165 38.4483 120.407 38.7711C120.648 39.0926 120.794 39.4361 120.845 39.8015C120.897 40.1681 120.843 40.5305 120.682 40.8885C120.521 41.2466 120.243 41.5739 119.848 41.8703ZM119.182 40.9828C119.416 40.8074 119.589 40.6258 119.7 40.4382C119.813 40.2517 119.864 40.0653 119.854 39.8791C119.845 39.6941 119.775 39.515 119.645 39.342C119.517 39.1701 119.364 39.0533 119.188 38.9916C119.012 38.9299 118.819 38.9262 118.607 38.9806C118.397 39.0361 118.175 39.1516 117.941 39.327C117.707 39.5024 117.534 39.6833 117.421 39.8698C117.31 40.0575 117.259 40.2444 117.269 40.4306C117.279 40.6168 117.349 40.7959 117.478 40.9678C117.607 41.1408 117.76 41.2576 117.935 41.3182C118.111 41.3798 118.304 41.3829 118.515 41.3274C118.726 41.273 118.949 41.1581 119.182 40.9828Z" fill="#806CCF"/>
<path d="M119.415 45.3109L123.314 43.0847L124.234 44.6955C124.401 44.9875 124.492 45.2695 124.507 45.5416C124.525 45.8143 124.469 46.0642 124.34 46.2913C124.211 46.5177 124.014 46.707 123.747 46.8591C123.477 47.0135 123.213 47.0856 122.957 47.0755C122.702 47.0647 122.463 46.9791 122.24 46.8185C122.018 46.6573 121.822 46.4281 121.653 46.1311L121.071 45.1125L121.814 44.6885L122.295 45.532C122.377 45.6742 122.463 45.7824 122.554 45.8566C122.647 45.9313 122.746 45.9717 122.85 45.9777C122.956 45.983 123.069 45.9512 123.19 45.8824C123.31 45.8135 123.396 45.7319 123.446 45.6375C123.498 45.5423 123.516 45.4353 123.5 45.3163C123.486 45.1967 123.438 45.0664 123.358 44.9255L123.093 44.4609L119.953 46.2533L119.415 45.3109ZM122.45 46.4888L121.223 48.4772L120.636 47.4491L121.874 45.4796L122.45 46.4888Z" fill="#806CCF"/>
<path d="M125.544 49.066L126.355 48.722L127.836 52.2161L127.025 52.5601L126.493 51.3066L123.171 52.7151L122.753 51.73L126.076 50.3215L125.544 49.066Z" fill="#806CCF"/>
<path d="M27.5837 90.8154L24.7576 92.7742L24.769 92.8097L28.2072 92.7636L28.5774 93.9204L23.8392 93.8462L23.3988 92.4701L27.2135 89.6586L27.5837 90.8154Z" fill="#806CCF"/>
<path d="M25.2573 97.6785L29.3457 95.8223L30.64 98.673L29.8375 99.0374L28.9919 97.1748L28.1534 97.5555L28.9329 99.2723L28.1284 99.6376L27.3489 97.9208L26.5085 98.3024L27.3541 100.165L26.5516 100.529L25.2573 97.6785Z" fill="#806CCF"/>
<path d="M27.7572 102.886L31.6176 100.593L32.5648 102.187C32.7365 102.476 32.8325 102.757 32.8529 103.029C32.8753 103.301 32.8236 103.552 32.698 103.781C32.5737 104.01 32.3796 104.202 32.1157 104.359C31.848 104.518 31.5859 104.595 31.3292 104.589C31.0738 104.583 30.8333 104.501 30.6076 104.344C30.3832 104.187 30.1837 103.961 30.009 103.667L29.41 102.659L30.1451 102.222L30.6411 103.057C30.7247 103.198 30.8127 103.304 30.9052 103.377C30.9996 103.45 31.0991 103.489 31.2036 103.493C31.3093 103.497 31.4219 103.463 31.5413 103.392C31.6607 103.321 31.7448 103.238 31.7936 103.143C31.8436 103.047 31.8598 102.939 31.842 102.821C31.8255 102.701 31.7758 102.572 31.6929 102.432L31.4197 101.972L28.3114 103.819L27.7572 102.886ZM30.8125 104.011L29.6192 106.02L29.0146 105.002L30.2191 103.012L30.8125 104.011Z" fill="#806CCF"/>
<path d="M35.3025 106.311L31.6633 108.941L31.0276 108.062L34.6667 105.431L35.3025 106.311Z" fill="#806CCF"/>
<path d="M33.2046 110.958L36.6028 108.023L38.6062 110.343L37.9391 110.919L36.6451 109.421L35.9482 110.023L37.1147 111.373L36.446 111.951L35.2795 110.6L33.9139 111.78L33.2046 110.958Z" fill="#806CCF"/>
<path d="M40.9953 112.752L37.8633 115.969L37.0857 115.212L40.2177 111.995L40.9953 112.752Z" fill="#806CCF"/>
<path d="M41.0141 118.749L39.7188 117.711L42.5262 114.207L43.8198 115.244C44.1768 115.53 44.428 115.846 44.5734 116.193C44.7209 116.54 44.7596 116.9 44.6898 117.275C44.6208 117.649 44.4405 118.017 44.149 118.381C43.8566 118.746 43.5351 119.004 43.1846 119.154C42.8352 119.305 42.4749 119.346 42.1035 119.279C41.7331 119.211 41.37 119.034 41.0141 118.749ZM41.1442 117.668L41.56 118.001C41.7562 118.158 41.9487 118.258 42.1375 118.301C42.3283 118.343 42.5188 118.317 42.709 118.222C42.9012 118.127 43.0984 117.953 43.3003 117.701C43.5023 117.449 43.6278 117.22 43.6768 117.014C43.7267 116.807 43.7091 116.615 43.6241 116.438C43.5411 116.261 43.3993 116.092 43.1985 115.931L42.7947 115.608L41.1442 117.668Z" fill="#806CCF"/>
<path d="M45.1686 121.851L47.5499 118.044L50.2041 119.705L49.7367 120.452L48.0025 119.367L47.5142 120.148L49.1127 121.148L48.6441 121.897L47.0456 120.897L46.5561 121.679L48.2903 122.764L47.8229 123.511L45.1686 121.851Z" fill="#806CCF"/>
<path d="M53.3836 126.375L55.0601 122.209L56.797 122.908C57.1089 123.034 57.3522 123.183 57.5269 123.356C57.7029 123.529 57.8119 123.716 57.8538 123.917C57.8971 124.119 57.8767 124.324 57.7926 124.533C57.7288 124.692 57.6385 124.82 57.5219 124.918C57.4058 125.015 57.2731 125.08 57.1237 125.115C56.9744 125.149 56.8165 125.152 56.6502 125.123L56.6338 125.163C56.7987 125.239 56.9357 125.347 57.0448 125.487C57.1552 125.628 57.2241 125.789 57.2514 125.972C57.2792 126.153 57.2527 126.344 57.172 126.545C57.0819 126.769 56.9445 126.946 56.7596 127.076C56.5753 127.205 56.3549 127.277 56.0984 127.292C55.8424 127.306 55.5605 127.251 55.2527 127.127L53.3836 126.375ZM54.717 125.968L55.3394 126.219C55.5577 126.307 55.735 126.33 55.8713 126.289C56.009 126.248 56.1076 126.154 56.1671 126.006C56.2102 125.899 56.2222 125.797 56.2032 125.699C56.1847 125.6 56.1378 125.511 56.0625 125.432C55.9877 125.352 55.886 125.285 55.7571 125.234L55.1165 124.976L54.717 125.968ZM55.3776 124.327L55.9349 124.551C56.0447 124.595 56.1497 124.616 56.2499 124.614C56.35 124.612 56.4378 124.586 56.513 124.536C56.5897 124.486 56.6477 124.413 56.687 124.315C56.7432 124.175 56.7379 124.046 56.6711 123.926C56.6043 123.806 56.4868 123.712 56.3187 123.645L55.7452 123.414L55.3776 124.327Z" fill="#806CCF"/>
<path d="M60.086 124.145L61.2557 124.464L61.6774 126.527L61.7154 126.537L63.1256 124.974L64.2953 125.293L61.9244 127.746L61.5299 129.193L60.4892 128.909L60.8837 127.463L60.086 124.145Z" fill="#806CCF"/>
<path d="M71.6821 127.699C71.6809 127.538 71.6265 127.408 71.5188 127.309C71.4127 127.209 71.2541 127.151 71.0429 127.133C70.903 127.122 70.785 127.13 70.6887 127.159C70.5925 127.187 70.5184 127.232 70.4664 127.292C70.4146 127.351 70.3845 127.421 70.3763 127.502C70.3678 127.569 70.376 127.629 70.4009 127.682C70.4272 127.736 70.4671 127.785 70.5207 127.829C70.5758 127.872 70.6429 127.911 70.722 127.947C70.8012 127.983 70.8908 128.016 70.9909 128.046L71.3682 128.166C71.5856 128.232 71.7754 128.313 71.9377 128.407C72.1014 128.501 72.2362 128.608 72.3421 128.729C72.4494 128.849 72.5269 128.984 72.5746 129.133C72.6223 129.282 72.6394 129.447 72.6259 129.626C72.6009 129.908 72.5093 130.145 72.3511 130.336C72.1929 130.526 71.9768 130.664 71.7027 130.75C71.4301 130.836 71.1073 130.863 70.7345 130.832C70.3601 130.801 70.0385 130.718 69.7697 130.582C69.5008 130.447 69.2987 130.259 69.1634 130.017C69.0281 129.775 68.9728 129.48 68.9976 129.13L70.0332 129.216C70.0299 129.361 70.0585 129.484 70.1189 129.586C70.1794 129.688 70.2673 129.769 70.3826 129.828C70.4993 129.888 70.6371 129.924 70.7959 129.937C70.9415 129.95 71.067 129.94 71.1722 129.909C71.2789 129.879 71.3628 129.831 71.424 129.765C71.4852 129.7 71.5203 129.622 71.5293 129.532C71.5349 129.448 71.5146 129.373 71.4686 129.309C71.4228 129.244 71.3485 129.185 71.2458 129.132C71.1447 129.078 71.0141 129.026 70.8542 128.974L70.3957 128.826C70.0157 128.705 69.7225 128.536 69.5161 128.319C69.3099 128.101 69.2217 127.823 69.2514 127.483C69.2731 127.206 69.3676 126.97 69.535 126.774C69.7024 126.578 69.9235 126.433 70.1983 126.339C70.4731 126.245 70.7802 126.211 71.1196 126.24C71.4662 126.269 71.7621 126.353 72.0072 126.492C72.2538 126.63 72.439 126.81 72.5626 127.033C72.6863 127.256 72.738 127.507 72.7177 127.785L71.6821 127.699Z" fill="#806CCF"/>
<path d="M79.2805 128.612C79.2986 129.106 79.219 129.528 79.0417 129.878C78.8643 130.228 78.6168 130.498 78.2991 130.689C77.9828 130.879 77.6238 130.981 77.2221 130.996C76.819 131.01 76.4527 130.934 76.1234 130.766C75.794 130.598 75.5281 130.347 75.3257 130.012C75.1247 129.676 75.0152 129.261 74.9972 128.769C74.9791 128.275 75.058 127.853 75.2338 127.503C75.4111 127.153 75.6579 126.883 75.9742 126.693C76.2905 126.503 76.6502 126.401 77.0533 126.386C77.455 126.371 77.8205 126.447 78.1499 126.613C78.4806 126.78 78.7473 127.031 78.9497 127.367C79.1522 127.704 79.2624 128.119 79.2805 128.612ZM78.1719 128.653C78.1612 128.361 78.1105 128.115 78.0199 127.917C77.9307 127.718 77.8068 127.57 77.6482 127.472C77.491 127.374 77.3043 127.329 77.0882 127.337C76.8734 127.345 76.6906 127.403 76.5395 127.513C76.3885 127.622 76.2751 127.779 76.1992 127.984C76.1248 128.188 76.0929 128.436 76.1036 128.729C76.1143 129.021 76.1642 129.266 76.2534 129.465C76.3441 129.663 76.4687 129.811 76.6273 129.909C76.7859 130.008 76.9726 130.053 77.1873 130.045C77.4035 130.037 77.5864 129.978 77.7359 129.869C77.887 129.76 77.9997 129.603 78.0741 129.398C78.15 129.193 78.1826 128.945 78.1719 128.653Z" fill="#806CCF"/>
<path d="M81.9713 130.585L81.2868 126.147L82.3593 125.982L82.9095 129.549L84.7556 129.264L84.89 130.135L81.9713 130.585Z" fill="#806CCF"/>
<path d="M87.6157 124.931L88.6811 129.293L87.6269 129.551L86.5614 125.189L87.6157 124.931Z" fill="#806CCF"/>
<path d="M92.7022 128.105L91.1354 128.652L89.6547 124.413L91.2194 123.866C91.6513 123.716 92.0529 123.67 92.424 123.731C92.796 123.79 93.1223 123.949 93.4029 124.207C93.683 124.463 93.8999 124.812 94.0537 125.252C94.2079 125.694 94.2556 126.103 94.1968 126.479C94.1393 126.856 93.9836 127.183 93.7296 127.462C93.4752 127.74 93.1327 127.954 92.7022 128.105ZM91.8548 127.421L92.3578 127.245C92.5951 127.162 92.7819 127.052 92.9182 126.914C93.0553 126.775 93.1342 126.6 93.1547 126.388C93.1761 126.175 93.1336 125.916 93.0271 125.611C92.9206 125.306 92.793 125.078 92.6443 124.927C92.4951 124.775 92.323 124.688 92.1281 124.666C91.9341 124.642 91.7157 124.673 91.4728 124.758L90.9843 124.929L91.8548 127.421Z" fill="#806CCF"/>
<path d="M96.6397 121.676L98.5219 125.752L97.5366 126.207L95.6543 122.131L96.6397 121.676Z" fill="#806CCF"/>
<path d="M98.8681 121.583L98.4284 120.82L101.717 118.926L102.157 119.69L100.977 120.369L102.778 123.497L101.851 124.031L100.05 120.903L98.8681 121.583Z" fill="#806CCF"/>
<path d="M103.191 117.99L104.164 117.268L106.047 118.21L106.078 118.186L105.72 116.112L106.693 115.389L107.158 118.769L108.052 119.973L107.186 120.616L106.292 119.412L103.191 117.99Z" fill="#806CCF"/>
<path d="M113.14 111.07C113.012 110.972 112.876 110.934 112.732 110.958C112.588 110.98 112.444 111.068 112.3 111.224C112.204 111.326 112.138 111.424 112.101 111.518C112.064 111.611 112.053 111.697 112.069 111.775C112.083 111.852 112.119 111.919 112.178 111.976C112.226 112.024 112.278 112.054 112.335 112.068C112.394 112.08 112.457 112.079 112.524 112.064C112.592 112.047 112.664 112.019 112.742 111.979C112.819 111.938 112.9 111.888 112.986 111.828L113.313 111.606C113.499 111.476 113.68 111.376 113.854 111.307C114.029 111.236 114.197 111.196 114.357 111.187C114.518 111.177 114.672 111.2 114.819 111.254C114.966 111.309 115.105 111.397 115.238 111.518C115.445 111.712 115.574 111.931 115.626 112.173C115.679 112.415 115.654 112.67 115.552 112.939C115.451 113.206 115.273 113.477 115.018 113.751C114.763 114.026 114.498 114.227 114.226 114.355C113.953 114.483 113.68 114.526 113.407 114.483C113.133 114.44 112.867 114.301 112.607 114.065L113.314 113.304C113.426 113.396 113.541 113.45 113.658 113.465C113.776 113.481 113.893 113.461 114.011 113.408C114.13 113.353 114.244 113.267 114.353 113.15C114.452 113.043 114.522 112.938 114.563 112.837C114.605 112.734 114.619 112.638 114.605 112.55C114.592 112.461 114.552 112.386 114.487 112.323C114.424 112.266 114.353 112.236 114.274 112.233C114.194 112.229 114.102 112.251 113.997 112.299C113.893 112.345 113.77 112.415 113.631 112.509L113.231 112.778C112.901 113.002 112.588 113.129 112.29 113.157C111.991 113.184 111.717 113.082 111.469 112.849C111.264 112.661 111.137 112.44 111.086 112.188C111.036 111.935 111.058 111.672 111.154 111.397C111.249 111.123 111.413 110.861 111.645 110.611C111.881 110.357 112.13 110.176 112.391 110.069C112.652 109.96 112.908 109.926 113.16 109.967C113.412 110.007 113.641 110.121 113.847 110.309L113.14 111.07Z" fill="#806CCF"/>
<path d="M117.957 105.426L117.312 106.312C117.212 106.258 117.112 106.222 117.012 106.206C116.912 106.189 116.815 106.192 116.719 106.214C116.623 106.237 116.531 106.279 116.444 106.342C116.356 106.403 116.276 106.483 116.204 106.583C116.076 106.759 116.008 106.942 116.002 107.132C115.996 107.322 116.05 107.51 116.163 107.697C116.277 107.883 116.45 108.061 116.681 108.229C116.922 108.405 117.149 108.517 117.362 108.568C117.575 108.616 117.768 108.607 117.942 108.542C118.116 108.475 118.265 108.355 118.391 108.183C118.461 108.086 118.513 107.989 118.546 107.891C118.58 107.793 118.595 107.696 118.591 107.602C118.588 107.505 118.566 107.412 118.526 107.323C118.485 107.232 118.427 107.147 118.35 107.068L119.001 106.186C119.15 106.318 119.275 106.48 119.374 106.672C119.474 106.862 119.539 107.072 119.57 107.3C119.6 107.528 119.582 107.766 119.516 108.015C119.452 108.262 119.329 108.511 119.147 108.76C118.908 109.089 118.622 109.331 118.289 109.486C117.955 109.639 117.595 109.689 117.208 109.637C116.821 109.585 116.428 109.414 116.03 109.124C115.63 108.834 115.347 108.511 115.181 108.156C115.014 107.802 114.953 107.442 114.998 107.077C115.043 106.712 115.183 106.368 115.418 106.046C115.578 105.826 115.756 105.645 115.954 105.503C116.15 105.36 116.358 105.26 116.578 105.204C116.797 105.146 117.024 105.135 117.257 105.169C117.491 105.203 117.724 105.289 117.957 105.426Z" fill="#806CCF"/>
<path d="M122.249 103.918L121.687 104.94L118.482 101.449L119.178 100.183L123.843 101.019L123.281 102.041L119.829 101.347L119.813 101.377L122.249 103.918ZM120.625 103.203L121.8 101.066L122.522 101.464L121.348 103.6L120.625 103.203Z" fill="#806CCF"/>
<path d="M122.172 93.4796L126.348 95.1296L126.009 95.986L122.942 96.6955L122.932 96.7221L125.342 97.6743L124.943 98.6837L120.767 97.0337L121.111 96.1651L124.166 95.4722L124.18 95.4376L121.774 94.4869L122.172 93.4796Z" fill="#806CCF"/>
<mask id="mask0_3110_1832" style="mask-type:alpha" maskUnits="userSpaceOnUse" x="45" y="37" width="60" height="74">
<path d="M74.6837 110.595C74.875 110.695 75.0879 110.695 75.2792 110.595C78.3618 108.981 104.342 94.762 104.342 74.0481V48.8332C104.342 48.5472 104.164 48.2913 103.897 48.1909L75.2223 37.438C75.067 37.3797 74.8959 37.3797 74.7406 37.438L46.0662 48.1909C45.7985 48.2913 45.6211 48.5472 45.6211 48.8332V74.0481C45.6211 94.762 71.6011 108.981 74.6837 110.595Z" fill="#806CCF"/>
</mask>
<g mask="url(#mask0_3110_1832)">
<line x1="15.1455" y1="76.4521" x2="72.3832" y2="133.69" stroke="#C0C0C0" stroke-width="0.5"/>
<line x1="17.4619" y1="74.1416" x2="74.6996" y2="131.379" stroke="#C0C0C0" stroke-width="0.5"/>
<line x1="19.7647" y1="71.831" x2="77.0024" y2="129.069" stroke="#C0C0C0" stroke-width="0.5"/>
<line x1="22.083" y1="69.5185" x2="79.3207" y2="126.756" stroke="#C0C0C0" stroke-width="0.5"/>
<line x1="24.3916" y1="67.208" x2="81.6293" y2="124.446" stroke="#C0C0C0" stroke-width="0.5"/>
<line x1="26.6963" y1="64.8974" x2="83.934" y2="122.135" stroke="#C0C0C0" stroke-width="0.5"/>
<line x1="29.0127" y1="62.5888" x2="86.2504" y2="119.827" stroke="#C0C0C0" stroke-width="0.5"/>
<line x1="31.3154" y1="60.2783" x2="88.5532" y2="117.516" stroke="#C0C0C0" stroke-width="0.5"/>
<line x1="33.6319" y1="57.9638" x2="90.8696" y2="115.202" stroke="#C0C0C0" stroke-width="0.5"/>
<line x1="35.9502" y1="55.6553" x2="93.1879" y2="112.893" stroke="#C0C0C0" stroke-width="0.5"/>
<line x1="38.2588" y1="53.3408" x2="95.4965" y2="110.579" stroke="#C0C0C0" stroke-width="0.5"/>
<line x1="40.5635" y1="51.0342" x2="97.8012" y2="108.272" stroke="#C0C0C0" stroke-width="0.5"/>
<line x1="42.8799" y1="48.7236" x2="100.118" y2="105.961" stroke="#C0C0C0" stroke-width="0.5"/>
<line x1="45.1963" y1="46.4111" x2="102.434" y2="103.649" stroke="#C0C0C0" stroke-width="0.5"/>
<line x1="47.499" y1="44.1006" x2="104.737" y2="101.338" stroke="#C0C0C0" stroke-width="0.5"/>
<line x1="49.8174" y1="41.7881" x2="107.055" y2="99.0258" stroke="#C0C0C0" stroke-width="0.5"/>
<line x1="52.1201" y1="39.4775" x2="109.358" y2="96.7152" stroke="#C0C0C0" stroke-width="0.5"/>
<line x1="54.4307" y1="37.167" x2="111.668" y2="94.4047" stroke="#C0C0C0" stroke-width="0.5"/>
<line x1="56.7471" y1="34.8564" x2="113.985" y2="92.0941" stroke="#C0C0C0" stroke-width="0.5"/>
<line x1="59.0498" y1="32.5439" x2="116.288" y2="89.7816" stroke="#C0C0C0" stroke-width="0.5"/>
<line x1="61.3662" y1="30.2334" x2="118.604" y2="87.4711" stroke="#C0C0C0" stroke-width="0.5"/>
<line x1="63.6846" y1="27.9228" x2="120.922" y2="85.1605" stroke="#C0C0C0" stroke-width="0.5"/>
<line x1="65.9932" y1="25.6142" x2="123.231" y2="82.852" stroke="#C0C0C0" stroke-width="0.5"/>
<line x1="68.2901" y1="23.3037" x2="125.528" y2="80.5414" stroke="#C0C0C0" stroke-width="0.5"/>
<line x1="70.6065" y1="20.9892" x2="127.844" y2="78.227" stroke="#C0C0C0" stroke-width="0.5"/>
<line x1="72.917" y1="18.6806" x2="130.155" y2="75.9184" stroke="#C0C0C0" stroke-width="0.5"/>
<line x1="75.2276" y1="16.3701" x2="132.465" y2="73.6078" stroke="#C0C0C0" stroke-width="0.5"/>
<line x1="77.5381" y1="14.0596" x2="134.776" y2="71.2973" stroke="#C0C0C0" stroke-width="0.5"/>
</g>
<path d="M62.3127 61.0851V68.1805H65.1606V62.5042H70.8565V59.666H63.7366C63.359 59.666 62.9968 59.8155 62.7297 60.0817C62.4627 60.3478 62.3127 60.7087 62.3127 61.0851ZM87.9443 68.1805V61.0851C87.9443 60.7087 87.7942 60.3478 87.5272 60.0817C87.2601 59.8155 86.898 59.666 86.5203 59.666H79.4004V62.5042H85.0963V68.1805H87.9443ZM85.0963 82.3714H79.4004V85.2096H86.5203C86.898 85.2096 87.2601 85.06 87.5272 84.7939C87.7942 84.5278 87.9443 84.1668 87.9443 83.7905V76.695H85.0963V82.3714ZM70.8565 85.2096V82.3714H65.1606V76.695H62.3127V83.7905C62.3127 84.1668 62.4627 84.5278 62.7297 84.7939C62.9968 85.06 63.359 85.2096 63.7366 85.2096H70.8565ZM60.8887 71.0187H89.3682V73.8569H60.8887V71.0187Z" fill="#806CCF"/>
<path d="M22.0195 68.8437C22.1448 68.5871 22.5105 68.5871 22.6358 68.8437L23.6021 70.8214C23.6521 70.9237 23.7496 70.9945 23.8623 71.0104L26.0418 71.3183C26.3246 71.3582 26.4376 71.706 26.2323 71.9045L24.65 73.4346C24.5681 73.5137 24.5309 73.6284 24.5506 73.7405L24.9313 75.9085C24.9807 76.1897 24.6849 76.4046 24.4327 76.2708L22.4885 75.2387C22.3879 75.1853 22.2674 75.1853 22.1668 75.2387L20.2226 76.2708C19.9704 76.4046 19.6746 76.1897 19.724 75.9085L20.1047 73.7405C20.1244 73.6284 20.0872 73.5137 20.0053 73.4346L18.423 71.9045C18.2177 71.706 18.3307 71.3582 18.6134 71.3183L20.793 71.0104C20.9057 70.9945 21.0032 70.9237 21.0532 70.8214L22.0195 68.8437Z" fill="#806CCF"/>
<path d="M128.293 68.8437C128.418 68.5871 128.784 68.5871 128.909 68.8437L129.876 70.8214C129.926 70.9237 130.023 70.9945 130.136 71.0104L132.315 71.3183C132.598 71.3582 132.711 71.706 132.506 71.9045L130.923 73.4346C130.842 73.5137 130.804 73.6284 130.824 73.7405L131.205 75.9085C131.254 76.1897 130.958 76.4046 130.706 76.2708L128.762 75.2387C128.661 75.1853 128.541 75.1853 128.44 75.2387L126.496 76.2708C126.244 76.4046 125.948 76.1897 125.997 75.9085L126.378 73.7405C126.398 73.6284 126.361 73.5137 126.279 73.4346L124.696 71.9045C124.491 71.706 124.604 71.3582 124.887 71.3183L127.066 71.0104C127.179 70.9945 127.277 70.9237 127.327 70.8214L128.293 68.8437Z" fill="#806CCF"/>
</g>
<defs>
<filter id="filter0_d_3110_1832" x="0.970703" y="0.964844" width="148.012" height="147.914" filterUnits="userSpaceOnUse" color-interpolation-filters="sRGB">
<feFlood flood-opacity="0" result="BackgroundImageFix"/>
<feColorMatrix in="SourceAlpha" type="matrix" values="0 0 0 0 0 0 0 0 0 0 0 0 0 0 0 0 0 0 127 0" result="hardAlpha"/>
<feOffset dy="1"/>
<feGaussianBlur stdDeviation="2"/>
<feComposite in2="hardAlpha" operator="out"/>
<feColorMatrix type="matrix" values="0 0 0 0 0 0 0 0 0 0 0 0 0 0 0 0 0 0 0.15 0"/>
<feBlend mode="normal" in2="BackgroundImageFix" result="effect1_dropShadow_3110_1832"/>
<feBlend mode="normal" in="SourceGraphic" in2="effect1_dropShadow_3110_1832" result="shape"/>
</filter>
</defs>
</svg>
