<svg width="58" height="58" viewBox="0 0 58 58" fill="none" xmlns="http://www.w3.org/2000/svg">
<mask id="path-1-inside-1_5274_2731" fill="white">
<path fill-rule="evenodd" clip-rule="evenodd" d="M26.4961 0.0962226C26.4432 0.149022 26.3999 0.694188 26.3999 1.30744C26.3999 1.94681 25.9287 2.48839 25.2955 2.57683L25.1376 2.59888C20.5476 3.2394 15.9191 5.2794 12.1649 8.31669C8.07245 11.6274 4.96924 16.2605 3.43516 21.3507C3.27965 21.8665 2.9767 23.2297 2.76189 24.3802L2.58911 25.3058C2.46185 25.9874 1.87865 26.4894 1.18569 26.5139C0.524171 26.5373 0 27.0803 0 27.7423V28.9966V30.2507C0 30.9127 0.524301 31.4559 1.18598 31.4794L1.71283 31.4979C2.09743 31.5115 2.42044 31.7916 2.48837 32.1704C3.23045 36.309 3.91007 38.4597 5.36755 41.2828C8.58256 47.51 14.0207 52.1294 20.7202 54.3239C22.128 54.7851 24.1737 55.2524 25.7089 55.4633C26.1017 55.5173 26.3987 55.8461 26.4127 56.2424L26.4302 56.7389C26.4536 57.4014 26.992 57.9294 27.6548 57.9399L28.9605 57.9606L30.2285 57.9807C30.8994 57.9913 31.4491 57.4503 31.4491 56.7793V56.2494C31.4491 55.8543 31.7425 55.5207 32.1343 55.4702C37.1194 54.8286 41.9193 52.8109 45.6512 49.7885C50.7071 45.6939 54.1768 39.7966 55.239 33.4927C55.4039 32.514 55.5755 31.6539 55.6204 31.5812C55.6653 31.5085 56.2175 31.4491 56.8476 31.4491C57.4803 31.4491 57.9932 30.9362 57.9932 30.3035V28.9966V27.6897C57.9932 27.0571 57.4803 26.5442 56.8476 26.5442C56.2175 26.5442 55.6657 26.4853 55.6213 26.4135C55.5768 26.3416 55.4138 25.5463 55.259 24.6463C53.5743 14.8532 46.9602 7.01833 37.6523 3.7899C36.2085 3.28902 34.5772 2.90053 32.1704 2.48419C31.7921 2.41879 31.5115 2.09718 31.498 1.71355L31.4794 1.18598C31.4559 0.524301 30.9127 0 30.2507 0H29.0148C27.6824 0 26.5489 0.0432785 26.4961 0.0962226ZM26.4324 9.77373C26.4545 11.0407 27.4772 12.0618 28.7442 12.082L28.9568 12.0854L29.1662 12.0887C30.4235 12.1086 31.4595 11.1066 31.4814 9.84933L31.5111 8.15249C31.5166 7.83874 31.7854 7.59455 32.0982 7.61918C33.7128 7.74642 36.5985 8.63551 38.5247 9.59918C44.2488 12.4631 48.524 17.8234 49.9744 23.9552C50.1705 24.784 50.3508 25.6894 50.3752 25.9671C50.3991 26.2401 50.1867 26.4761 49.9127 26.4809L48.1474 26.5117C46.8861 26.5338 45.8752 27.5625 45.8752 28.824V29.0002V29.213C45.8752 30.4479 46.8764 31.4491 48.1113 31.4491H49.8064C50.1051 31.4491 50.3473 31.6913 50.3472 31.99C50.3468 33.2532 49.2412 36.8615 48.2632 38.7913C46.8024 41.674 44.2156 44.6467 41.4297 46.6443C39.8398 47.7841 37.4974 48.9506 35.5698 49.5621C33.966 50.0711 31.7716 50.5297 31.5617 50.3999C31.4997 50.3616 31.4491 49.3264 31.4491 48.0993C31.4491 46.873 30.4446 45.8844 29.2185 45.9038L28.9605 45.9078L28.7237 45.9116C27.4681 45.9315 26.4545 46.9434 26.4324 48.199L26.4152 49.1759C26.4034 49.8488 25.7986 50.3554 25.134 50.2491C23.5564 49.9967 20.8983 49.1155 19.3149 48.32C14.3996 45.8506 10.5641 41.5485 8.66523 36.375C8.22003 35.1619 7.6916 33.0003 7.61976 32.0982C7.59482 31.7855 7.83886 31.5166 8.15253 31.5111L9.84586 31.4815C11.1071 31.4594 12.118 30.4307 12.118 29.1692V28.9966V28.824C12.118 27.5625 11.1071 26.5338 9.84586 26.5117L8.15243 26.4821C7.83859 26.4767 7.59421 26.2079 7.61846 25.895C7.69434 24.9137 8.33429 22.4347 8.86921 21.05C10.872 15.8639 15.2238 11.3658 20.4184 9.11258C21.9178 8.46211 24.6561 7.71671 26.2881 7.51459C26.3455 7.50738 26.4104 8.52399 26.4324 9.77373ZM27.0101 17.1022C26.0912 17.3496 25.5444 17.6188 24.6067 18.2853C24.1687 18.5967 23.5951 18.6423 23.1133 18.4041L22.1951 17.9502C21.26 17.4877 20.4676 17.1386 20.4342 17.1744C20.2956 17.3228 18.3212 21.359 18.3212 21.4938C18.3212 21.5748 19.0698 22.0135 19.9846 22.4689L20.2263 22.5892C21.0936 23.0209 21.6323 23.916 21.6075 24.8844C21.5849 25.7719 20.8669 26.4839 19.9792 26.4989L19.2229 26.5117C17.9218 26.5337 16.8786 27.5947 16.8786 28.896V28.9966V29.0973C16.8786 30.3985 17.9218 31.4595 19.2229 31.4815L19.9792 31.4943C20.8669 31.5093 21.5849 32.2213 21.6075 33.1088C21.6323 34.0773 21.0936 34.9723 20.2263 35.404L19.9846 35.5243C19.0698 35.9797 18.3212 36.4184 18.3212 36.4994C18.3212 36.6343 20.2956 40.6704 20.4342 40.8189C20.4676 40.8546 21.2554 40.5081 22.1851 40.0491L22.8183 39.7364C23.4721 39.4134 24.2487 39.465 24.854 39.8716C27.3905 41.5754 30.6399 41.5729 33.1342 39.8651C33.731 39.4566 34.5018 39.4022 35.1501 39.7227L35.7994 40.0437C36.7338 40.5058 37.5231 40.8546 37.5532 40.8189C37.8186 40.5045 39.6531 36.4216 39.5674 36.3359C39.5059 36.2745 38.7415 35.8739 37.8687 35.4457L37.6956 35.3608C36.8371 34.9396 36.3102 34.0494 36.354 33.0942C36.3945 32.2098 37.1153 31.5092 38.0005 31.4937L38.6982 31.4815C39.9595 31.4594 40.9703 30.4307 40.9703 29.1692V28.9966V28.824C40.9703 27.5625 39.9595 26.5338 38.6982 26.5117L37.9956 26.4994C37.1132 26.484 36.3945 25.7856 36.354 24.9039C36.3101 23.9502 36.8319 23.0601 37.6854 22.6324L37.985 22.4823C39.5351 21.7056 39.6791 21.6002 39.5869 21.3095C39.4531 20.8882 37.6972 17.4428 37.5319 17.2775C37.4567 17.2023 36.7084 17.4949 35.7286 17.9827L34.5126 18.588C34.2328 18.7273 33.8976 18.6918 33.6531 18.497C33.0507 18.0167 31.7631 17.3729 30.8818 17.1112C29.9218 16.8263 28.0517 16.8219 27.0101 17.1022ZM30.0062 22.144C30.2361 22.2629 30.6061 22.5986 30.8284 22.89C31.0908 23.2338 31.2346 23.6534 31.2383 24.0858L31.2772 28.6967C31.3054 32.0364 31.2671 34.1605 31.1728 34.4826C31.0909 34.7626 30.8028 35.2059 30.5326 35.4679C29.4183 36.5478 27.6734 36.2765 26.9788 34.9149C26.7033 34.3748 26.6884 34.0725 26.6884 28.9966C26.6884 23.9723 26.7056 23.6139 26.9706 23.0943C27.3548 22.3412 28.0295 21.9333 28.8956 21.9302C29.2763 21.9289 29.7762 22.0252 30.0062 22.144Z"/>
</mask>
<path fill-rule="evenodd" clip-rule="evenodd" d="M26.4961 0.0962226C26.4432 0.149022 26.3999 0.694188 26.3999 1.30744C26.3999 1.94681 25.9287 2.48839 25.2955 2.57683L25.1376 2.59888C20.5476 3.2394 15.9191 5.2794 12.1649 8.31669C8.07245 11.6274 4.96924 16.2605 3.43516 21.3507C3.27965 21.8665 2.9767 23.2297 2.76189 24.3802L2.58911 25.3058C2.46185 25.9874 1.87865 26.4894 1.18569 26.5139C0.524171 26.5373 0 27.0803 0 27.7423V28.9966V30.2507C0 30.9127 0.524301 31.4559 1.18598 31.4794L1.71283 31.4979C2.09743 31.5115 2.42044 31.7916 2.48837 32.1704C3.23045 36.309 3.91007 38.4597 5.36755 41.2828C8.58256 47.51 14.0207 52.1294 20.7202 54.3239C22.128 54.7851 24.1737 55.2524 25.7089 55.4633C26.1017 55.5173 26.3987 55.8461 26.4127 56.2424L26.4302 56.7389C26.4536 57.4014 26.992 57.9294 27.6548 57.9399L28.9605 57.9606L30.2285 57.9807C30.8994 57.9913 31.4491 57.4503 31.4491 56.7793V56.2494C31.4491 55.8543 31.7425 55.5207 32.1343 55.4702C37.1194 54.8286 41.9193 52.8109 45.6512 49.7885C50.7071 45.6939 54.1768 39.7966 55.239 33.4927C55.4039 32.514 55.5755 31.6539 55.6204 31.5812C55.6653 31.5085 56.2175 31.4491 56.8476 31.4491C57.4803 31.4491 57.9932 30.9362 57.9932 30.3035V28.9966V27.6897C57.9932 27.0571 57.4803 26.5442 56.8476 26.5442C56.2175 26.5442 55.6657 26.4853 55.6213 26.4135C55.5768 26.3416 55.4138 25.5463 55.259 24.6463C53.5743 14.8532 46.9602 7.01833 37.6523 3.7899C36.2085 3.28902 34.5772 2.90053 32.1704 2.48419C31.7921 2.41879 31.5115 2.09718 31.498 1.71355L31.4794 1.18598C31.4559 0.524301 30.9127 0 30.2507 0H29.0148C27.6824 0 26.5489 0.0432785 26.4961 0.0962226ZM26.4324 9.77373C26.4545 11.0407 27.4772 12.0618 28.7442 12.082L28.9568 12.0854L29.1662 12.0887C30.4235 12.1086 31.4595 11.1066 31.4814 9.84933L31.5111 8.15249C31.5166 7.83874 31.7854 7.59455 32.0982 7.61918C33.7128 7.74642 36.5985 8.63551 38.5247 9.59918C44.2488 12.4631 48.524 17.8234 49.9744 23.9552C50.1705 24.784 50.3508 25.6894 50.3752 25.9671C50.3991 26.2401 50.1867 26.4761 49.9127 26.4809L48.1474 26.5117C46.8861 26.5338 45.8752 27.5625 45.8752 28.824V29.0002V29.213C45.8752 30.4479 46.8764 31.4491 48.1113 31.4491H49.8064C50.1051 31.4491 50.3473 31.6913 50.3472 31.99C50.3468 33.2532 49.2412 36.8615 48.2632 38.7913C46.8024 41.674 44.2156 44.6467 41.4297 46.6443C39.8398 47.7841 37.4974 48.9506 35.5698 49.5621C33.966 50.0711 31.7716 50.5297 31.5617 50.3999C31.4997 50.3616 31.4491 49.3264 31.4491 48.0993C31.4491 46.873 30.4446 45.8844 29.2185 45.9038L28.9605 45.9078L28.7237 45.9116C27.4681 45.9315 26.4545 46.9434 26.4324 48.199L26.4152 49.1759C26.4034 49.8488 25.7986 50.3554 25.134 50.2491C23.5564 49.9967 20.8983 49.1155 19.3149 48.32C14.3996 45.8506 10.5641 41.5485 8.66523 36.375C8.22003 35.1619 7.6916 33.0003 7.61976 32.0982C7.59482 31.7855 7.83886 31.5166 8.15253 31.5111L9.84586 31.4815C11.1071 31.4594 12.118 30.4307 12.118 29.1692V28.9966V28.824C12.118 27.5625 11.1071 26.5338 9.84586 26.5117L8.15243 26.4821C7.83859 26.4767 7.59421 26.2079 7.61846 25.895C7.69434 24.9137 8.33429 22.4347 8.86921 21.05C10.872 15.8639 15.2238 11.3658 20.4184 9.11258C21.9178 8.46211 24.6561 7.71671 26.2881 7.51459C26.3455 7.50738 26.4104 8.52399 26.4324 9.77373ZM27.0101 17.1022C26.0912 17.3496 25.5444 17.6188 24.6067 18.2853C24.1687 18.5967 23.5951 18.6423 23.1133 18.4041L22.1951 17.9502C21.26 17.4877 20.4676 17.1386 20.4342 17.1744C20.2956 17.3228 18.3212 21.359 18.3212 21.4938C18.3212 21.5748 19.0698 22.0135 19.9846 22.4689L20.2263 22.5892C21.0936 23.0209 21.6323 23.916 21.6075 24.8844C21.5849 25.7719 20.8669 26.4839 19.9792 26.4989L19.2229 26.5117C17.9218 26.5337 16.8786 27.5947 16.8786 28.896V28.9966V29.0973C16.8786 30.3985 17.9218 31.4595 19.2229 31.4815L19.9792 31.4943C20.8669 31.5093 21.5849 32.2213 21.6075 33.1088C21.6323 34.0773 21.0936 34.9723 20.2263 35.404L19.9846 35.5243C19.0698 35.9797 18.3212 36.4184 18.3212 36.4994C18.3212 36.6343 20.2956 40.6704 20.4342 40.8189C20.4676 40.8546 21.2554 40.5081 22.1851 40.0491L22.8183 39.7364C23.4721 39.4134 24.2487 39.465 24.854 39.8716C27.3905 41.5754 30.6399 41.5729 33.1342 39.8651C33.731 39.4566 34.5018 39.4022 35.1501 39.7227L35.7994 40.0437C36.7338 40.5058 37.5231 40.8546 37.5532 40.8189C37.8186 40.5045 39.6531 36.4216 39.5674 36.3359C39.5059 36.2745 38.7415 35.8739 37.8687 35.4457L37.6956 35.3608C36.8371 34.9396 36.3102 34.0494 36.354 33.0942C36.3945 32.2098 37.1153 31.5092 38.0005 31.4937L38.6982 31.4815C39.9595 31.4594 40.9703 30.4307 40.9703 29.1692V28.9966V28.824C40.9703 27.5625 39.9595 26.5338 38.6982 26.5117L37.9956 26.4994C37.1132 26.484 36.3945 25.7856 36.354 24.9039C36.3101 23.9502 36.8319 23.0601 37.6854 22.6324L37.985 22.4823C39.5351 21.7056 39.6791 21.6002 39.5869 21.3095C39.4531 20.8882 37.6972 17.4428 37.5319 17.2775C37.4567 17.2023 36.7084 17.4949 35.7286 17.9827L34.5126 18.588C34.2328 18.7273 33.8976 18.6918 33.6531 18.497C33.0507 18.0167 31.7631 17.3729 30.8818 17.1112C29.9218 16.8263 28.0517 16.8219 27.0101 17.1022ZM30.0062 22.144C30.2361 22.2629 30.6061 22.5986 30.8284 22.89C31.0908 23.2338 31.2346 23.6534 31.2383 24.0858L31.2772 28.6967C31.3054 32.0364 31.2671 34.1605 31.1728 34.4826C31.0909 34.7626 30.8028 35.2059 30.5326 35.4679C29.4183 36.5478 27.6734 36.2765 26.9788 34.9149C26.7033 34.3748 26.6884 34.0725 26.6884 28.9966C26.6884 23.9723 26.7056 23.6139 26.9706 23.0943C27.3548 22.3412 28.0295 21.9333 28.8956 21.9302C29.2763 21.9289 29.7762 22.0252 30.0062 22.144Z" fill="url(#paint0_linear_5274_2731)" stroke="white" mask="url(#path-1-inside-1_5274_2731)"/>
<defs>
<linearGradient id="paint0_linear_5274_2731" x1="5.5922" y1="4.14286" x2="59.6203" y2="48.1757" gradientUnits="userSpaceOnUse">
<stop stop-color="#52FF00"/>
<stop offset="1" stop-color="#00EEFD"/>
</linearGradient>
</defs>
</svg>
