<svg width="23" height="27" viewBox="0 0 23 27" fill="none" xmlns="http://www.w3.org/2000/svg">
<path d="M11.3867 21.7734C17.1233 21.7734 21.7734 17.1233 21.7734 11.3867C21.7734 5.65013 17.1233 1 11.3867 1C5.65013 1 1 5.65013 1 11.3867C1 17.1233 5.65013 21.7734 11.3867 21.7734Z" stroke="#323B4B" stroke-width="2" stroke-linecap="round" stroke-linejoin="round"/>
<g filter="url(#filter0_d_2470_1433)">
<path d="M6.00013 11.7008C5.98917 13.3496 6.66904 14.9585 7.86346 16.0962C8.91617 17.0988 10.309 17.6799 11.7589 17.7464C12.4452 17.7779 13.1477 17.6829 13.8026 17.4766C14.5159 17.2521 15.1629 16.8944 15.75 16.4351C16.8651 15.5627 17.6467 14.2545 17.9001 12.8629C18.1569 11.4528 17.9168 9.98529 17.1993 8.74112C16.4634 7.46491 15.2539 6.5008 13.8589 6.03943C12.5516 5.60701 11.071 5.65259 9.79432 6.16885C9.03232 6.47701 8.34169 6.92302 7.75824 7.50426C7.5663 7.6955 7.5669 8.01625 7.75824 8.20768C7.95008 8.39953 8.26963 8.39892 8.46166 8.20768C8.62864 8.04132 8.80537 7.88552 8.99153 7.74096C8.95793 7.76684 8.92443 7.79283 8.89083 7.81871C9.26367 7.53145 9.6712 7.29272 10.1043 7.10828C10.0647 7.12503 10.0251 7.14167 9.98546 7.15842C10.4393 6.96718 10.9166 6.83727 11.4046 6.77137C11.3605 6.77726 11.3165 6.78325 11.2723 6.78913C11.7572 6.72549 12.2483 6.72549 12.7332 6.78913C12.6891 6.78325 12.6451 6.77726 12.6009 6.77137C13.089 6.83725 13.5662 6.96707 14.0201 7.15842C13.9805 7.14167 13.9409 7.12502 13.9013 7.10828C14.3344 7.29261 14.742 7.53145 15.1148 7.81871C15.0812 7.79283 15.0477 7.76684 15.0141 7.74096C15.3866 8.03015 15.7215 8.36502 16.0107 8.73755C15.9848 8.70395 15.9588 8.67045 15.9329 8.63685C16.2202 9.00969 16.4589 9.41722 16.6434 9.85034C16.6266 9.81075 16.61 9.77116 16.5932 9.73148C16.7845 10.1853 16.9144 10.6626 16.9803 11.1506C16.9744 11.1066 16.9684 11.0625 16.9625 11.0184C17.0262 11.5032 17.0262 11.9943 16.9625 12.4792C16.9684 12.4352 16.9744 12.3911 16.9803 12.347C16.9144 12.835 16.7846 13.3123 16.5932 13.7661C16.61 13.7265 16.6266 13.6869 16.6434 13.6472C16.459 14.0803 16.2202 14.4879 15.9329 14.8607C15.9588 14.8271 15.9848 14.7936 16.0107 14.76C15.7215 15.1325 15.3865 15.4674 15.0141 15.7566C15.0477 15.7306 15.0812 15.7047 15.1148 15.6789C14.742 15.9661 14.3344 16.2049 13.9013 16.3893C13.9409 16.3725 13.9805 16.3559 14.0201 16.3391C13.5662 16.5304 13.089 16.6603 12.6009 16.7262C12.645 16.7203 12.689 16.7143 12.7332 16.7084C12.2483 16.7721 11.7572 16.7721 11.2723 16.7084C11.3164 16.7143 11.3604 16.7203 11.4046 16.7262C10.9166 16.6603 10.4393 16.5305 9.98546 16.3391C10.025 16.3559 10.0646 16.3725 10.1043 16.3893C9.6712 16.205 9.26364 15.9661 8.89083 15.6789C8.92443 15.7047 8.95793 15.7307 8.99153 15.7566C8.61586 15.465 8.27865 15.1269 7.98774 14.7507C8.01363 14.7843 8.03961 14.8178 8.0655 14.8514C7.77794 14.4763 7.5394 14.0667 7.35558 13.6312C7.37233 13.6708 7.38897 13.7104 7.40572 13.75C7.21916 13.3029 7.09187 12.8338 7.02639 12.3538C7.03228 12.3979 7.03827 12.4419 7.04415 12.4861C7.00964 12.2255 6.9933 11.9633 6.99503 11.7004C6.99685 11.4292 6.76745 11.203 6.49764 11.203C6.22521 11.2033 6.0021 11.4296 6.00026 11.7006L6.00013 11.7008Z" fill="#323B4B" stroke="#323B4B"/>
<path d="M8.17212 5.36418C8.01164 6.0545 7.85107 6.74496 7.69048 7.43538C7.66805 7.53191 7.64562 7.62834 7.62319 7.72489C7.56381 7.98047 7.69891 8.27351 7.97053 8.33676C8.66086 8.49734 9.35131 8.65781 10.0417 8.8184C10.1383 8.84083 10.2347 8.86326 10.3312 8.88569C10.595 8.947 10.869 8.80733 10.9431 8.53835C11.0127 8.28509 10.8598 7.98788 10.5958 7.92647C9.90545 7.76599 9.21499 7.60543 8.52456 7.44484C8.42803 7.4224 8.3316 7.39997 8.23506 7.37754C8.35088 7.58147 8.4667 7.78538 8.58241 7.98942C8.74289 7.29909 8.90345 6.60864 9.06404 5.91821C9.08648 5.82168 9.10891 5.72525 9.13134 5.62871C9.19265 5.3649 9.05298 5.09094 8.78399 5.01683C8.53064 4.9471 8.23342 5.10007 8.17212 5.36418V5.36418Z" fill="#323B4B" stroke="#323B4B"/>
</g>
<defs>
<filter id="filter0_d_2470_1433" x="1.5" y="4.50073" width="21" height="21.7516" filterUnits="userSpaceOnUse" color-interpolation-filters="sRGB">
<feFlood flood-opacity="0" result="BackgroundImageFix"/>
<feColorMatrix in="SourceAlpha" type="matrix" values="0 0 0 0 0 0 0 0 0 0 0 0 0 0 0 0 0 0 127 0" result="hardAlpha"/>
<feOffset dy="4"/>
<feGaussianBlur stdDeviation="2"/>
<feComposite in2="hardAlpha" operator="out"/>
<feColorMatrix type="matrix" values="0 0 0 0 0 0 0 0 0 0 0 0 0 0 0 0 0 0 0.25 0"/>
<feBlend mode="normal" in2="BackgroundImageFix" result="effect1_dropShadow_2470_1433"/>
<feBlend mode="normal" in="SourceGraphic" in2="effect1_dropShadow_2470_1433" result="shape"/>
</filter>
</defs>
</svg>
