<svg width="24" height="22" viewBox="0 0 24 22" fill="none" xmlns="http://www.w3.org/2000/svg">
<path d="M12.3867 21.7734C18.1233 21.7734 22.7734 17.1233 22.7734 11.3867C22.7734 5.65013 18.1233 1 12.3867 1C6.65013 1 2 5.65013 2 11.3867C2 17.1233 6.65013 21.7734 12.3867 21.7734Z" stroke="#323B4B" stroke-width="2" stroke-linecap="round" stroke-linejoin="round"/>
<g filter="url(#filter0_d_2469_1412)">
<path d="M17.0287 14.6239L17.4402 14.9079L17.4402 14.9079L17.0287 14.6239ZM18.0013 11.5825L17.5014 11.575L17.5014 11.575L18.0013 11.5825ZM14.6826 6.45083L14.8809 5.99181L14.8809 5.99181L14.6826 6.45083ZM11.5099 6.09022L11.6001 6.58202L11.5099 6.09022ZM7.38959 13.5283L10.4313 8.62108L4.66064 8.4405L7.38959 13.5283ZM14.7146 17.0771C15.8177 16.6395 16.7662 15.8846 17.4402 14.9079L16.6171 14.3399C16.0555 15.1538 15.265 15.7829 14.3458 16.1476L14.7146 17.0771ZM17.4402 14.9079C18.1142 13.9312 18.4834 12.7766 18.5012 11.59L17.5014 11.575C17.4865 12.5638 17.1788 13.526 16.6171 14.3399L17.4402 14.9079ZM18.5012 11.59C18.519 10.4035 18.1846 9.23827 17.5402 8.2418L16.7005 8.78484C17.2375 9.61523 17.5162 10.5862 17.5014 11.575L18.5012 11.59ZM17.5402 8.2418C16.8958 7.24533 15.9703 6.46232 14.8809 5.99181L14.4844 6.90984C15.3923 7.30194 16.1634 7.95444 16.7005 8.78484L17.5402 8.2418ZM14.8809 5.99181C13.7915 5.52129 12.587 5.38439 11.4198 5.59842L11.6001 6.58202C12.5728 6.40366 13.5765 6.51775 14.4844 6.90984L14.8809 5.99181ZM11.4198 5.59842C10.2525 5.81245 9.17499 6.3678 8.32339 7.19424L9.01981 7.91187C9.72948 7.22317 10.6274 6.76038 11.6001 6.58202L11.4198 5.59842ZM8.32339 7.19424C7.89148 7.61338 7.61561 8.01218 7.42001 8.4626C7.23056 8.89886 7.12415 9.36831 7.01113 9.89511L7.98887 10.1049C8.10404 9.5681 8.19311 9.19286 8.33726 8.86093C8.47524 8.54317 8.67108 8.25029 9.01981 7.91187L8.32339 7.19424Z" fill="#323B4B"/>
</g>
<defs>
<filter id="filter0_d_2469_1412" x="0.664062" y="5.5" width="21.8359" height="19.5771" filterUnits="userSpaceOnUse" color-interpolation-filters="sRGB">
<feFlood flood-opacity="0" result="BackgroundImageFix"/>
<feColorMatrix in="SourceAlpha" type="matrix" values="0 0 0 0 0 0 0 0 0 0 0 0 0 0 0 0 0 0 127 0" result="hardAlpha"/>
<feOffset dy="4"/>
<feGaussianBlur stdDeviation="2"/>
<feComposite in2="hardAlpha" operator="out"/>
<feColorMatrix type="matrix" values="0 0 0 0 0 0 0 0 0 0 0 0 0 0 0 0 0 0 0.25 0"/>
<feBlend mode="normal" in2="BackgroundImageFix" result="effect1_dropShadow_2469_1412"/>
<feBlend mode="normal" in="SourceGraphic" in2="effect1_dropShadow_2469_1412" result="shape"/>
</filter>
</defs>
</svg>
