<svg width="179" height="179" viewBox="0 0 179 179" fill="none" xmlns="http://www.w3.org/2000/svg">
<circle cx="89.5" cy="89.5" r="89.5" fill="#F4F8FF"/>
<path opacity="0.3" d="M61.3719 125.599C60.4023 125.599 59.4326 125.211 58.6569 124.436L50.8999 116.679C49.3485 115.127 49.3485 112.8 50.8999 111.249C52.4513 109.697 54.9723 109.697 56.3298 111.249L61.3719 116.291L74.171 103.492C75.7225 101.94 78.0496 101.94 79.601 103.492C81.1524 105.043 81.1524 107.37 79.601 108.922L64.0869 124.436C63.3112 125.211 62.3415 125.599 61.3719 125.599Z" fill="#3300FF"/>
<path fill-rule="evenodd" clip-rule="evenodd" d="M94.1744 114.47C93.1331 98.6501 79.971 86.1404 63.8871 86.1404C61.8081 86.1404 59.7779 86.3494 57.8164 86.7476V69.9517C57.8164 65.4814 61.4404 61.8574 65.9107 61.8574H122.571C127.041 61.8574 130.665 65.4814 130.665 69.9517V106.376C130.665 110.847 127.041 114.47 122.571 114.47H94.1744ZM119.108 69.3028L94.2408 82.6929L69.3734 69.3028C67.8974 68.508 66.0565 69.0602 65.2617 70.5362C64.467 72.0123 65.0192 73.8531 66.4952 74.6479L92.8018 88.8129C93.7002 89.2967 94.7815 89.2967 95.6799 88.8129L121.986 74.6479C123.462 73.8531 124.015 72.0123 123.22 70.5362C122.425 69.0602 120.584 68.508 119.108 69.3028Z" fill="#3300FF"/>
</svg>
