<svg width="32" height="32" viewBox="0 0 32 32" fill="none" xmlns="http://www.w3.org/2000/svg">
<path d="M15.1296 28.8538C15.6741 29.1696 16.3272 29.1696 16.8717 28.8538C19.4176 27.3775 26.6673 22.5947 26.6673 15.9993V8.05201C26.6673 7.21833 26.1502 6.47209 25.3696 6.17936L16.7029 2.92936C16.2501 2.75957 15.7512 2.75957 15.2984 2.92936L6.63174 6.17936C5.85113 6.47209 5.33398 7.21833 5.33398 8.05202V15.9993C5.33398 22.5947 12.5837 27.3775 15.1296 28.8538Z" fill="#FFDBD3"/>
<rect x="12.4961" y="8.96094" width="13.8947" height="3.17477" transform="rotate(48.0154 12.4961 8.96094)" fill="#FF5630"/>
<rect x="22" y="11.3984" width="13.8947" height="3.17477" transform="rotate(135 22 11.3984)" fill="#FF5630"/>
</svg>
