<svg width="25" height="23" viewBox="0 0 25 23" fill="none" xmlns="http://www.w3.org/2000/svg">
<path d="M22 11.5C22 9.24536 21.2743 7.0506 19.9302 5.24041C18.586 3.43022 16.695 2.10076 14.5367 1.4487C12.3784 0.796643 10.0675 0.856626 7.94596 1.61978C5.82441 2.38293 4.00484 3.80871 2.75645 5.68619C1.50807 7.56367 0.897171 9.79313 1.01414 12.0447C1.13111 14.2963 1.96973 16.4505 3.40594 18.1885C4.84215 19.9265 6.79965 21.1561 8.98887 21.6953C11.1781 22.2345 13.4827 22.0547 15.5618 21.1825" stroke="#323B4B" stroke-width="2"/>
<path d="M8.27344 11.3859L10.3508 13.4633L14.5055 9.30859" stroke="#323B4B" stroke-width="2" stroke-linecap="round" stroke-linejoin="round"/>
<path d="M24 14L18 20" stroke="#323B4B" stroke-width="2" stroke-linecap="round" stroke-linejoin="round"/>
<path d="M18 14L24 20" stroke="#323B4B" stroke-width="2" stroke-linecap="round" stroke-linejoin="round"/>
</svg>
