<svg width="21" height="23" viewBox="0 0 21 23" fill="none" xmlns="http://www.w3.org/2000/svg">
<path d="M9.52832 17.5186C13.9411 17.5186 17.5181 13.9415 17.5181 9.52881C17.5181 5.11607 13.9411 1.53906 9.52832 1.53906C5.11558 1.53906 1.53857 5.11607 1.53857 9.52881C1.53857 13.9415 5.11558 17.5186 9.52832 17.5186Z" stroke="#3300FF" stroke-width="2" stroke-linecap="round" stroke-linejoin="round"/>
<path d="M7.1333 9.52861L8.73125 11.1266L11.9271 7.93066" stroke="#3300FF" stroke-width="2" stroke-linecap="round" stroke-linejoin="round"/>
<path d="M14.7644 21.6831C17.523 21.6831 19.7593 19.4468 19.7593 16.6882C19.7593 13.9296 17.523 11.6934 14.7644 11.6934C12.0058 11.6934 9.76953 13.9296 9.76953 16.6882C9.76953 19.4468 12.0058 21.6831 14.7644 21.6831Z" fill="white" stroke="white" stroke-width="2" stroke-linecap="round" stroke-linejoin="round"/>
<path d="M17.2179 14.6006L12.6025 19.216" stroke="#3300FF" stroke-width="2" stroke-linecap="round" stroke-linejoin="round"/>
<path d="M12.6025 14.6006L17.2179 19.216" stroke="#3300FF" stroke-width="2" stroke-linecap="round" stroke-linejoin="round"/>
</svg>
