<svg width="25" height="25" viewBox="0 0 25 25" fill="none" xmlns="http://www.w3.org/2000/svg">
<path d="M12.5 24C18.8514 24 24 18.8514 24 12.5C24 6.14855 18.8514 1 12.5 1C6.14855 1 1 6.14855 1 12.5C1 18.8514 6.14855 24 12.5 24Z" stroke="#323B4B" stroke-width="2" stroke-linecap="round" stroke-linejoin="round"/>
<path d="M5.85171 12.8594C5.83957 14.6849 6.59232 16.4663 7.91475 17.7259C9.0803 18.836 10.6224 19.4794 12.2277 19.553C12.9876 19.5879 13.7654 19.4827 14.4905 19.2543C15.2802 19.0057 15.9965 18.6097 16.6466 18.1011C17.8812 17.1352 18.7466 15.6868 19.0272 14.1461C19.3115 12.5848 19.0456 10.96 18.2513 9.58248C17.4365 8.16948 16.0973 7.10204 14.5528 6.59122C13.1053 6.11245 11.4661 6.16291 10.0526 6.73451C9.2089 7.0757 8.44424 7.56951 7.79826 8.21305C7.58574 8.42478 7.58641 8.77992 7.79826 8.99187C8.01067 9.20427 8.36446 9.2036 8.57708 8.99187C8.76195 8.80767 8.95762 8.63517 9.16373 8.47512C9.12653 8.50378 9.08945 8.53255 9.05225 8.56121C9.46505 8.24315 9.91626 7.97884 10.3958 7.77462C10.352 7.79317 10.3081 7.8116 10.2642 7.83014C10.7667 7.61841 11.2951 7.47457 11.8354 7.40161C11.7867 7.40812 11.7379 7.41476 11.689 7.42127C12.2259 7.35081 12.7696 7.35081 13.3065 7.42127C13.2577 7.41476 13.2089 7.40812 13.16 7.40161C13.7004 7.47455 14.2288 7.61828 14.7313 7.83014C14.6874 7.8116 14.6436 7.79317 14.5998 7.77462C15.0793 7.97872 15.5306 8.24315 15.9433 8.56121C15.9061 8.53255 15.869 8.50378 15.8318 8.47512C16.2443 8.79531 16.6151 9.16607 16.9352 9.57853C16.9066 9.54133 16.8778 9.50424 16.8492 9.46704C17.1672 9.87984 17.4315 10.331 17.6357 10.8106C17.6172 10.7668 17.5988 10.7229 17.5802 10.679C17.792 11.1815 17.9358 11.7099 18.0088 12.2502C18.0022 12.2015 17.9956 12.1527 17.9891 12.1038C18.0596 12.6407 18.0596 13.1844 17.9891 13.7212C17.9956 13.6725 18.0022 13.6237 18.0088 13.5748C17.9358 14.1151 17.7921 14.6436 17.5802 15.146C17.5988 15.1022 17.6172 15.0584 17.6357 15.0144C17.4316 15.494 17.1672 15.9452 16.8492 16.358C16.8778 16.3208 16.9066 16.2837 16.9352 16.2465C16.6151 16.659 16.2442 17.0297 15.8318 17.3499C15.869 17.3211 15.9061 17.2925 15.9433 17.2638C15.5305 17.5819 15.0793 17.8463 14.5998 18.0504C14.6436 18.0319 14.6874 18.0134 14.7313 17.9949C14.2288 18.2066 13.7004 18.3505 13.16 18.4234C13.2088 18.4169 13.2576 18.4103 13.3065 18.4038C12.7696 18.4742 12.2259 18.4742 11.689 18.4038C11.7378 18.4103 11.7866 18.4169 11.8354 18.4234C11.2951 18.3505 10.7667 18.2068 10.2642 17.9949C10.308 18.0134 10.3519 18.0319 10.3958 18.0504C9.91626 17.8463 9.46502 17.5819 9.05225 17.2638C9.08945 17.2925 9.12653 17.3213 9.16373 17.3499C8.7478 17.027 8.37445 16.6527 8.05236 16.2362C8.08102 16.2734 8.10979 16.3105 8.13845 16.3477C7.82007 15.9324 7.55596 15.4788 7.35244 14.9967C7.37098 15.0405 7.38941 15.0844 7.40796 15.1282C7.20139 14.6332 7.06047 14.1138 6.98797 13.5824C6.99448 13.6312 7.00111 13.68 7.00763 13.7289C6.96942 13.4404 6.95133 13.15 6.95324 12.8589C6.95526 12.5587 6.70127 12.3082 6.40254 12.3082C6.10091 12.3086 5.85389 12.5592 5.85185 12.8592L5.85171 12.8594Z" fill="#323B4B" stroke="#323B4B"/>
<path d="M8.25587 5.84364C8.07819 6.60796 7.90042 7.37242 7.72261 8.13685C7.69778 8.24373 7.67294 8.35049 7.6481 8.45738C7.58236 8.74036 7.73194 9.06481 8.03268 9.13484C8.797 9.31263 9.56146 9.4903 10.3259 9.6681C10.4328 9.69294 10.5395 9.71777 10.6464 9.74261C10.9385 9.81049 11.2418 9.65585 11.3239 9.35803C11.401 9.07764 11.2316 8.74856 10.9393 8.68058C10.175 8.5029 9.41053 8.32512 8.64609 8.14732C8.53922 8.12248 8.43245 8.09764 8.32556 8.07281C8.45379 8.29859 8.58203 8.52436 8.71014 8.75026C8.88782 7.98595 9.0656 7.22149 9.2434 6.45706C9.26824 6.35018 9.29307 6.24341 9.31791 6.13652C9.38579 5.84445 9.23115 5.54112 8.93333 5.45907C8.65282 5.38186 8.32374 5.55122 8.25587 5.84364Z" fill="#323B4B" stroke="#323B4B"/>
</svg>
