<svg width="32" height="32" viewBox="0 0 32 32" fill="none" xmlns="http://www.w3.org/2000/svg">
<path d="M15.1296 28.8538C15.6741 29.1696 16.3272 29.1696 16.8717 28.8538C19.4176 27.3775 26.6673 22.5947 26.6673 15.9993V8.05201C26.6673 7.21833 26.1502 6.47209 25.3696 6.17936L16.7029 2.92936C16.2501 2.75957 15.7512 2.75957 15.2984 2.92936L6.63174 6.17936C5.85113 6.47209 5.33398 7.21833 5.33398 8.05202V15.9993C5.33398 22.5947 12.5837 27.3775 15.1296 28.8538Z" fill="#B5EDD7"/>
<path d="M9.33594 12.1707L12.1794 9.77713L19.3051 17.605L16.4617 19.9986L9.33594 12.1707Z" fill="white"/>
<path d="M9.33594 12.1707L12.1794 9.77713L19.3051 17.605L16.4617 19.9986L9.33594 12.1707Z" fill="url(#paint0_linear_3074_2132)"/>
<path d="M9.33594 12.1707L12.1794 9.77713L19.3051 17.605L16.4617 19.9986L9.33594 12.1707Z" fill="black" fill-opacity="0.2"/>
<path d="M28.1852 5.33203L30.6693 8.07063L16.4486 19.9987L13.9646 17.2601L28.1852 5.33203Z" fill="white"/>
<path d="M28.1852 5.33203L30.6693 8.07063L16.4486 19.9987L13.9646 17.2601L28.1852 5.33203Z" fill="url(#paint1_linear_3074_2132)"/>
<path d="M28.1852 5.33203L30.6693 8.07063L16.4486 19.9987L13.9646 17.2601L28.1852 5.33203Z" fill="black" fill-opacity="0.2"/>
<defs>
<linearGradient id="paint0_linear_3074_2132" x1="20.0026" y1="5.33203" x2="20.0026" y2="19.9987" gradientUnits="userSpaceOnUse">
<stop stop-color="#98FDAC"/>
<stop offset="1" stop-color="#04B79C"/>
</linearGradient>
<linearGradient id="paint1_linear_3074_2132" x1="20.0026" y1="5.33203" x2="20.0026" y2="19.9987" gradientUnits="userSpaceOnUse">
<stop stop-color="#98FDAC"/>
<stop offset="1" stop-color="#04B79C"/>
</linearGradient>
</defs>
</svg>
