<svg width="34" height="33" viewBox="0 0 34 33" fill="none" xmlns="http://www.w3.org/2000/svg">
<circle cx="16.5" cy="16.5" r="16.5" fill="white"/>
<path d="M6.90831 15.6879C6.90834 15.504 6.9447 15.322 7.01528 15.1522C7.08587 14.9824 7.1893 14.8283 7.31963 14.6986C7.44996 14.5689 7.60463 14.4662 7.77475 14.3964C7.94488 14.3266 8.12711 14.2912 8.31098 14.292L10.6364 14.2996C11.0072 14.2996 11.3628 14.4469 11.625 14.7091C11.8872 14.9713 12.0345 15.3269 12.0345 15.6977V24.4915C12.2964 24.4139 12.6316 24.3311 13.0005 24.2442C13.256 24.1841 13.4838 24.0394 13.6468 23.8337C13.8098 23.6279 13.8985 23.3731 13.8986 23.1105V12.2032C13.8986 11.8324 14.0459 11.4768 14.308 11.2146C14.5702 10.9523 14.9258 10.805 15.2966 10.8049H17.6292C18 10.805 18.3556 10.9523 18.6177 11.2146C18.8799 11.4768 19.0272 11.8324 19.0272 12.2032V22.327C19.0272 22.327 19.6107 22.0908 20.1788 21.8509C20.3899 21.7616 20.57 21.6122 20.6967 21.4212C20.8234 21.2302 20.8911 21.0061 20.8913 20.7769V8.70797C20.8913 8.33723 21.0385 7.98167 21.3007 7.71949C21.5628 7.45731 21.9183 7.30999 22.2891 7.30991H24.6192C24.9897 7.31027 25.3449 7.45773 25.6068 7.71988C25.8687 7.98202 26.0158 8.33742 26.0158 8.70797V18.6463C28.036 17.1823 30.0832 15.4214 31.7079 13.3041C31.9436 12.9967 32.0996 12.6358 32.1619 12.2536C32.2243 11.8713 32.191 11.4795 32.0651 11.1132C31.313 8.94956 30.1176 6.96671 28.5552 5.29156C26.9929 3.61641 25.098 2.28586 22.9919 1.38506C20.8858 0.484249 18.6148 0.0330189 16.3243 0.0602446C14.0338 0.0874704 11.7743 0.59255 9.69017 1.54316C7.60608 2.49378 5.74338 3.86899 4.22128 5.5808C2.69917 7.29261 1.55117 9.30332 0.850748 11.4843C0.150324 13.6652 -0.0871031 15.9684 0.15366 18.2463C0.394423 20.5243 1.10807 22.7269 2.24895 24.7132C2.44771 25.0559 2.74014 25.3347 3.09188 25.5169C3.44362 25.6991 3.84005 25.7772 4.23461 25.7419C4.67538 25.7031 5.22418 25.6483 5.87666 25.5717C6.16064 25.5394 6.42281 25.4038 6.61325 25.1907C6.80369 24.9776 6.9091 24.7019 6.9094 24.416V15.6879" fill="#12161C"/>
<path d="M6.85938 29.7904C9.31546 31.5772 12.218 32.6497 15.2457 32.8892C18.2735 33.1288 21.3086 32.5261 24.0151 31.1478C26.7216 29.7695 28.994 27.6693 30.581 25.0797C32.168 22.49 33.0077 19.5118 33.0071 16.4746C33.0071 16.0946 32.9895 15.7206 32.9642 15.3477C26.9489 24.3192 15.8421 28.5134 6.85938 29.7904Z" fill="#F0B90B"/>
</svg>
