<svg width="304" height="297" viewBox="0 0 304 297" fill="none" xmlns="http://www.w3.org/2000/svg">
<path fill-rule="evenodd" clip-rule="evenodd" d="M28.2165 0.687945C26.5665 1.29095 24.0325 2.88494 22.5855 4.23194C21.1385 5.57794 18.7585 8.87794 17.2965 11.5639C15.8345 14.2509 13.7925 18.9059 12.7595 21.9089C11.7265 24.9119 10.5785 29.7869 10.2095 32.7429C9.84048 35.6989 10.0255 40.799 10.6215 44.076C11.2165 47.353 13.3205 53.3259 15.2965 57.3489C17.9315 62.7119 21.3705 67.2479 28.1865 74.3489C37.4825 84.0349 37.4825 84.0349 34.6505 99.5339C33.0935 108.059 25.7275 148.753 18.2835 189.966C10.8385 231.179 4.94848 265.099 5.19348 265.345C5.43948 265.59 7.84248 264.378 10.5335 262.651C13.2255 260.924 16.1835 258.676 17.1075 257.655C18.7045 255.89 18.6385 255.768 15.7515 255.191C14.0825 254.857 12.7165 253.974 12.7165 253.228C12.7165 252.482 13.7505 251.318 15.0155 250.642C16.2795 249.965 18.5535 247.859 20.0675 245.961C22.3605 243.087 22.5615 242.412 21.2685 241.916C20.4145 241.588 19.7165 240.763 19.7165 240.082C19.7165 239.401 20.6145 238.031 21.7125 237.037C23.2935 235.607 23.4635 234.934 22.5275 233.806C21.6045 232.695 21.6605 232.171 22.7805 231.424C23.5705 230.898 24.9975 230.02 25.9525 229.473C26.9075 228.926 29.0445 225.745 30.7025 222.404C32.3605 219.063 33.7165 215.111 33.7165 213.623C33.7165 212.134 34.3575 210.043 35.1415 208.975C36.5165 207.103 36.6055 207.134 37.6415 209.849C38.2325 211.397 38.7165 213.422 38.7165 214.349C38.7165 215.276 39.9045 218.762 41.3575 222.097C43.1315 226.168 44.9705 228.717 46.9595 229.859C48.9565 231.005 49.7245 232.072 49.3165 233.135C48.9825 234.004 49.6175 235.864 50.7295 237.277C52.5715 239.62 52.6105 239.994 51.1765 241.578C49.7255 243.182 50.0055 243.708 54.8635 248.49C59.0645 252.625 59.8295 253.85 58.6695 254.584C57.8705 255.09 56.3505 255.51 55.2925 255.519C53.5085 255.533 53.5405 255.718 55.7345 258.053C57.0365 259.439 60.2645 261.961 62.9085 263.657C65.5535 265.354 67.7165 267.146 67.7165 267.638C67.7165 268.131 67.0415 268.534 66.2165 268.534C65.3915 268.534 64.7165 268.959 64.7165 269.477C64.7165 269.996 66.0665 271.218 67.7165 272.193C69.3665 273.168 70.7165 274.543 70.7165 275.25C70.7165 275.956 70.0985 276.534 69.3425 276.534C68.5865 276.534 66.1115 275.879 63.8425 275.078C61.5735 274.278 59.7165 274.041 59.7165 274.553C59.7165 275.064 60.9865 276.14 62.5395 276.942C64.0915 277.745 65.9465 279.107 66.6615 279.968C67.3765 280.829 68.8065 281.534 69.8385 281.534C71.0495 281.534 71.7165 282.244 71.7165 283.534C71.7165 285.09 71.0495 285.534 68.7165 285.534C66.8865 285.534 65.7165 286.053 65.7165 286.864C65.7165 287.596 67.7815 289.678 70.3055 291.49C74.3785 294.415 75.0615 294.617 76.3895 293.289C77.7175 291.961 77.5955 291.72 75.3015 291.145C73.8795 290.788 72.7165 289.906 72.7165 289.184C72.7165 288.462 73.7285 287.318 74.9665 286.641C76.2045 285.965 78.0885 284.229 79.1545 282.785C80.4845 280.983 80.7195 280.035 79.9045 279.763C79.2515 279.546 78.7165 278.785 78.7165 278.073C78.7165 277.361 79.3455 276.257 80.1135 275.62C80.8815 274.982 81.3025 273.668 81.0495 272.7C80.7495 271.554 81.4655 270.471 83.1005 269.596C84.4825 268.857 86.4015 266.403 87.3675 264.143C88.3325 261.883 89.5965 258.009 90.1765 255.534C90.7565 253.059 91.6775 251.034 92.2235 251.034C92.7695 251.034 93.6175 252.834 94.1075 255.034C94.5975 257.234 95.8955 261.128 96.9915 263.687C98.0885 266.246 100.078 268.925 101.414 269.64C102.982 270.479 103.68 271.564 103.383 272.7C103.13 273.668 103.551 274.982 104.319 275.62C105.087 276.257 105.716 277.361 105.716 278.073C105.716 278.785 105.181 279.546 104.528 279.763C103.713 280.035 103.948 280.983 105.278 282.785C106.344 284.229 108.228 285.965 109.466 286.641C110.704 287.318 111.716 288.441 111.716 289.136C111.716 289.831 110.816 290.685 109.716 291.034C108.616 291.383 107.73 291.976 107.747 292.351C107.765 292.727 108.867 293.825 110.196 294.792C112.506 296.472 112.758 296.47 115.848 294.744C117.626 293.75 119.262 292.396 119.482 291.736C119.738 290.969 118.739 290.534 116.726 290.534C114.512 290.534 113.666 290.109 113.893 289.112C114.071 288.33 116.466 286.193 119.216 284.362C121.966 282.532 124.216 280.584 124.216 280.034C124.216 279.484 122.978 278.892 121.466 278.718C119.948 278.543 118.716 277.783 118.716 277.022C118.716 276.264 119.751 275.056 121.017 274.339C122.282 273.621 124.754 272.134 126.51 271.034C128.267 269.934 129.706 268.728 129.71 268.354C129.713 267.98 128.253 268.129 126.466 268.685C124.679 269.241 122.429 269.937 121.466 270.232C120.296 270.59 119.716 270.227 119.716 269.136C119.716 268.239 121.089 266.67 122.767 265.649C125.567 263.946 125.649 263.75 123.767 263.258C122.639 262.963 121.716 262.312 121.716 261.812C121.716 261.312 123.404 259.945 125.466 258.775C127.529 257.605 130.791 255.29 132.716 253.632C135.72 251.043 135.926 250.61 134.166 250.575C133.039 250.552 131.61 250.028 130.992 249.41C130.16 248.578 131.2 246.955 134.991 243.164C138.9 239.254 139.711 237.964 138.415 237.714C137.48 237.535 136.716 236.815 136.716 236.116C136.716 235.416 137.614 234.031 138.712 233.037C140.152 231.735 140.419 230.881 139.671 229.98C138.907 229.06 139.42 228.169 141.612 226.608C143.25 225.441 145.744 221.968 147.153 218.89C148.563 215.811 149.716 212.308 149.716 211.104C149.716 209.901 150.357 208.043 151.141 206.975C152.516 205.103 152.605 205.134 153.641 207.849C154.232 209.397 154.716 211.49 154.716 212.5C154.716 213.509 155.802 216.679 157.128 219.542C158.636 222.797 160.749 225.484 162.762 226.708C165.08 228.118 165.678 228.972 164.897 229.753C164.116 230.534 164.377 231.558 165.828 233.403C167.7 235.784 167.724 236.055 166.161 237.198C164.609 238.333 164.662 238.66 166.847 241.387C168.15 243.014 170.261 244.843 171.537 245.451C172.905 246.102 173.724 247.252 173.532 248.251C173.352 249.183 172.161 250.193 170.885 250.494C168.564 251.042 168.564 251.042 170.89 253.16C172.169 254.325 175.129 256.52 177.466 258.039C179.803 259.557 181.716 261.204 181.716 261.698C181.716 262.192 181 262.871 180.126 263.207C178.868 263.69 179.182 264.227 181.626 265.774C183.325 266.85 184.716 268.11 184.716 268.573C184.716 269.037 184.314 269.664 183.822 269.968C183.331 270.272 181.011 269.844 178.666 269.017C176.322 268.189 174.24 267.677 174.04 267.877C173.839 268.077 175.597 269.545 177.946 271.138C180.294 272.731 183.041 274.371 184.05 274.783C185.058 275.195 185.699 276.095 185.473 276.783C185.247 277.471 183.859 278.176 182.389 278.35C180.919 278.524 179.716 279.227 179.716 279.912C179.716 280.597 181.06 282.151 182.702 283.365C184.344 284.579 186.855 286.017 188.283 286.559C189.71 287.102 190.695 288.106 190.47 288.79C190.246 289.474 188.832 290.179 187.33 290.356C185.791 290.538 184.768 291.189 184.987 291.847C185.201 292.49 186.738 293.811 188.402 294.782C191.344 296.501 191.502 296.49 194.185 294.379C196.944 292.209 196.944 292.209 194.273 290.81C191.602 289.41 191.602 289.41 195.659 285.473C197.89 283.308 199.716 281.112 199.716 280.594C199.716 280.076 199.237 279.356 198.651 278.994C197.952 278.562 198.165 277.695 199.272 276.472C200.2 275.447 200.693 273.918 200.369 273.073C199.999 272.107 200.718 270.923 202.31 269.88C203.702 268.969 205.937 266.058 207.278 263.412C208.619 260.765 209.723 257.573 209.731 256.317C209.74 255.061 210.139 253.414 210.62 252.656C211.1 251.898 211.993 251.587 212.604 251.965C213.216 252.343 213.716 253.694 213.716 254.969C213.716 256.243 214.801 259.738 216.127 262.736C217.452 265.734 219.717 268.96 221.158 269.904C222.6 270.849 223.522 272.039 223.206 272.55C222.891 273.06 223.403 274.654 224.345 276.091C225.694 278.149 225.786 278.872 224.781 279.494C223.775 280.116 223.859 280.822 225.18 282.839C226.101 284.245 227.949 286.112 229.285 286.988C230.622 287.863 231.716 288.933 231.716 289.364C231.716 289.795 230.519 290.572 229.056 291.091C226.817 291.885 226.625 292.223 227.845 293.231C229.006 294.191 230.225 293.821 234.004 291.362C236.596 289.677 238.716 287.704 238.716 286.979C238.716 286.231 237.344 285.525 235.543 285.347C233.798 285.175 232.192 284.491 231.974 283.826C231.756 283.162 233.071 281.952 234.897 281.138C236.722 280.323 239.791 278.292 241.716 276.623C245.216 273.588 245.216 273.588 241.716 274.67C239.791 275.265 236.978 275.979 235.466 276.256C233.822 276.558 232.716 276.317 232.716 275.657C232.716 275.049 234.285 273.536 236.204 272.293C238.122 271.051 239.697 269.697 239.704 269.284C239.71 268.872 239.379 268.587 238.966 268.652C238.553 268.718 237.654 268.718 236.966 268.652C236.279 268.587 235.716 268.148 235.716 267.676C235.716 267.204 238.315 265.214 241.491 263.254C244.666 261.294 248.111 258.755 249.145 257.612C251.005 255.557 250.996 255.534 248.34 255.534C246.742 255.534 245.391 254.85 245.006 253.848C244.59 252.763 245.025 251.782 246.224 251.098C247.25 250.513 249.58 248.459 251.401 246.534C254.228 243.547 254.494 242.871 253.215 241.924C252.391 241.313 251.716 240.37 251.716 239.829C251.716 239.287 252.627 238.02 253.74 237.013C255.12 235.764 255.438 234.856 254.74 234.158C254.177 233.595 253.716 232.786 253.716 232.36C253.716 231.934 255.058 230.892 256.697 230.044C258.662 229.028 260.705 226.431 262.697 222.416C264.358 219.068 265.716 215.22 265.716 213.866C265.716 212.511 266.189 210.519 266.766 209.44C267.344 208.361 268.206 207.718 268.68 208.011C269.155 208.305 269.853 210.455 270.232 212.789C270.611 215.124 272.052 219.531 273.434 222.582C275.042 226.13 277.023 228.748 278.934 229.844C280.95 231.002 281.724 232.07 281.316 233.135C280.98 234.009 281.632 235.883 282.777 237.339C284.721 239.81 284.741 240.042 283.111 241.235C281.474 242.432 281.482 242.628 283.264 244.768C284.302 246.014 286.741 248.485 288.684 250.259C291.637 252.955 291.97 253.649 290.716 254.493C289.891 255.049 288.359 255.51 287.311 255.519C285.438 255.534 285.438 255.569 287.311 257.65C288.359 258.814 291.097 261.064 293.396 262.65C295.695 264.236 297.998 265.534 298.513 265.534C299.034 265.534 298.613 260.982 297.564 255.284C296.527 249.647 289.127 208.695 281.12 164.281C266.562 83.528 266.562 83.5279 272.202 78.3729C275.304 75.5369 279.859 70.5979 282.323 67.3949C284.787 64.1929 288.246 58.527 290.009 54.804C293.022 48.443 293.214 47.3689 293.188 37.0339C293.164 28.0679 292.751 25.0129 290.951 20.5129C289.737 17.4759 287.275 12.5469 285.48 9.55895C283.631 6.48095 280.701 3.24494 278.719 2.09294C276.269 0.668944 273.572 0.0889475 269.719 0.155948C266.401 0.212948 260.445 1.52194 254.716 3.45294C249.491 5.21294 241.166 8.57995 236.216 10.9329C231.266 13.2869 224.99 16.6349 222.27 18.3729C219.55 20.1119 216.273 21.5339 214.987 21.5339C213.701 21.5339 210.527 20.4609 207.933 19.1509C205.339 17.8399 199.452 15.5809 194.852 14.1309C190.251 12.6809 182.376 10.7459 177.352 9.82994C171.398 8.74594 162.642 8.15195 152.216 8.12495C143.177 8.10195 132.953 8.66095 128.716 9.40895C124.591 10.1379 118.215 11.5499 114.547 12.5479C110.88 13.5449 103.92 15.9749 99.0825 17.9479C94.2445 19.9199 89.4915 21.5339 88.5195 21.5339C87.5475 21.5339 83.7155 19.6749 80.0035 17.4039C76.2925 15.1319 69.9375 11.7609 65.8805 9.91294C61.8245 8.06394 54.6165 5.22295 49.8615 3.59795C45.1065 1.97295 38.9665 0.406945 36.2165 0.118945C33.4665 -0.170055 29.8665 0.0859452 28.2165 0.687945ZM165.933 84.5189C169.468 85.6109 175.043 88.2379 178.322 90.3579C181.601 92.4769 185.996 96.1959 188.089 98.6219C190.181 101.049 192.929 105.059 194.193 107.534C195.458 110.009 197.218 114.478 198.104 117.466C198.991 120.453 199.716 126.375 199.716 130.626C199.716 135.404 198.992 140.681 197.821 144.443C196.779 147.791 194.517 152.728 192.793 155.414C191.069 158.1 187.272 162.555 184.355 165.314C181.438 168.073 176.729 171.507 173.892 172.945C171.055 174.382 165.692 176.273 161.975 177.147C157.376 178.227 153.067 178.542 148.491 178.13C144.792 177.797 139.167 176.563 135.991 175.387C132.815 174.212 127.822 171.674 124.895 169.748C121.969 167.822 117.919 164.276 115.895 161.87C113.872 159.463 110.992 155.14 109.495 152.264C107.999 149.387 106.013 143.659 105.083 139.534C103.648 133.167 103.565 130.826 104.534 124.034C105.327 118.478 106.787 113.832 109.312 108.826C111.658 104.174 114.965 99.6929 118.636 96.1919C121.764 93.2079 126.775 89.5189 129.77 87.9939C132.765 86.4689 137.241 84.6569 139.716 83.9669C142.191 83.2769 147.656 82.6729 151.861 82.6229C156.887 82.5649 161.707 83.2139 165.933 84.5189ZM141.797 98.1219C138.817 98.9239 134.931 100.474 133.161 101.568C131.391 102.662 129.722 104.404 129.451 105.44C129.18 106.476 129.662 108.776 130.521 110.551C131.381 112.326 134.333 115.556 137.081 117.728C139.829 119.9 143.778 122.545 145.857 123.606C147.936 124.666 150.797 125.534 152.216 125.534C153.635 125.534 156.496 124.666 158.575 123.606C160.654 122.545 164.612 119.894 167.371 117.713C170.129 115.532 173.137 112.166 174.055 110.232C174.973 108.299 175.452 106.01 175.12 105.145C174.789 104.281 173.074 102.682 171.309 101.592C169.545 100.501 165.445 98.9169 162.198 98.0709C158.952 97.2259 154.253 96.5639 151.756 96.5999C149.259 96.6359 144.778 97.3209 141.797 98.1219ZM4.17548 269.601C3.81248 270.187 3.72149 270.873 3.97349 271.124C4.22449 271.375 5.16948 271.297 6.07348 270.951C6.97748 270.604 7.71648 269.918 7.71648 269.427C7.71648 268.936 7.06848 268.534 6.27548 268.534C5.48248 268.534 4.53748 269.014 4.17548 269.601ZM296.966 269.784C297.194 270.472 298.131 271.179 299.046 271.357C300.206 271.582 300.527 271.203 300.107 270.107C299.775 269.242 298.838 268.534 298.026 268.534C297.214 268.534 296.737 269.097 296.966 269.784ZM7.54349 275.281C4.44749 276.312 2.68948 277.531 2.33348 278.892C2.03748 280.022 1.98849 281.14 2.22449 281.376C2.46049 281.612 3.68048 281.1 4.93548 280.238C6.18948 279.377 8.56648 277.532 10.2165 276.139C11.8665 274.746 12.9915 273.633 12.7165 273.666C12.4415 273.698 10.1135 274.425 7.54349 275.281ZM291.716 274.6C291.716 275.086 292.986 276.14 294.539 276.942C296.091 277.745 297.946 279.107 298.661 279.968C299.376 280.829 300.357 281.534 300.839 281.534C301.322 281.534 301.716 280.495 301.716 279.225C301.716 277.334 300.811 276.626 296.716 275.317C293.966 274.437 291.716 274.115 291.716 274.6ZM0.334479 288.694C-0.013521 290.432 -0.104516 292.046 0.130484 292.282C0.366484 292.517 1.94448 291.686 3.63748 290.434C5.33148 289.182 6.71648 287.568 6.71648 286.846C6.71648 286.068 5.54748 285.534 3.84148 285.534C1.41448 285.534 0.867479 286.027 0.334479 288.694ZM297.716 286.899C297.716 287.724 299.099 289.382 300.788 290.585C303.861 292.773 303.861 292.773 303.538 289.404C303.267 286.567 302.781 285.984 300.466 285.718C298.549 285.497 297.716 285.855 297.716 286.899Z" fill="#0F0F1B"/>
</svg>
