<svg width="73" height="73" viewBox="0 0 73 73" fill="none" xmlns="http://www.w3.org/2000/svg">
<path d="M63 0H10C4.47715 0 0 4.47715 0 10V63C0 68.5229 4.47715 73 10 73H63C68.5229 73 73 68.5229 73 63V10C73 4.47715 68.5229 0 63 0Z" fill="#001F68"/>
<path d="M59.053 46.037V26.013C59.0524 25.1354 58.8211 24.2735 58.3823 23.5135C57.9435 22.7536 57.3127 22.1223 56.553 21.683L39.029 11.671C38.268 11.2316 37.4048 11.0003 36.526 11.0003C35.6473 11.0003 34.784 11.2316 34.023 11.671L16.499 21.683C15.7394 22.1223 15.1085 22.7536 14.6697 23.5135C14.231 24.2735 13.9997 25.1354 13.999 26.013V46.037C13.9997 46.9145 14.231 47.7765 14.6697 48.5364C15.1085 49.2964 15.7394 49.9277 16.499 50.367L34.023 60.38C34.784 60.8194 35.6473 61.0507 36.526 61.0507C37.4048 61.0507 38.268 60.8194 39.029 60.38L56.55 50.367C57.3102 49.9281 57.9417 49.297 58.381 48.537C58.8203 47.777 59.0521 46.9148 59.053 46.037V46.037Z" stroke="white" stroke-width="4" stroke-linecap="round" stroke-linejoin="round"/>
<path d="M14.6748 23.41L36.5258 36.05L58.3748 23.41" stroke="white" stroke-width="4" stroke-linecap="round" stroke-linejoin="round"/>
<path d="M36.5259 61.255V36.025" stroke="white" stroke-width="4" stroke-linecap="round" stroke-linejoin="round"/>
</svg>
