<svg width="27" height="23" viewBox="0 0 27 23" fill="none" xmlns="http://www.w3.org/2000/svg">
<path d="M20.2217 7.02631C19.9648 6.88275 19.6755 6.80737 19.3812 6.80737C19.0869 6.80737 18.7976 6.88275 18.5407 7.02631L14.6842 9.26315L12.0638 10.722L8.20747 12.9588C7.95057 13.1023 7.66123 13.1776 7.367 13.1776C7.07277 13.1776 6.78343 13.1023 6.52653 12.9588L3.46103 11.2082C3.21162 11.0652 3.00329 10.8603 2.85616 10.6133C2.70904 10.3663 2.62808 10.0855 2.62111 9.79805V6.34553C2.61766 6.05592 2.69426 5.77099 2.84247 5.52215C2.99068 5.27331 3.20474 5.07025 3.46103 4.93535L6.47702 3.2334C6.73392 3.08996 7.02326 3.01466 7.31749 3.01466C7.61172 3.01466 7.90106 3.08996 8.15796 3.2334L11.1739 4.93535C11.4234 5.07837 11.6317 5.28329 11.7788 5.53031C11.9259 5.77732 12.0069 6.0581 12.0139 6.34553V8.58238L14.6342 7.07494V4.83809C14.6377 4.54848 14.5611 4.26355 14.4128 4.01471C14.2646 3.76588 14.0506 3.56281 13.7943 3.42791L8.20747 0.218742C7.95057 0.0753033 7.66123 0 7.367 0C7.07277 0 6.78343 0.0753033 6.52653 0.218742L0.840034 3.42813C0.583773 3.56301 0.369738 3.76604 0.221531 4.01484C0.0733235 4.26363 -0.00329915 4.54852 0.000111708 4.83809V11.3055C-0.00334006 11.5951 0.0732633 11.88 0.221473 12.1289C0.369682 12.3777 0.583739 12.5808 0.840034 12.7157L6.52586 15.9251C6.78277 16.0685 7.0721 16.1438 7.36634 16.1438C7.66057 16.1438 7.94991 16.0685 8.20681 15.9251L12.0632 13.7368L14.6835 12.2294L18.5401 10.0412C18.7969 9.89763 19.0863 9.82225 19.3805 9.82225C19.6748 9.82225 19.9641 9.89763 20.221 10.0412L23.237 11.7431C23.4864 11.8862 23.6947 12.0911 23.8418 12.3381C23.989 12.5851 24.0699 12.8659 24.0769 13.1533V16.6058C24.0804 16.8955 24.0038 17.1804 23.8556 17.4292C23.7073 17.6781 23.4933 17.8811 23.237 18.016L20.221 19.7666C19.9641 19.91 19.6748 19.9853 19.3805 19.9853C19.0863 19.9853 18.797 19.91 18.5401 19.7666L15.5241 18.0647C15.2747 17.9216 15.0664 17.7167 14.9192 17.4697C14.7721 17.2227 14.6911 16.9419 14.6842 16.6545V14.4174L12.0638 15.9248V18.1617C12.0604 18.4513 12.137 18.7362 12.2852 18.9851C12.4334 19.2339 12.6474 19.437 12.9037 19.5719L18.5896 22.7813C18.8465 22.9247 19.1358 23 19.43 23C19.7243 23 20.0136 22.9247 20.2705 22.7813L25.9564 19.5719C26.2058 19.4288 26.4141 19.2239 26.5612 18.9769C26.7083 18.7299 26.7893 18.4491 26.7963 18.1617V11.6945C26.7997 11.4049 26.7231 11.12 26.5749 10.8711C26.4267 10.6223 26.2126 10.4192 25.9564 10.2843L20.2217 7.02631Z" fill="#8247E5"/>
</svg>
