<svg width="49" height="48" viewBox="0 0 49 48" fill="none" xmlns="http://www.w3.org/2000/svg">
<circle cx="24.1094" cy="24" r="23" stroke="#3300FF" stroke-opacity="0.3" stroke-width="2"/>
<path d="M27.1348 12.5996L27.8672 12.6875C27.8672 12.6875 31.1521 13.0464 33.5508 14.9727H33.5801L33.6094 15.002C34.1477 15.4963 34.3821 16.1042 34.752 16.9941C35.1218 17.884 35.5173 19.0193 35.8652 20.2754C36.561 22.7913 37.125 25.8381 37.125 28.625V28.8594L37.0078 29.0938C36.1399 30.6172 34.5981 31.5876 33.1699 32.2578C31.7417 32.928 30.5076 33.2832 29.6543 33.3125L29.0977 33.3418L28.8047 32.8438L27.7793 31.0273C26.6917 31.2727 25.4392 31.4375 24 31.4375C22.5608 31.4375 21.3083 31.2727 20.2207 31.0273L19.1953 32.8438L18.9023 33.3418L18.3457 33.3125C17.4924 33.2832 16.2583 32.928 14.8301 32.2578C13.4019 31.5876 11.8601 30.6172 10.9922 29.0938L10.875 28.8594V28.625C10.875 25.8381 11.439 22.7913 12.1348 20.2754C12.4827 19.0193 12.8782 17.884 13.248 16.9941C13.6179 16.1042 13.8523 15.4963 14.3906 15.002L14.4199 14.9727H14.4492C16.8479 13.0464 20.1328 12.6875 20.1328 12.6875L20.8652 12.5996L21.1289 13.2734C21.1289 13.2734 21.3999 13.9583 21.5684 14.7383C22.6304 14.5955 23.4983 14.5625 24 14.5625C24.5017 14.5625 25.3696 14.5955 26.4316 14.7383C26.6001 13.9583 26.8711 13.2734 26.8711 13.2734L27.1348 12.5996ZM28.4238 14.7383C28.3835 14.8701 28.3433 14.9836 28.3066 15.0898C29.5188 15.3901 30.8115 15.8479 31.998 16.584L31.002 18.166C28.5703 16.6572 25.0767 16.4375 24 16.4375C22.9233 16.4375 19.4297 16.6572 16.998 18.166L16.002 16.584C17.1885 15.8479 18.4812 15.3901 19.6934 15.0898C19.6567 14.9836 19.6165 14.8701 19.5762 14.7383C18.7009 14.9141 17.031 15.3169 15.6504 16.4082C15.6577 16.4119 15.2988 16.9539 14.9766 17.7266C14.647 18.5212 14.2808 19.5796 13.9512 20.7734C13.3176 23.0623 12.8196 25.8491 12.7793 28.3027C13.3689 29.2036 14.4639 30.0166 15.6211 30.5586C16.6318 31.031 17.4302 31.2031 17.9062 31.291L18.375 30.5C18.0967 30.3975 17.822 30.2839 17.584 30.1777C16.1411 29.5442 15.3574 28.8594 15.3574 28.8594L16.5879 27.4531C16.5879 27.4531 17.1152 27.9365 18.3457 28.4785C19.5762 29.0205 21.4548 29.5625 24 29.5625C26.5452 29.5625 28.4238 29.0205 29.6543 28.4785C30.8848 27.9365 31.4121 27.4531 31.4121 27.4531L32.6426 28.8594C32.6426 28.8594 31.8589 29.5442 30.416 30.1777C30.178 30.2839 29.9033 30.3975 29.625 30.5L30.0938 31.291C30.5698 31.2031 31.3682 31.031 32.3789 30.5586C33.5361 30.0166 34.6311 29.2036 35.2207 28.3027C35.1804 25.8491 34.6824 23.0623 34.0488 20.7734C33.7192 19.5796 33.353 18.5212 33.0234 17.7266C32.7012 16.9539 32.3423 16.4119 32.3496 16.4082C30.969 15.3169 29.2991 14.9141 28.4238 14.7383ZM27.2812 21.125C28.0063 21.125 28.6472 21.5388 29.0391 22.0625C29.4309 22.5862 29.625 23.2307 29.625 23.9375C29.625 24.6443 29.4309 25.2888 29.0391 25.8125C28.6472 26.3362 28.0063 26.75 27.2812 26.75C26.5562 26.75 25.9153 26.3362 25.5234 25.8125C25.1316 25.2888 24.9375 24.6443 24.9375 23.9375C24.9375 23.2307 25.1316 22.5862 25.5234 22.0625C25.9153 21.5388 26.5562 21.125 27.2812 21.125ZM20.7188 21.125C21.4438 21.125 22.0847 21.5388 22.4766 22.0625C22.8684 22.5862 23.0625 23.2307 23.0625 23.9375C23.0625 24.6443 22.8684 25.2888 22.4766 25.8125C22.0847 26.3362 21.4438 26.75 20.7188 26.75C19.9937 26.75 19.3528 26.3362 18.9609 25.8125C18.5691 25.2888 18.375 24.6443 18.375 23.9375C18.375 23.2307 18.5691 22.5862 18.9609 22.0625C19.3528 21.5388 19.9937 21.125 20.7188 21.125ZM27.2812 23C27.23 23 27.1641 23.0183 27.0469 23.1758C26.9297 23.3333 26.8125 23.6079 26.8125 23.9375C26.8125 24.2671 26.9297 24.5417 27.0469 24.6992C27.1641 24.8567 27.23 24.875 27.2812 24.875C27.3325 24.875 27.3984 24.8567 27.5156 24.6992C27.6328 24.5417 27.75 24.2671 27.75 23.9375C27.75 23.6079 27.6328 23.3333 27.5156 23.1758C27.3984 23.0183 27.3325 23 27.2812 23ZM20.7188 23C20.6675 23 20.6016 23.0183 20.4844 23.1758C20.3672 23.3333 20.25 23.6079 20.25 23.9375C20.25 24.2671 20.3672 24.5417 20.4844 24.6992C20.6016 24.8567 20.6675 24.875 20.7188 24.875C20.77 24.875 20.8359 24.8567 20.9531 24.6992C21.0703 24.5417 21.1875 24.2671 21.1875 23.9375C21.1875 23.6079 21.0703 23.3333 20.9531 23.1758C20.8359 23.0183 20.77 23 20.7188 23Z" fill="#3300FF"/>
</svg>
