<svg width="73" height="73" viewBox="0 0 73 73" fill="none" xmlns="http://www.w3.org/2000/svg">
<circle cx="36.5" cy="36.5" r="36.5" fill="#F3F3F3"/>
<path opacity="0.3" d="M21.9141 37.9583C21.9141 37.2292 22.6432 36.5 23.3724 36.5C24.1016 36.5 24.8307 37.2292 24.8307 37.9583C24.8307 38.4444 24.8307 40.875 24.8307 45.25C24.8307 46.8608 26.1366 48.1667 27.7474 48.1667H45.2474C46.8582 48.1667 48.1641 46.8608 48.1641 45.25V37.9583C48.1641 37.1529 48.817 36.5 49.6224 36.5C50.4278 36.5 51.0807 37.1529 51.0807 37.9583V45.25C51.0807 48.4717 48.4691 51.0833 45.2474 51.0833H27.7474C24.5257 51.0833 21.9141 48.4717 21.9141 45.25C21.9141 40.875 21.9141 38.4444 21.9141 37.9583Z" fill="#3300FF"/>
<path opacity="0.3" d="M37.9557 23.3751C37.9557 22.5697 37.3028 21.9167 36.4974 21.9167C35.692 21.9167 35.0391 22.5697 35.0391 23.3751V40.8751C35.0391 41.6805 35.692 42.3334 36.4974 42.3334C37.3028 42.3334 37.9557 41.6805 37.9557 40.8751V23.3751Z" fill="#3300FF"/>
<path d="M36.5528 23.9261L30.2395 30.2395C29.67 30.809 28.7467 30.809 28.1771 30.2395C27.6076 29.6699 27.6076 28.7466 28.1771 28.1771L35.4688 20.8854C36.0173 20.3369 36.8991 20.3137 37.4756 20.8326L44.7672 27.3951C45.3659 27.9339 45.4144 28.856 44.8756 29.4547C44.3368 30.0533 43.4148 30.1019 42.8161 29.5631L36.5528 23.9261Z" fill="#3300FF"/>
</svg>
