
<svg width="49" height="48" viewBox="0 0 49 48" fill="none" xmlns="http://www.w3.org/2000/svg">
<circle cx="24.1094" cy="24" r="23" stroke="#3300FF" stroke-opacity="0.3" stroke-width="2"/>
<path d="M28.6094 15H19.6094C17.1241 15 15.1094 17.0147 15.1094 19.5V28.5C15.1094 30.9853 17.1241 33 19.6094 33H28.6094C31.0947 33 33.1094 30.9853 33.1094 28.5V19.5C33.1094 17.0147 31.0947 15 28.6094 15Z" stroke="#3300FF" stroke-width="2" stroke-linecap="round" stroke-linejoin="round"/>
<path d="M27.7079 23.4323C27.819 24.1813 27.6911 24.9463 27.3423 25.6184C26.9936 26.2905 26.4418 26.8356 25.7654 27.176C25.089 27.5164 24.3225 27.6349 23.5749 27.5146C22.8274 27.3943 22.1367 27.0414 21.6013 26.5059C21.0659 25.9705 20.7129 25.2799 20.5926 24.5323C20.4723 23.7847 20.5908 23.0182 20.9312 22.3418C21.2717 21.6655 21.8167 21.1137 22.4888 20.7649C23.1609 20.4162 23.9259 20.2882 24.6749 20.3993C25.439 20.5126 26.1463 20.8686 26.6925 21.4148C27.2386 21.9609 27.5946 22.6683 27.7079 23.4323Z" stroke="#3300FF" stroke-width="2" stroke-linecap="round" stroke-linejoin="round"/>
<path d="M29.0625 19.0503H29.0708" stroke="#3300FF" stroke-width="2" stroke-linecap="round" stroke-linejoin="round"/>
</svg>
