<svg width="24" height="24" viewBox="0 0 24 24" fill="none" xmlns="http://www.w3.org/2000/svg">
<path d="M11.1311 21.514C11.6717 21.8366 12.3283 21.8366 12.8689 21.514C14.9408 20.2781 20 16.7714 20 12V6.386C20 5.55231 19.4829 4.80607 18.7022 4.51334L12.7022 2.26334C12.2495 2.09355 11.7505 2.09355 11.2978 2.26334L5.29775 4.51334C4.51715 4.80607 4 5.55231 4 6.386V12C4 16.7714 9.05923 20.2781 11.1311 21.514Z" fill="#B5EDD7"/>
<path d="M7 9.12902L9.13258 7.33382L14.4769 13.2048L12.3443 15L7 9.12902Z" fill="white"/>
<path d="M7 9.12902L9.13258 7.33382L14.4769 13.2048L12.3443 15L7 9.12902Z" fill="url(#paint0_linear_2673_1570)"/>
<path d="M7 9.12902L9.13258 7.33382L14.4769 13.2048L12.3443 15L7 9.12902Z" fill="black" fill-opacity="0.2"/>
<path d="M21.137 4L23 6.05395L12.3345 15L10.4715 12.946L21.137 4Z" fill="white"/>
<path d="M21.137 4L23 6.05395L12.3345 15L10.4715 12.946L21.137 4Z" fill="url(#paint1_linear_2673_1570)"/>
<path d="M21.137 4L23 6.05395L12.3345 15L10.4715 12.946L21.137 4Z" fill="black" fill-opacity="0.2"/>
<defs>
<linearGradient id="paint0_linear_2673_1570" x1="15" y1="4" x2="15" y2="15" gradientUnits="userSpaceOnUse">
<stop stop-color="#98FDAC"/>
<stop offset="1" stop-color="#04B79C"/>
</linearGradient>
<linearGradient id="paint1_linear_2673_1570" x1="15" y1="4" x2="15" y2="15" gradientUnits="userSpaceOnUse">
<stop stop-color="#98FDAC"/>
<stop offset="1" stop-color="#04B79C"/>
</linearGradient>
</defs>
</svg>
