<svg width="25" height="25" viewBox="0 0 25 25" fill="none" xmlns="http://www.w3.org/2000/svg">
<rect x="4" y="4" width="16.6667" height="18.75" rx="2" fill="white"/>
<rect x="4" y="4" width="16.6667" height="18.75" rx="2" fill="#B5EDD7"/>
<path d="M15.2917 3H9.04167C8.46637 3 8 3.34978 8 3.78125V5.34375C8 5.77522 8.46637 6.125 9.04167 6.125H15.2917C15.867 6.125 16.3333 5.77522 16.3333 5.34375V3.78125C16.3333 3.34978 15.867 3 15.2917 3Z" fill="white"/>
<path d="M15.2917 3H9.04167C8.46637 3 8 3.34978 8 3.78125V5.34375C8 5.77522 8.46637 6.125 9.04167 6.125H15.2917C15.867 6.125 16.3333 5.77522 16.3333 5.34375V3.78125C16.3333 3.34978 15.867 3 15.2917 3Z" fill="url(#paint0_linear_2673_1556)"/>
<path d="M15.2917 3H9.04167C8.46637 3 8 3.34978 8 3.78125V5.34375C8 5.77522 8.46637 6.125 9.04167 6.125H15.2917C15.867 6.125 16.3333 5.77522 16.3333 5.34375V3.78125C16.3333 3.34978 15.867 3 15.2917 3Z" fill="black" fill-opacity="0.2"/>
<path d="M19.1876 10.0109C19.3907 9.80771 19.6319 9.64658 19.8973 9.53664C20.1627 9.4267 20.4472 9.37012 20.7345 9.37012C21.0217 9.37012 21.3062 9.4267 21.5716 9.53664C21.837 9.64658 22.0782 9.80771 22.2813 10.0109C22.4845 10.214 22.6456 10.4552 22.7555 10.7206C22.8655 10.986 22.9221 11.2704 22.9221 11.5577C22.9221 11.845 22.8655 12.1295 22.7555 12.3949C22.6456 12.6603 22.4845 12.9015 22.2813 13.1046L17.6563 17.7088L13.5417 18.7504L14.573 14.6359L19.1876 10.0109Z" fill="white"/>
<path d="M19.1876 10.0109C19.3907 9.80771 19.6319 9.64658 19.8973 9.53664C20.1627 9.4267 20.4472 9.37012 20.7345 9.37012C21.0217 9.37012 21.3062 9.4267 21.5716 9.53664C21.837 9.64658 22.0782 9.80771 22.2813 10.0109C22.4845 10.214 22.6456 10.4552 22.7555 10.7206C22.8655 10.986 22.9221 11.2704 22.9221 11.5577C22.9221 11.845 22.8655 12.1295 22.7555 12.3949C22.6456 12.6603 22.4845 12.9015 22.2813 13.1046L17.6563 17.7088L13.5417 18.7504L14.573 14.6359L19.1876 10.0109Z" fill="url(#paint1_linear_2673_1556)"/>
<path d="M19.1876 10.0109C19.3907 9.80771 19.6319 9.64658 19.8973 9.53664C20.1627 9.4267 20.4472 9.37012 20.7345 9.37012C21.0217 9.37012 21.3062 9.4267 21.5716 9.53664C21.837 9.64658 22.0782 9.80771 22.2813 10.0109C22.4845 10.214 22.6456 10.4552 22.7555 10.7206C22.8655 10.986 22.9221 11.2704 22.9221 11.5577C22.9221 11.845 22.8655 12.1295 22.7555 12.3949C22.6456 12.6603 22.4845 12.9015 22.2813 13.1046L17.6563 17.7088L13.5417 18.7504L14.573 14.6359L19.1876 10.0109Z" fill="black" fill-opacity="0.2"/>
<path d="M8.33325 18.75H9.37492H8.33325Z" fill="#0F987E"/>
<path d="M8.33325 18.75H9.37492" stroke="#0D977E" stroke-width="1.5" stroke-linecap="round" stroke-linejoin="round"/>
<defs>
<linearGradient id="paint0_linear_2673_1556" x1="12.1667" y1="3" x2="12.1667" y2="6.125" gradientUnits="userSpaceOnUse">
<stop stop-color="#98FDAC"/>
<stop offset="1" stop-color="#04B79C"/>
</linearGradient>
<linearGradient id="paint1_linear_2673_1556" x1="18.2319" y1="9.37012" x2="18.2319" y2="18.7504" gradientUnits="userSpaceOnUse">
<stop stop-color="#98FDAC"/>
<stop offset="1" stop-color="#04B79C"/>
</linearGradient>
</defs>
</svg>
