<svg width="32" height="29" viewBox="0 0 32 29" fill="none" xmlns="http://www.w3.org/2000/svg">
<path d="M1.55556 2.05556V9.83333H4.66667V3.61111H10.8889V0.5H3.11111C2.69855 0.5 2.30289 0.663888 2.01117 0.955612C1.71944 1.24733 1.55556 1.643 1.55556 2.05556ZM29.5556 9.83333V2.05556C29.5556 1.643 29.3917 1.24733 29.0999 0.955612C28.8082 0.663888 28.4126 0.5 28 0.5H20.2222V3.61111H26.4444V9.83333H29.5556ZM26.4444 25.3889H20.2222V28.5H28C28.4126 28.5 28.8082 28.3361 29.0999 28.0444C29.3917 27.7527 29.5556 27.357 29.5556 26.9444V19.1667H26.4444V25.3889ZM10.8889 28.5V25.3889H4.66667V19.1667H1.55556V26.9444C1.55556 27.357 1.71944 27.7527 2.01117 28.0444C2.30289 28.3361 2.69855 28.5 3.11111 28.5H10.8889ZM0 12.9444H31.1111V16.0556H0V12.9444Z" fill="url(#paint0_linear)"/>
<defs>
<linearGradient id="paint0_linear" x1="3" y1="2.5" x2="29.5" y2="26.5" gradientUnits="userSpaceOnUse">
<stop stop-color="#52FF00"/>
<stop offset="1" stop-color="#00EEFD"/>
</linearGradient>
</defs>
</svg>
