<svg width="48" height="48" viewBox="0 0 48 48" fill="none" xmlns="http://www.w3.org/2000/svg">
<g clip-path="url(#clip0_3015_1435)">
<path d="M19.2333 18.1333C18.4148 18.1333 17.6042 18.2945 16.8479 18.6078C16.0917 18.921 15.4045 19.3802 14.8257 19.959C14.2469 20.5378 13.7877 21.225 13.4745 21.9812C13.1612 22.7375 13 23.5481 13 24.3666C13 25.1852 13.1612 25.9958 13.4745 26.752C13.7877 27.5083 14.2469 28.1954 14.8257 28.7743C15.4045 29.3531 16.0917 29.8122 16.8479 30.1255C17.6042 30.4387 18.4148 30.6 19.2333 30.6C20.0519 30.6 20.8625 30.4387 21.6187 30.1255C22.375 29.8122 23.0621 29.3531 23.641 28.7743C24.2198 28.1954 24.6789 27.5083 24.9922 26.752C25.3054 25.9958 25.4667 25.1852 25.4667 24.3666C25.4667 23.5481 25.3054 22.7375 24.9922 21.9812C24.6789 21.225 24.2198 20.5378 23.641 19.959C23.0621 19.3802 22.375 18.921 21.6187 18.6078C20.8625 18.2945 20.0519 18.1333 19.2333 18.1333V18.1333ZM29.1333 18.8666C28.7481 18.8666 28.3667 19.0089 28.0108 19.2853C27.6549 19.5617 27.3315 19.9668 27.0592 20.4775C26.7868 20.9883 26.5707 21.5946 26.4233 22.2619C26.2759 22.9292 26.2 23.6444 26.2 24.3666C26.2 25.0889 26.2759 25.8041 26.4233 26.4714C26.5707 27.1387 26.7868 27.745 27.0592 28.2557C27.3315 28.7664 27.6549 29.1716 28.0108 29.448C28.3667 29.7244 28.7481 29.8666 29.1333 29.8666C29.5185 29.8666 29.9 29.7244 30.2559 29.448C30.6118 29.1716 30.9351 28.7664 31.2075 28.2557C31.4799 27.745 31.696 27.1387 31.8434 26.4714C31.9908 25.8041 32.0667 25.0889 32.0667 24.3666C32.0667 23.6444 31.9908 22.9292 31.8434 22.2619C31.696 21.5946 31.4799 20.9883 31.2075 20.4775C30.9351 19.9668 30.6118 19.5617 30.2559 19.2853C29.9 19.0089 29.5185 18.8666 29.1333 18.8666V18.8666ZM33.9 19.6C33.6083 19.6 33.3285 20.1022 33.1222 20.9961C32.9159 21.89 32.8 23.1024 32.8 24.3666C32.8 25.6308 32.9159 26.8433 33.1222 27.7372C33.3285 28.6311 33.6083 29.1333 33.9 29.1333C34.1917 29.1333 34.4715 28.6311 34.6778 27.7372C34.8841 26.8433 35 25.6308 35 24.3666C35 23.1024 34.8841 21.89 34.6778 20.9961C34.4715 20.1022 34.1917 19.6 33.9 19.6V19.6Z" fill="#3300FF"/>
</g>
<circle cx="24" cy="24" r="23" stroke="#3300FF" stroke-opacity="0.3" stroke-width="2"/>
<defs>
<clipPath id="clip0_3015_1435">
<rect width="22" height="22" fill="white" transform="translate(13 13)"/>
</clipPath>
</defs>
</svg>
