<svg width="223" height="223" viewBox="0 0 223 223" fill="none" xmlns="http://www.w3.org/2000/svg">
<path d="M72.9947 60.1566C61.9803 61.6144 56.6621 69.8077 55.3797 73.7222C33.513 73.7222 29.2609 75.3418 19.1373 79.5937C11.0385 82.9952 7.79896 93.1593 7.19155 97.8161V148.636C6.78661 153.023 7.83945 163.903 15.2904 172.325C24.604 182.854 41.0042 181.842 43.4338 181.437C45.8635 181.032 59.2266 178.804 62.2636 169.693C65.3007 160.582 64.4908 152.281 61.4538 146.612C58.4167 140.942 53.5574 136.893 41.4091 137.905C31.6905 138.715 30.0708 146.882 30.4757 150.863C30.9481 153.361 33.0673 158.233 37.7647 157.747C43.6363 157.14 44.2437 151.876 44.2437 150.863C48.941 150.701 50.5203 152.956 50.7228 154.103C51.6002 158.152 51.7351 166.535 45.2561 167.669C37.1572 169.086 30.2732 167.264 25.8189 163.822C22.2554 161.068 20.8247 154.98 20.5548 152.281C20.4198 142.292 20.2308 122.356 20.5548 122.518C20.9597 122.72 25.6165 124.947 29.0585 125.555C32.5005 126.162 37.3598 127.377 47.2809 127.377C55.2178 127.377 64.4909 126.162 68.1354 125.555V129.604C68.7428 131.156 70.889 134.22 74.6145 134.058C78.34 133.896 80.6211 131.021 81.296 129.604V122.518C86.9652 121.222 92.5669 118.873 94.6591 117.861V129.199C94.9966 131.156 96.8458 134.909 101.543 134.261C106.24 133.613 107.955 130.616 108.225 129.199V112.192C114.299 109.154 120.17 104.7 120.98 103.89C121.79 103.08 122.195 99.8408 121.79 98.626C121.466 97.6541 120.71 96.7363 120.373 96.3988C121.115 96.1289 123.167 94.7386 125.435 91.337C127.702 87.9355 128.404 83.5757 128.472 81.8209C128.809 76.8266 126.609 65.7447 115.109 61.3713C103.608 56.998 94.5241 64.8134 91.4196 69.2678C89.8673 65.6233 84.0091 58.6988 72.9947 60.1566Z" fill="#1ACC94" stroke="#1ACC94" stroke-width="0.404942"/>
<mask id="mask0_1510_2014" style="mask-type:alpha" maskUnits="userSpaceOnUse" x="6" y="60" width="123" height="122">
<path d="M72.8697 60.3534C61.8553 61.8112 56.5371 70.0045 55.2547 73.9189C33.388 73.9189 29.1359 75.5386 19.0123 79.7905C10.9135 83.192 7.67396 93.3561 7.06655 98.0129V148.833C6.66161 153.22 7.71445 164.099 15.1654 172.522C24.479 183.051 40.8792 182.038 43.3088 181.633C45.7385 181.228 59.1016 179.001 62.1386 169.89C65.1757 160.779 64.3658 152.478 61.3288 146.808C58.2917 141.139 53.4324 137.09 41.2841 138.102C31.5655 138.912 29.9458 147.078 30.3507 151.06C30.8231 153.557 32.9423 158.43 37.6397 157.944C43.5113 157.337 44.1187 152.073 44.1187 151.06C48.816 150.898 50.3953 153.152 50.5978 154.3C51.4752 158.349 51.6101 166.732 45.1311 167.865C37.0322 169.283 30.1482 167.46 25.6939 164.018C22.1304 161.265 20.6997 155.177 20.4298 152.478C20.2948 142.489 20.1058 122.552 20.4298 122.714C20.8347 122.917 25.4915 125.144 28.9335 125.751C32.3755 126.359 37.2348 127.574 47.1559 127.574C55.0928 127.574 64.3659 126.359 68.0104 125.751V129.801C68.6178 131.353 70.764 134.417 74.4895 134.255C78.215 134.093 80.4961 131.218 81.171 129.801V122.714C86.8402 121.419 92.4419 119.07 94.5341 118.058V129.396C94.8716 131.353 96.7208 135.106 101.418 134.458C106.115 133.81 107.83 130.813 108.1 129.396V112.388C114.174 109.351 120.045 104.897 120.855 104.087C121.665 103.277 122.07 100.038 121.665 98.8228C121.341 97.8509 120.585 96.933 120.248 96.5956C120.99 96.3256 123.042 94.9353 125.31 91.5338C127.577 88.1323 128.279 83.7724 128.347 82.0177C128.684 77.0234 126.484 65.9415 114.984 61.5681C103.483 57.1948 94.3991 65.0102 91.2946 69.4646C89.7423 65.8201 83.8841 58.8956 72.8697 60.3534Z" fill="#1ACC94"/>
</mask>
<g mask="url(#mask0_1510_2014)">
<rect x="85.9531" y="29.981" width="42.5189" height="165.621" fill="#2EE3AA"/>
<rect x="44.2422" y="29.981" width="42.5189" height="165.621" fill="#1ACC94"/>
<rect x="2.53125" y="29.981" width="42.5189" height="165.621" fill="#0FB480"/>
</g>
<path d="M94.0547 96.6018H101.749C103.098 96.5343 105.717 96.6018 105.393 97.4117C104.988 98.4241 101.344 100.651 102.154 101.259C102.801 101.745 105.393 102.811 106.608 103.283" stroke="white" stroke-width="1.61977" stroke-linecap="round"/>
<circle cx="74.8221" cy="80.1995" r="13.9705" fill="white"/>
<circle opacity="0.9" cx="71.1712" cy="76.9607" r="5.06177" fill="#1ACC94"/>
<circle cx="108.83" cy="80.1995" r="13.9705" fill="white"/>
<circle opacity="0.9" cx="111.663" cy="76.9607" r="5.06177" fill="#1ACC94"/>
<path d="M10.8359 111.787C11.9158 112.597 15.1283 114.054 19.3397 113.407C24.604 112.597 26.6287 109.965 26.4262 109.155C26.2237 108.345 25.4138 106.118 23.5916 106.32C21.7694 106.523 20.3521 109.762 20.9595 112.191C21.5669 114.621 24.8064 120.29 38.372 121.1" stroke="white" stroke-width="1.61977" stroke-linecap="round"/>
<circle cx="43.4323" cy="120.896" r="1.61977" fill="white"/>
<path fill-rule="evenodd" clip-rule="evenodd" d="M140.072 139.118C165.497 113.151 165.058 71.4894 139.091 46.0641C113.124 20.6388 71.462 21.078 46.0366 47.0452C20.6113 73.0124 21.0506 114.674 47.0178 140.1C72.9849 165.525 114.647 165.086 140.072 139.118ZM136.89 136.002C160.594 111.793 160.184 72.9509 135.975 49.2467C111.765 25.5425 72.9238 25.952 49.2195 50.1614C25.5153 74.3708 25.9248 113.213 50.1342 136.917C74.3437 160.621 113.185 160.211 136.89 136.002Z" fill="#D3D3D3"/>
<path d="M132.539 144.496L145.004 131.765L151.081 137.714L150.411 142.16L147.166 146.632L142.621 150.116L138.615 150.445L132.539 144.496Z" fill="#D3D3D3"/>
<path d="M132.539 144.496L145.004 131.765L151.081 137.714L150.411 142.16L147.166 146.632L142.621 150.116L138.615 150.445L132.539 144.496Z" fill="url(#paint0_linear_1510_2014)" fill-opacity="0.06"/>
<path d="M142.617 150.115L146.873 146.348L150.408 142.158L165.499 154.384L180.589 166.61L180.436 167.632C180.097 169.881 179.223 172.016 177.887 173.856L177.788 173.994C177.049 175.011 176.168 175.916 175.17 176.681C173.185 178.203 170.804 179.121 168.311 179.325L168.124 179.341L155.371 164.728L142.617 150.115Z" fill="#D3D3D3"/>
<path d="M142.219 149.712L150.006 141.759L150.637 142.377L147.533 147.126L142.85 150.33L142.219 149.712Z" fill="#B8B8B8"/>
<defs>
<linearGradient id="paint0_linear_1510_2014" x1="138.615" y1="150.445" x2="151.081" y2="137.714" gradientUnits="userSpaceOnUse">
<stop stop-opacity="0.41"/>
<stop offset="0.505044" stop-opacity="0"/>
<stop offset="1" stop-opacity="0.42"/>
</linearGradient>
</defs>
</svg>
