<svg width="49" height="48" viewBox="0 0 49 48" fill="none" xmlns="http://www.w3.org/2000/svg">
<circle cx="24.1094" cy="24" r="23" stroke="#3300FF" stroke-opacity="0.3" stroke-width="2"/>
<path d="M33.2876 14.2627C32.9274 14.2246 32.5359 14.2807 32.1429 14.4362C31.6552 14.6277 24.0168 17.8412 16.8958 20.8389L14.543 21.8291C13.6321 22.1984 13.1719 22.7993 13.1719 23.6086C13.1719 24.1751 13.4115 24.9437 14.5557 25.3965L18.5272 26.9877C18.8705 28.0181 19.6682 30.4101 19.8687 31.0459C19.9877 31.4231 20.2887 32.3726 21.0493 32.5948C21.2054 32.6477 21.3683 32.6752 21.5339 32.6752C22.0136 32.6752 22.3596 32.4519 22.5283 32.3218L25.0526 30.1869L28.1185 33.0222C28.2364 33.1423 28.8617 33.75 29.7012 33.75C30.7485 33.75 31.5436 32.8778 31.7091 32.0341C31.7991 31.5717 34.756 16.7277 34.756 16.7299C35.0216 15.5391 34.5444 14.9218 34.2376 14.6584C33.9747 14.4336 33.6478 14.3008 33.2876 14.2627ZM32.5703 16.6029C32.1619 18.6505 29.9355 29.8267 29.5975 31.4374L25.116 27.2924L22.0755 29.8674L22.9176 26.573C22.9176 26.573 28.7268 20.6924 29.077 20.3501C29.3584 20.0761 29.4176 19.9799 29.4176 19.8846C29.4176 19.7577 29.3526 19.6667 29.2018 19.6667C29.0664 19.6667 28.8823 19.7963 28.785 19.8571C27.5461 20.6294 22.2723 23.634 19.6761 25.1109L15.9098 23.6065L17.738 22.8384C22.395 20.8775 30.6898 17.3852 32.5703 16.6029Z" fill="#3300FF"/>
</svg>
