<svg width="120" height="120" viewBox="0 0 120 120" fill="none" xmlns="http://www.w3.org/2000/svg">
<circle cx="60" cy="60" r="60" fill="#F4F1FF"/>
<path d="M83.4158 56.6543H36.5813C32.8861 56.6543 29.8906 59.6498 29.8906 63.3449V86.7622C29.8906 90.4574 32.8861 93.4529 36.5813 93.4529H83.4158C87.111 93.4529 90.1065 90.4574 90.1065 86.7622V63.3449C90.1065 59.6498 87.111 56.6543 83.4158 56.6543Z" stroke="#3300FF" stroke-width="3" stroke-linecap="round" stroke-linejoin="round"/>
<path d="M43.2734 56.6543V43.273C43.2734 38.8368 45.0357 34.5824 48.1725 31.4455C51.3094 28.3087 55.5639 26.5464 60.0001 26.5464C64.4362 26.5464 68.6907 28.3087 71.8276 31.4455C74.9644 34.5824 76.7267 38.8368 76.7267 43.273V56.6543" stroke="#3300FF" stroke-width="3" stroke-linecap="round" stroke-linejoin="round"/>
<ellipse cx="60.4298" cy="75.1075" rx="3.45324" ry="3.45324" fill="#3300FF"/>
<line x1="60.5664" y1="78.6973" x2="60.5664" y2="84.467" stroke="#3300FF" stroke-width="2" stroke-linecap="round"/>
</svg>
