<svg width="57" height="56" viewBox="0 0 57 56" fill="none" xmlns="http://www.w3.org/2000/svg">
<g filter="url(#filter0_d_1591_1270)">
<circle cx="28.1094" cy="24" r="23" stroke="#3300FF" stroke-opacity="0.3" stroke-width="2"/>
<path d="M38.1094 16.009C37.2388 16.6113 36.2749 17.0719 35.2548 17.3732C34.7073 16.7558 33.9797 16.3181 33.1703 16.1195C32.361 15.9208 31.5089 15.9708 30.7294 16.2626C29.95 16.5544 29.2807 17.074 28.8121 17.7511C28.3435 18.4281 28.0982 19.23 28.1094 20.0483V20.9399C26.5118 20.9806 24.9287 20.633 23.5012 19.9283C22.0737 19.2235 20.846 18.1836 19.9276 16.9008C19.9276 16.9008 16.2912 24.9258 24.473 28.4925C22.6008 29.739 20.3704 30.364 18.1094 30.2758C26.2912 34.7342 36.2912 30.2758 36.2912 20.0215C36.2904 19.7731 36.266 19.5254 36.2185 19.2814C37.1463 18.3839 37.801 17.2508 38.1094 16.009Z" stroke="#3300FF" stroke-width="2" stroke-linecap="round" stroke-linejoin="round"/>
</g>
<defs>
<filter id="filter0_d_1591_1270" x="0.109375" y="0" width="56" height="56" filterUnits="userSpaceOnUse" color-interpolation-filters="sRGB">
<feFlood flood-opacity="0" result="BackgroundImageFix"/>
<feColorMatrix in="SourceAlpha" type="matrix" values="0 0 0 0 0 0 0 0 0 0 0 0 0 0 0 0 0 0 127 0" result="hardAlpha"/>
<feOffset dy="4"/>
<feGaussianBlur stdDeviation="2"/>
<feComposite in2="hardAlpha" operator="out"/>
<feColorMatrix type="matrix" values="0 0 0 0 0 0 0 0 0 0 0 0 0 0 0 0 0 0 0.25 0"/>
<feBlend mode="normal" in2="BackgroundImageFix" result="effect1_dropShadow_1591_1270"/>
<feBlend mode="normal" in="SourceGraphic" in2="effect1_dropShadow_1591_1270" result="shape"/>
</filter>
</defs>
</svg>
