<svg width="127" height="83" viewBox="0 0 127 83" fill="none" xmlns="http://www.w3.org/2000/svg">
<path opacity="0.03" fill-rule="evenodd" clip-rule="evenodd" d="M43.2651 1.5817C27.2743 7.63402 14.9511 16.48 7.89251 26.9728C-0.516916 39.4737 -2.42916 56.0116 3.23356 67.2668C9.04641 78.8202 21.6695 85.0189 34.0676 82.4078C50.4186 78.964 57.2011 61.1526 46.31 50.2579C43.3663 47.3133 40.2925 45.7232 35.7467 44.7931C32.4437 44.1173 29.1815 44.2931 25.4012 45.3503C24.4009 45.6302 24.3924 45.605 24.5655 42.8813C24.8177 38.9085 26.4679 35.7846 30.4183 31.804C35.3805 26.8042 42.4927 22.5852 51.151 19.5053L55.4752 17.9672L51.658 9.02828C49.5586 4.11167 47.8016 0.0500588 47.7539 0.00227508C47.7063 -0.0455086 45.6865 0.665274 43.2651 1.5817ZM114.918 1.57615C113.069 2.26517 109.361 3.88811 106.678 5.18211C84.4153 15.9202 72.881 30.9734 71.8568 50.6248C71.4443 58.5463 72.912 64.4412 76.7663 70.3386C80.2552 75.6772 85.3918 79.6291 91.4526 81.6373C94.3958 82.6126 95.6199 82.7773 99.9922 82.7854C104.453 82.7939 105.512 82.6502 108.4 81.6429C117.79 78.368 123.204 71.4739 123.21 62.7841C123.215 55.6144 119.397 49.6628 112.779 46.5223C108.477 44.4804 104.276 43.9257 99.8807 44.8191C98.0242 45.1963 96.3804 45.5052 96.2281 45.5052C95.6875 45.5052 95.9635 42.5562 96.7376 40.0612C98.6877 33.7764 104.988 27.8747 115.326 22.6505C117.68 21.461 121.269 19.9447 123.303 19.2813C125.336 18.6179 127 17.9207 127 17.7322C127 17.5436 125.34 13.5404 123.31 8.83543C120.717 2.82407 119.421 0.287271 118.95 0.302203C118.582 0.313296 116.768 0.8867 114.918 1.57615Z" fill="black"/>
</svg>
