<svg width="127" height="83" viewBox="0 0 127 83" fill="none" xmlns="http://www.w3.org/2000/svg">
<path opacity="0.03" fill-rule="evenodd" clip-rule="evenodd" d="M83.7349 81.4183C99.7257 75.366 112.049 66.52 119.107 56.0272C127.517 43.5263 129.429 26.9884 123.766 15.7332C117.954 4.17977 105.331 -2.01888 92.9324 0.59216C76.5814 4.036 69.7989 21.8474 80.69 32.7421C83.6337 35.6867 86.7075 37.2768 91.2533 38.2069C94.5563 38.8827 97.8185 38.7069 101.599 37.6497C102.599 37.3698 102.608 37.395 102.435 40.1187C102.182 44.0915 100.532 47.2154 96.5817 51.196C91.6195 56.1958 84.5073 60.4148 75.849 63.4947L71.5248 65.0328L75.342 73.9717C77.4414 78.8883 79.1984 82.9499 79.2461 82.9977C79.2937 83.0455 81.3135 82.3347 83.7349 81.4183ZM12.0816 81.4238C13.9314 80.7348 17.6393 79.1119 20.3222 77.8179C42.5847 67.0798 54.119 52.0266 55.1432 32.3751C55.5557 24.4537 54.088 18.5588 50.2337 12.6614C46.7448 7.32283 41.6082 3.37086 35.5474 1.36266C32.6042 0.387367 31.3801 0.222678 27.0078 0.214576C22.5466 0.206046 21.488 0.349814 18.5997 1.35711C9.20988 4.632 3.79599 11.5261 3.79004 20.2159C3.78536 27.3856 7.6026 33.3372 14.2206 36.4777C18.5231 38.5196 22.7236 39.0742 27.1193 38.1809C28.9758 37.8037 30.6196 37.4948 30.7719 37.4948C31.3125 37.4948 31.0365 40.4438 30.2624 42.9388C28.3123 49.2236 22.0116 55.1253 11.6738 60.3495C9.32004 61.539 5.73076 63.0553 3.69731 63.7187C1.66385 64.3821 1.56668e-06 65.0792 1.5502e-06 65.2678C1.53371e-06 65.4564 1.66045 69.4596 3.69008 74.1646C6.28326 80.1759 7.5792 82.7127 8.04961 82.6978C8.41793 82.6867 10.2324 82.1133 12.0816 81.4238Z" fill="black"/>
</svg>
