<svg width="205" height="163" viewBox="0 0 205 163" fill="none" xmlns="http://www.w3.org/2000/svg">
<mask id="mask0_3717_1672" style="mask-type:alpha" maskUnits="userSpaceOnUse" x="0" y="0" width="205" height="163">
<rect width="205" height="163" rx="15" fill="white"/>
</mask>
<g mask="url(#mask0_3717_1672)">
<g opacity="0.4">
<g opacity="0.3">
<path d="M219.73 75.7109H151.849" stroke="url(#paint0_linear_3717_1672)" stroke-width="2"/>
<path d="M196.684 122.014H174.894" stroke="url(#paint1_linear_3717_1672)" stroke-width="3"/>
<line x1="186.793" y1="-28" x2="186.793" y2="205.186" stroke="black" stroke-width="2"/>
<line x1="162.953" y1="29.9883" x2="115.813" y2="29.9883" stroke="url(#paint2_linear_3717_1672)" stroke-width="2"/>
<line x1="349" y1="99.3359" x2="23" y2="99.3359" stroke="url(#paint3_linear_3717_1672)" stroke-width="2"/>
<rect x="93.918" y="5.62891" width="1.62956" height="1.62956" transform="rotate(45 93.918 5.62891)" fill="black"/>
<rect x="47.7227" y="120.545" width="2.07393" height="2.07393" transform="rotate(45 47.7227 120.545)" fill="black"/>
<rect x="94.0215" y="97.5" width="2.07393" height="2.07393" transform="rotate(45 94.0215 97.5)" fill="black"/>
<rect x="163.16" y="143.803" width="2.07393" height="2.07393" transform="rotate(45 163.16 143.803)" fill="black"/>
<rect x="186.42" y="120.752" width="1.77804" height="1.77804" transform="rotate(45 186.42 120.752)" fill="black"/>
<rect x="186.061" y="73.8008" width="2.66692" height="2.66692" transform="rotate(45 186.061 73.8008)" fill="black"/>
<rect x="140.113" y="51.1953" width="2.07393" height="2.07393" transform="rotate(45 140.113 51.1953)" fill="black"/>
<rect x="116.08" y="97.5" width="2.07393" height="2.07393" transform="rotate(45 116.08 97.5)" fill="black"/>
<rect x="48.957" y="51.8242" width="2.07393" height="2.07393" transform="rotate(90 48.957 51.8242)" fill="black"/>
<rect x="166.301" y="74.4531" width="2.93316" height="5.4473" transform="rotate(90 166.301 74.4531)" fill="black"/>
<rect x="188.305" y="28.7773" width="1.8856" height="3.35218" transform="rotate(90 188.305 28.7773)" fill="black"/>
<path d="M95.4864 145.374C95.4864 146.242 94.7829 146.945 93.9151 146.945C93.0473 146.945 92.3438 146.242 92.3438 145.374C92.3438 144.506 93.0473 143.803 93.9151 143.803C94.7829 143.803 95.4864 144.506 95.4864 145.374ZM93.2125 145.374C93.2125 145.762 93.5271 146.077 93.9151 146.077C94.3031 146.077 94.6177 145.762 94.6177 145.374C94.6177 144.986 94.3031 144.671 93.9151 144.671C93.5271 144.671 93.2125 144.986 93.2125 145.374Z" fill="black"/>
<path d="M164.628 98.8618C164.628 99.6139 164.018 100.224 163.266 100.224C162.514 100.224 161.904 99.6139 161.904 98.8618C161.904 98.1097 162.514 97.5 163.266 97.5C164.018 97.5 164.628 98.1097 164.628 98.8618ZM162.632 98.8618C162.632 99.2122 162.916 99.4963 163.266 99.4963C163.617 99.4963 163.901 99.2122 163.901 98.8618C163.901 98.5114 163.617 98.2274 163.266 98.2274C162.916 98.2274 162.632 98.5114 162.632 98.8618Z" fill="black"/>
<path d="M46.0449 97.709H48.14L48.7686 100.014H46.5687L46.0449 97.709Z" fill="black"/>
<path d="M139.386 120.545L140.173 120.539L140.96 120.545L141.359 121.223L141.747 121.908L141.359 122.593L140.96 123.271L140.173 123.277L139.386 123.271L138.988 122.593L138.6 121.908L138.988 121.223L139.386 120.545Z" fill="black"/>
<rect x="93.1855" y="120.752" width="1.67609" height="2.93316" fill="black"/>
<rect x="141.791" y="5.73242" width="1.67609" height="2.93316" transform="rotate(90 141.791 5.73242)" fill="black"/>
<path d="M68.6691 122.221C68.6691 122.496 68.7233 122.769 68.8286 123.023C68.9339 123.277 69.0882 123.508 69.2828 123.703C69.4773 123.897 69.7083 124.052 69.9625 124.157C70.2167 124.262 70.4891 124.316 70.7643 124.316C71.0394 124.316 71.3118 124.262 71.566 124.157C71.8202 124.052 72.0512 123.897 72.2457 123.703C72.4403 123.508 72.5946 123.277 72.6999 123.023C72.8052 122.769 72.8594 122.496 72.8594 122.221L70.7643 122.221L68.6691 122.221Z" fill="black"/>
<path d="M138.23 75.9186C138.23 76.1937 138.284 76.4661 138.389 76.7203C138.494 76.9745 138.649 77.2055 138.843 77.4C139.038 77.5946 139.269 77.7489 139.523 77.8542C139.777 77.9595 140.05 78.0137 140.325 78.0137C140.6 78.0137 140.872 77.9595 141.127 77.8542C141.381 77.7489 141.612 77.5946 141.806 77.4C142.001 77.2055 142.155 76.9745 142.26 76.7203C142.366 76.4661 142.42 76.1937 142.42 75.9186L140.325 75.9186L138.23 75.9186Z" fill="black"/>
<path d="M186.73 9.50162C187.129 9.50162 187.524 9.42304 187.892 9.27037C188.261 9.1177 188.596 8.89393 188.878 8.61183C189.16 8.32973 189.384 7.99484 189.536 7.62626C189.689 7.25768 189.768 6.86264 189.768 6.4637C189.768 6.06475 189.689 5.66971 189.536 5.30114C189.384 4.93256 189.16 4.59766 188.878 4.31557C188.596 4.03347 188.261 3.8097 187.892 3.65703C187.524 3.50436 187.129 3.42578 186.73 3.42578L186.73 6.4637L186.73 9.50162Z" fill="black"/>
<path d="M184.533 145.058C184.533 145.305 184.582 145.551 184.677 145.779C184.772 146.008 184.911 146.216 185.086 146.391C185.261 146.566 185.469 146.705 185.697 146.8C185.926 146.895 186.171 146.943 186.419 146.943C186.667 146.943 186.912 146.895 187.141 146.8C187.369 146.705 187.577 146.566 187.752 146.391C187.928 146.216 188.066 146.008 188.161 145.779C188.256 145.551 188.305 145.305 188.305 145.058L186.419 145.058L184.533 145.058Z" fill="black"/>
<path d="M69.0918 144.219H72.863L72.2345 146.314H69.8251L69.0918 144.219Z" fill="black"/>
<rect x="115.184" y="5.73242" width="3.77121" height="1.46658" rx="0.73329" fill="black"/>
<rect x="139.699" y="143.592" width="1.04756" height="2.93316" rx="0.523779" fill="black"/>
<path fill-rule="evenodd" clip-rule="evenodd" d="M163.358 27.4746L162.273 27.4832L161.723 28.4189L161.188 29.3632L161.723 30.3074L162.273 31.2431L163.358 31.2517L164.444 31.2431L164.994 30.3074L165.529 29.3632L164.994 28.4189L164.444 27.4832L163.358 27.4746ZM163.373 30.4532C163.952 30.4532 164.421 29.9842 164.421 29.4057C164.421 28.8271 163.952 28.3581 163.373 28.3581C162.795 28.3581 162.326 28.8271 162.326 29.4057C162.326 29.9842 162.795 30.4532 163.373 30.4532Z" fill="black"/>
</g>
</g>
</g>
<defs>
<linearGradient id="paint0_linear_3717_1672" x1="219.73" y1="76.2109" x2="151.849" y2="76.2109" gradientUnits="userSpaceOnUse">
<stop stop-color="white" stop-opacity="0"/>
<stop offset="0.546875"/>
<stop offset="1" stop-color="white" stop-opacity="0"/>
</linearGradient>
<linearGradient id="paint1_linear_3717_1672" x1="196.684" y1="122.514" x2="174.894" y2="122.514" gradientUnits="userSpaceOnUse">
<stop stop-opacity="0"/>
<stop offset="0.546875"/>
<stop offset="1" stop-opacity="0"/>
</linearGradient>
<linearGradient id="paint2_linear_3717_1672" x1="163.791" y1="25.4888" x2="118.327" y2="25.4888" gradientUnits="userSpaceOnUse">
<stop stop-color="white" stop-opacity="0"/>
<stop offset="0.546875"/>
<stop offset="1" stop-color="white" stop-opacity="0"/>
</linearGradient>
<linearGradient id="paint3_linear_3717_1672" x1="307.833" y1="98.2273" x2="35.2301" y2="98.2273" gradientUnits="userSpaceOnUse">
<stop stop-color="white" stop-opacity="0"/>
<stop offset="0.546875"/>
<stop offset="1" stop-color="white" stop-opacity="0"/>
</linearGradient>
</defs>
</svg>
