<svg width="278" height="221" viewBox="0 0 278 221" fill="none" xmlns="http://www.w3.org/2000/svg">
<mask id="mask0_3030_1662" style="mask-type:alpha" maskUnits="userSpaceOnUse" x="0" y="0" width="278" height="221">
<rect x="0.0546875" width="277.945" height="221" rx="15" fill="white"/>
</mask>
<g mask="url(#mask0_3030_1662)">
<g opacity="0.4">
<g opacity="0.3">
<path d="M297.959 102.654H205.923" stroke="url(#paint0_linear_3030_1662)" stroke-width="2"/>
<path d="M266.723 165.43H237.18" stroke="url(#paint1_linear_3030_1662)" stroke-width="3"/>
<line x1="252.941" y1="-37.957" x2="252.941" y2="278.204" stroke="black" stroke-width="2"/>
<line x1="220.979" y1="40.3086" x2="157.065" y2="40.3086" stroke="url(#paint2_linear_3030_1662)" stroke-width="2"/>
<line x1="473.227" y1="134.332" x2="31.2266" y2="134.332" stroke="url(#paint3_linear_3030_1662)" stroke-width="2"/>
<rect x="127.387" y="7.63672" width="2.20941" height="2.20941" transform="rotate(45 127.387 7.63672)" fill="black"/>
<rect x="64.7441" y="163.445" width="2.8119" height="2.8119" transform="rotate(45 64.7441 163.445)" fill="black"/>
<rect x="127.525" y="132.197" width="2.8119" height="2.8119" transform="rotate(45 127.525 132.197)" fill="black"/>
<rect x="221.268" y="194.975" width="2.8119" height="2.8119" transform="rotate(45 221.268 194.975)" fill="black"/>
<rect x="252.801" y="163.727" width="2.41071" height="2.41071" transform="rotate(45 252.801 163.727)" fill="black"/>
<rect x="252.314" y="100.066" width="3.61588" height="3.61588" transform="rotate(45 252.314 100.066)" fill="black"/>
<rect x="190.02" y="69.416" width="2.8119" height="2.8119" transform="rotate(45 190.02 69.416)" fill="black"/>
<rect x="157.428" y="132.197" width="2.8119" height="2.8119" transform="rotate(45 157.428 132.197)" fill="black"/>
<rect x="66.4277" y="70.2695" width="2.8119" height="2.8119" transform="rotate(90 66.4277 70.2695)" fill="black"/>
<rect x="225.516" y="100.949" width="3.97686" height="7.3856" transform="rotate(90 225.516 100.949)" fill="black"/>
<rect x="255.354" y="39.0215" width="2.55656" height="4.54499" transform="rotate(90 255.354 39.0215)" fill="black"/>
<path d="M129.509 197.105C129.509 198.282 128.555 199.236 127.379 199.236C126.202 199.236 125.248 198.282 125.248 197.105C125.248 195.928 126.202 194.975 127.379 194.975C128.555 194.975 129.509 195.928 129.509 197.105ZM126.426 197.105C126.426 197.631 126.852 198.058 127.379 198.058C127.905 198.058 128.331 197.631 128.331 197.105C128.331 196.579 127.905 196.152 127.379 196.152C126.852 196.152 126.426 196.579 126.426 197.105Z" fill="black"/>
<path d="M223.255 134.044C223.255 135.063 222.429 135.89 221.409 135.89C220.389 135.89 219.562 135.063 219.562 134.044C219.562 133.024 220.389 132.197 221.409 132.197C222.429 132.197 223.255 133.024 223.255 134.044ZM220.549 134.044C220.549 134.519 220.934 134.904 221.409 134.904C221.884 134.904 222.269 134.519 222.269 134.044C222.269 133.569 221.884 133.183 221.409 133.183C220.934 133.183 220.549 133.569 220.549 134.044Z" fill="black"/>
<path d="M62.4766 132.484H65.3172L66.1694 135.609H63.1867L62.4766 132.484Z" fill="black"/>
<path d="M189.03 163.443L190.097 163.434L191.164 163.443L191.704 164.363L192.231 165.291L191.704 166.219L191.164 167.139L190.097 167.147L189.03 167.139L188.489 166.219L187.963 165.291L188.489 164.363L189.03 163.443Z" fill="black"/>
<rect x="126.393" y="163.727" width="2.27249" height="3.97686" fill="black"/>
<rect x="192.287" y="7.77344" width="2.27249" height="3.97686" transform="rotate(90 192.287 7.77344)" fill="black"/>
<path d="M93.1488 165.716C93.1488 166.089 93.2223 166.458 93.3651 166.803C93.5078 167.148 93.7171 167.461 93.9808 167.725C94.2446 167.988 94.5578 168.198 94.9024 168.34C95.247 168.483 95.6164 168.557 95.9895 168.557C96.3625 168.557 96.7319 168.483 97.0765 168.34C97.4212 168.198 97.7343 167.988 97.9981 167.725C98.2619 167.461 98.4711 167.148 98.6138 166.803C98.7566 166.458 98.8301 166.089 98.8301 165.716L95.9895 165.716L93.1488 165.716Z" fill="black"/>
<path d="M187.463 102.941C187.463 103.314 187.537 103.683 187.68 104.028C187.822 104.372 188.032 104.685 188.295 104.949C188.559 105.213 188.872 105.422 189.217 105.565C189.561 105.708 189.931 105.781 190.304 105.781C190.677 105.781 191.046 105.708 191.391 105.565C191.736 105.422 192.049 105.213 192.313 104.949C192.576 104.685 192.786 104.372 192.928 104.028C193.071 103.683 193.145 103.314 193.145 102.941L190.304 102.941L187.463 102.941Z" fill="black"/>
<path d="M253.217 12.8862C253.758 12.8862 254.294 12.7797 254.793 12.5727C255.293 12.3657 255.747 12.0623 256.13 11.6798C256.512 11.2974 256.815 10.8433 257.022 10.3436C257.229 9.84384 257.336 9.30823 257.336 8.76733C257.336 8.22643 257.229 7.69083 257.022 7.1911C256.815 6.69137 256.512 6.23731 256.13 5.85483C255.747 5.47236 255.293 5.16896 254.793 4.96197C254.294 4.75498 253.758 4.64844 253.217 4.64844L253.217 8.76733L253.217 12.8862Z" fill="black"/>
<path d="M250.24 196.676C250.24 197.012 250.307 197.344 250.435 197.654C250.563 197.964 250.752 198.246 250.989 198.484C251.227 198.721 251.508 198.909 251.819 199.038C252.129 199.166 252.461 199.232 252.797 199.232C253.133 199.232 253.465 199.166 253.775 199.038C254.085 198.909 254.367 198.721 254.605 198.484C254.842 198.246 255.03 197.964 255.159 197.654C255.287 197.344 255.354 197.012 255.354 196.676L252.797 196.676L250.24 196.676Z" fill="black"/>
<path d="M93.7246 195.541H98.8377L97.9855 198.382H94.7188L93.7246 195.541Z" fill="black"/>
<rect x="156.209" y="7.77344" width="5.11311" height="1.98843" rx="0.994216" fill="black"/>
<rect x="189.459" y="194.688" width="1.42031" height="3.97686" rx="0.710154" fill="black"/>
<path fill-rule="evenodd" clip-rule="evenodd" d="M221.525 37.2578L220.054 37.2695L219.308 38.5381L218.582 39.8184L219.308 41.0987L220.054 42.3672L221.525 42.3789L222.997 42.3672L223.743 41.0987L224.468 39.8184L223.743 38.5381L222.997 37.2695L221.525 37.2578ZM221.552 41.2957C222.336 41.2957 222.972 40.6598 222.972 39.8754C222.972 39.091 222.336 38.4551 221.552 38.4551C220.768 38.4551 220.132 39.091 220.132 39.8754C220.132 40.6598 220.768 41.2957 221.552 41.2957Z" fill="black"/>
</g>
</g>
</g>
<defs>
<linearGradient id="paint0_linear_3030_1662" x1="297.959" y1="103.154" x2="205.923" y2="103.154" gradientUnits="userSpaceOnUse">
<stop stop-color="white" stop-opacity="0"/>
<stop offset="0.546875"/>
<stop offset="1" stop-color="white" stop-opacity="0"/>
</linearGradient>
<linearGradient id="paint1_linear_3030_1662" x1="266.723" y1="165.93" x2="237.18" y2="165.93" gradientUnits="userSpaceOnUse">
<stop stop-opacity="0"/>
<stop offset="0.546875"/>
<stop offset="1" stop-opacity="0"/>
</linearGradient>
<linearGradient id="paint2_linear_3030_1662" x1="222.115" y1="35.8091" x2="160.473" y2="35.8091" gradientUnits="userSpaceOnUse">
<stop stop-color="white" stop-opacity="0"/>
<stop offset="0.546875"/>
<stop offset="1" stop-color="white" stop-opacity="0"/>
</linearGradient>
<linearGradient id="paint3_linear_3030_1662" x1="417.411" y1="133.223" x2="47.8085" y2="133.223" gradientUnits="userSpaceOnUse">
<stop stop-color="white" stop-opacity="0"/>
<stop offset="0.546875"/>
<stop offset="1" stop-color="white" stop-opacity="0"/>
</linearGradient>
</defs>
</svg>
