<svg width="90" height="50" viewBox="0 0 90 50" fill="none" xmlns="http://www.w3.org/2000/svg">
<line x1="0.286987" y1="48.8535" x2="5.85904" y2="48.8522" stroke="#4E5D78"/>
<line x1="3.28942" y1="28.7068" x2="8.27649" y2="31.1921" stroke="#4E5D78"/>
<line x1="15.2899" y1="11.7688" x2="19.1207" y2="16.2961" stroke="#4E5D78"/>
<line x1="34.2095" y1="1.93377" x2="34.906" y2="7.85407" stroke="#4E5D78"/>
<line x1="54.4113" y1="0.997655" x2="53.7148" y2="7.61446" stroke="#4E5D78"/>
<line x1="73.1029" y1="11.3631" x2="69.6203" y2="15.5421" stroke="#4E5D78"/>
<line x1="85.8306" y1="27.8632" x2="80.6068" y2="30.301" stroke="#4E5D78"/>
<line x1="89.2701" y1="48.3143" x2="83.507" y2="48.1862" stroke="#4E5D78"/>
<line x1="0.632812" y1="42.584" x2="3.07058" y2="42.584" stroke="#4E5D78"/>
<line x1="1.81874" y1="35.2887" x2="4.16308" y2="35.9571" stroke="#4E5D78"/>
<line x1="6.84375" y1="22.483" x2="8.8123" y2="23.9209" stroke="#4E5D78"/>
<line x1="10.6816" y1="16.9087" x2="12.6502" y2="18.3466" stroke="#4E5D78"/>
<line x1="21.2564" y1="7.66209" x2="22.6494" y2="10.0999" stroke="#4E5D78"/>
<line x1="27.5736" y1="4.59983" x2="28.6184" y2="7.38585" stroke="#4E5D78"/>
<line x1="41.1777" y1="0.945313" x2="41.1777" y2="4.07959" stroke="#4E5D78"/>
<line x1="47.7949" y1="0.945313" x2="47.7949" y2="4.07959" stroke="#4E5D78"/>
<line x1="61.3568" y1="4.25759" x2="60.3121" y2="7.04362" stroke="#4E5D78"/>
<line x1="67.61" y1="7.4118" x2="66.5652" y2="9.84957" stroke="#4E5D78"/>
<line x1="78.2732" y1="16.304" x2="76.1837" y2="18.0453" stroke="#4E5D78"/>
<line x1="82.416" y1="21.9102" x2="80.3265" y2="23.3032" stroke="#4E5D78"/>
<line x1="88.1289" y1="35.2242" x2="85.6195" y2="35.3224" stroke="#4E5D78"/>
<line x1="89.1777" y1="41.4977" x2="86.6684" y2="41.5958" stroke="#4E5D78"/>
</svg>
